<?xml version="1.0" standalone="no"?>
<!DOCTYPE svg PUBLIC "-//W3C//DTD SVG 1.1//EN" "http://www.w3.org/Graphics/SVG/1.1/DTD/svg11.dtd" >
<svg xmlns="http://www.w3.org/2000/svg" xmlns:xlink="http://www.w3.org/1999/xlink" version="1.1">
<metadata></metadata>
<defs>
<font id="montserratmedium" horiz-adv-x="1253" >
<font-face units-per-em="2048" ascent="1638" descent="-410" />
<missing-glyph horiz-adv-x="550" />
<glyph unicode="&#xfb01;" horiz-adv-x="1458" d="M31 924v161h184v97q0 161 93.5 255.5t264.5 94.5q140 0 222 -64l-60 -149q-67 51 -151 51q-176 0 -176 -190v-95h315v-161h-311v-924h-197v924h-184zM1038 1421q0 54 38 91.5t95 37.5t95.5 -36t38.5 -89q0 -56 -38 -93.5t-96 -37.5q-57 0 -95 36.5t-38 90.5zM1073 0v1085 h197v-1085h-197z" />
<glyph unicode="&#xfb02;" horiz-adv-x="1294" d="M31 924v161h184v97q0 161 93.5 255.5t264.5 94.5q140 0 222 -64l-60 -149q-67 51 -151 51q-176 0 -176 -190v-95h315v-161h-311v-924h-197v924h-184zM909 0v1520h197v-1520h-197z" />
<glyph horiz-adv-x="0" />
<glyph horiz-adv-x="682" />
<glyph horiz-adv-x="0" />
<glyph horiz-adv-x="0" />
<glyph unicode="&#xd;" horiz-adv-x="550" />
<glyph unicode=" "  horiz-adv-x="550" />
<glyph unicode="&#x09;" horiz-adv-x="550" />
<glyph unicode="&#xa0;" horiz-adv-x="550" />
<glyph unicode="!" horiz-adv-x="548" d="M141 119q0 56 38.5 93.5t96.5 37.5q57 0 94.5 -37.5t37.5 -93.5q0 -55 -38 -93t-94 -38q-58 0 -96.5 38t-38.5 93zM160 1434h231l-39 -981h-155z" />
<glyph unicode="&#x22;" horiz-adv-x="800" d="M129 1434h172l-14 -553h-146zM500 1434h172l-15 -553h-145z" />
<glyph unicode="#" horiz-adv-x="1439" d="M55 369v149h301l52 397h-287v150h305l45 369h145l-45 -369h385l45 369h146l-45 -369h282v-150h-301l-49 -397h285v-149h-303l-45 -369h-146l45 369h-387l-45 -369h-145l45 369h-283zM502 518h387l49 397h-385z" />
<glyph unicode="$" horiz-adv-x="1271" d="M84 164l76 160q73 -67 186.5 -112t235.5 -52v475q-58 14 -97.5 25t-92 30.5t-88 39.5t-73.5 51t-60.5 66.5t-37 85t-14.5 107.5q0 161 118 274t345 132v233h131v-231q245 -10 415 -125l-67 -164q-167 106 -348 115v-477q62 -15 99.5 -25.5t93.5 -30.5t91 -39.5t75 -50.5 t62.5 -66.5t38 -85t15.5 -108.5q0 -77 -29 -145t-86.5 -123t-149.5 -91t-210 -46v-232h-131v232q-150 7 -284 55.5t-214 122.5zM319 1049q0 -46 19.5 -82t58 -61.5t81.5 -43t104 -33.5v443q-131 -17 -197 -77t-66 -146zM713 162q137 13 205.5 71.5t68.5 145.5q0 47 -20 83.5 t-61 62.5t-85 43t-108 34v-440z" />
<glyph unicode="%" horiz-adv-x="1726" d="M76 1055q0 175 92.5 283t241.5 108t240 -107t91 -284t-91 -284t-240 -107t-241.5 108t-92.5 283zM209 1055q0 -127 54.5 -201t146.5 -74q94 0 147 73t53 202t-53 201.5t-147 72.5q-93 0 -147 -73.5t-54 -200.5zM295 0l979 1434h158l-979 -1434h-158zM985 379 q0 175 91.5 283t240.5 108t241.5 -108t92.5 -283t-92.5 -283t-241.5 -108t-240.5 108t-91.5 283zM1116 379q0 -129 53.5 -202t147.5 -73q92 0 146.5 74t54.5 201t-54 200.5t-147 73.5q-94 0 -147.5 -72.5t-53.5 -201.5z" />
<glyph unicode="&#x26;" horiz-adv-x="1404" d="M92 356q0 131 80.5 233t267.5 208q-95 95 -133.5 170t-38.5 157q0 145 105.5 233.5t281.5 88.5q164 0 260.5 -80t96.5 -219q0 -109 -70.5 -195t-234.5 -180l354 -352q63 119 88 260l158 -51q-37 -190 -125 -328l192 -192l-110 -132l-191 191q-190 -184 -479 -184 q-219 0 -360.5 104t-141.5 268zM285 377q0 -103 88.5 -166.5t232.5 -63.5q211 0 350 136l-407 405q-148 -83 -206 -153t-58 -158zM451 1128q0 -56 29.5 -106.5t115.5 -138.5q141 79 195.5 136.5t54.5 125.5q0 72 -50 115t-141 43q-95 0 -149.5 -48.5t-54.5 -126.5z" />
<glyph unicode="'" horiz-adv-x="430" d="M129 1434h172l-14 -553h-146z" />
<glyph unicode="(" horiz-adv-x="690" d="M195 561q0 282 63 528.5t180 430.5h187q-238 -417 -238 -959q0 -541 238 -958h-187q-118 187 -180.5 432t-62.5 526z" />
<glyph unicode=")" horiz-adv-x="692" d="M66 -397q239 419 239 958q0 540 -239 959h186q119 -184 182.5 -430.5t63.5 -528.5q0 -281 -63.5 -526t-182.5 -432h-186z" />
<glyph unicode="*" horiz-adv-x="819" d="M39 1001l246 138l-246 135l63 115l248 -146l-2 277h123l-2 -277l248 146l63 -115l-243 -135l243 -138l-63 -112l-248 145l2 -278h-123l2 278l-248 -145z" />
<glyph unicode="+" horiz-adv-x="1191" d="M137 635v162h373v368h172v-368h373v-162h-373v-367h-172v367h-373z" />
<glyph unicode="," horiz-adv-x="464" d="M98 129q0 61 39.5 100t98.5 39q58 0 95.5 -39.5t37.5 -99.5q0 -48 -35 -147l-96 -285h-129l75 305q-39 14 -62.5 48t-23.5 79z" />
<glyph unicode="-" horiz-adv-x="784" d="M117 477v170h551v-170h-551z" />
<glyph unicode="." horiz-adv-x="464" d="M94 129q0 60 40.5 99.5t98.5 39.5q57 0 96.5 -39.5t39.5 -99.5q0 -61 -40 -101t-96 -40q-58 0 -98.5 40t-40.5 101z" />
<glyph unicode="/" horiz-adv-x="720" d="M-57 -205l675 1929h179l-676 -1929h-178z" />
<glyph unicode="0" horiz-adv-x="1366" d="M98 717q0 172 44.5 311t122.5 231t185.5 141.5t233.5 49.5q125 0 232 -49.5t185.5 -141.5t122.5 -231t44 -311t-44 -311t-122.5 -231t-185.5 -141.5t-232 -49.5q-126 0 -233.5 49.5t-185.5 141.5t-122.5 231t-44.5 311zM303 717q0 -268 103.5 -409.5t277.5 -141.5 q173 0 276 141.5t103 409.5t-103 409.5t-276 141.5q-174 0 -277.5 -141.5t-103.5 -409.5z" />
<glyph unicode="1" horiz-adv-x="757" d="M16 1255v179h527v-1434h-203v1255h-324z" />
<glyph unicode="2" horiz-adv-x="1175" d="M29 1233q84 103 220.5 160t303.5 57q225 0 358 -107.5t133 -291.5q0 -115 -49 -217.5t-186 -233.5l-438 -422h735v-178h-1030v139l583 563q106 102 143.5 177t37.5 151q0 112 -78.5 175t-226.5 63q-237 0 -367 -156z" />
<glyph unicode="3" horiz-adv-x="1171" d="M10 158l94 161q74 -69 189 -111t244 -42q160 0 248.5 68t88.5 186t-87.5 184t-266.5 66h-114v143l360 442h-690v179h946v-140l-375 -463q210 -20 321 -129.5t111 -279.5q0 -191 -140 -314.5t-402 -123.5q-155 0 -296 46.5t-231 127.5z" />
<glyph unicode="4" horiz-adv-x="1370" d="M78 352v144l733 938h221l-702 -906h551v312h192v-312h273v-176h-273v-352h-199v352h-796z" />
<glyph unicode="5" horiz-adv-x="1175" d="M35 158l94 161q74 -69 188.5 -111t241.5 -42q161 0 250.5 69t89.5 187q0 63 -21.5 109.5t-70.5 82t-134.5 53t-207.5 17.5h-326l76 750h809v-179h-637l-39 -393h160q157 0 273 -31.5t186 -90t103.5 -135.5t33.5 -175q0 -94 -34 -174.5t-99.5 -141.5t-170.5 -95.5 t-239 -34.5q-153 0 -293.5 46.5t-232.5 127.5z" />
<glyph unicode="6" horiz-adv-x="1263" d="M98 698q0 180 49.5 323t139 236.5t214 143t275.5 49.5q221 0 357 -84l-78 -160q-103 68 -275 68q-223 0 -350 -139t-127 -402q0 -33 2 -51q61 91 169 139.5t243 48.5q216 0 353.5 -119t137.5 -315q0 -203 -145 -327.5t-363 -124.5q-289 0 -445.5 185.5t-156.5 528.5z M352 426q0 -116 90.5 -196t249.5 -80q141 0 229.5 76t88.5 202t-89 201.5t-239 75.5q-145 0 -237.5 -79.5t-92.5 -199.5z" />
<glyph unicode="7" horiz-adv-x="1224" d="M61 999v435h1082v-140l-580 -1294h-217l567 1255h-655v-256h-197z" />
<glyph unicode="8" horiz-adv-x="1318" d="M90 406q0 123 65 211.5t187 134.5q-201 94 -201 309q0 179 141.5 284t374.5 105q235 0 378 -105t143 -284q0 -214 -203 -309q124 -48 189 -136t65 -210q0 -195 -154.5 -308.5t-417.5 -113.5q-261 0 -414 113.5t-153 308.5zM295 412q0 -122 96 -192t266 -70t268.5 70 t98.5 192q0 119 -98.5 187.5t-268.5 68.5t-266 -68.5t-96 -187.5zM344 1053q0 -106 83 -168t230 -62q149 0 234.5 62t85.5 168q0 107 -87 169t-233 62q-145 0 -229 -62t-84 -169z" />
<glyph unicode="9" horiz-adv-x="1263" d="M57 997q0 203 144 328t362 125q289 0 445.5 -186t156.5 -529q0 -180 -49.5 -323t-139 -236.5t-214 -142.5t-275.5 -49q-220 0 -356 84l78 159q104 -67 276 -67q223 0 349.5 138.5t126.5 401.5v52q-62 -92 -170 -140.5t-244 -48.5q-216 0 -353 119t-137 315zM256 1006 q0 -127 88 -202t238 -75q146 0 238.5 79.5t92.5 199.5q0 116 -91 196t-251 80q-141 0 -228 -76t-87 -202z" />
<glyph unicode=":" horiz-adv-x="464" d="M94 129q0 60 40.5 99.5t98.5 39.5q57 0 96.5 -39.5t39.5 -99.5q0 -61 -40 -101t-96 -40q-58 0 -98.5 40t-40.5 101zM94 956q0 61 40.5 100.5t98.5 39.5q57 0 96.5 -40t39.5 -100q0 -61 -40 -101t-96 -40q-58 0 -98.5 40t-40.5 101z" />
<glyph unicode=";" horiz-adv-x="464" d="M94 956q0 61 40.5 100.5t98.5 39.5q57 0 96.5 -40t39.5 -100q0 -61 -40 -101t-96 -40q-58 0 -98.5 40t-40.5 101zM98 129q0 61 39.5 100t98.5 39q58 0 95.5 -39.5t37.5 -99.5q0 -48 -35 -147l-96 -285h-129l75 305q-39 14 -62.5 48t-23.5 79z" />
<glyph unicode="&#x3c;" horiz-adv-x="1191" d="M137 629v176l918 362v-170l-727 -280l727 -281v-170z" />
<glyph unicode="=" horiz-adv-x="1191" d="M137 393v162h918v-162h-918zM137 879v161h918v-161h-918z" />
<glyph unicode="&#x3e;" horiz-adv-x="1191" d="M137 266v170l729 281l-729 280v170l918 -362v-176z" />
<glyph unicode="?" horiz-adv-x="1173" d="M18 1221q178 229 531 229q222 0 353.5 -98t131.5 -267q0 -69 -20 -128t-52 -100.5t-70.5 -79t-77 -71.5t-70.5 -69.5t-52 -82.5t-20 -101h-205q0 65 20 121.5t51.5 97.5t70 78t77 70.5t70 67.5t51.5 76.5t20 90.5q0 100 -78 160.5t-214 60.5q-239 0 -367 -162zM438 119 q0 56 37.5 93.5t95.5 37.5q57 0 94 -37.5t37 -93.5q0 -55 -37.5 -93t-93.5 -38q-58 0 -95.5 38t-37.5 93z" />
<glyph unicode="@" horiz-adv-x="2117" d="M98 520q0 201 71 373t197 294t306.5 191.5t392.5 69.5q277 0 494.5 -113.5t338.5 -318.5t121 -467t-96 -411.5t-268 -149.5q-99 0 -163 50.5t-83 143.5q-125 -194 -389 -194q-218 0 -360 148.5t-142 377.5q0 228 141.5 375t360.5 147q120 0 216.5 -44.5t158.5 -129.5v166 h178v-737q0 -77 32.5 -112.5t84.5 -35.5q91 0 140.5 106t49.5 298q0 170 -59.5 313t-166.5 242.5t-258.5 155t-330.5 55.5q-181 0 -333.5 -59t-258.5 -163t-165.5 -251t-59.5 -320q0 -233 100.5 -413.5t285 -281.5t423.5 -101q222 0 395 90l45 -131q-92 -46 -210 -71.5 t-230 -25.5q-210 0 -389.5 70t-304 193t-195 296.5t-70.5 374.5zM700 514q0 -165 97 -266t252 -101q152 0 251 100t99 267t-98.5 266t-251.5 99q-155 0 -252 -99.5t-97 -265.5z" />
<glyph unicode="A" horiz-adv-x="1499" d="M-2 0l649 1434h203l651 -1434h-215l-158 358h-761l-158 -358h-211zM438 522h619l-309 703z" />
<glyph unicode="B" horiz-adv-x="1550" d="M215 0v1434h643q246 0 380 -98t134 -273q0 -113 -52 -195t-140 -125q125 -35 196.5 -126t71.5 -230q0 -186 -140 -286.5t-409 -100.5h-684zM420 166h471q174 0 262 57.5t88 179.5q0 240 -350 240h-471v-477zM420 809h420q158 0 242.5 58t84.5 171t-84.5 171.5 t-242.5 58.5h-420v-459z" />
<glyph unicode="C" horiz-adv-x="1480" d="M98 717q0 157 58 293t158.5 232.5t241.5 152t302 55.5q167 0 307.5 -57t237.5 -166l-133 -129q-161 170 -404 170q-120 0 -224.5 -42t-179 -114.5t-117 -175t-42.5 -219.5t42.5 -219.5t117 -175t179 -114.5t224.5 -42q241 0 404 172l133 -129q-98 -110 -238.5 -167.5 t-308.5 -57.5q-214 0 -387.5 94t-272 262t-98.5 377z" />
<glyph unicode="D" horiz-adv-x="1691" d="M215 0v1434h604q228 0 404 -90t273 -253t97 -374t-97 -374t-273 -253t-404 -90h-604zM420 178h387q264 0 423 148t159 391q0 242 -159 390t-423 148h-387v-1077z" />
<glyph unicode="E" horiz-adv-x="1372" d="M215 0v1434h1012v-179h-807v-440h719v-174h-719v-463h835v-178h-1040z" />
<glyph unicode="F" horiz-adv-x="1300" d="M215 0v1434h1012v-179h-807v-499h719v-176h-719v-580h-205z" />
<glyph unicode="G" horiz-adv-x="1581" d="M98 717q0 209 99 377t274.5 262t394.5 94q171 0 312 -56.5t239 -164.5l-127 -127q-172 166 -416 166q-249 0 -410 -156t-161 -395q0 -156 73 -282t203.5 -197.5t292.5 -71.5q194 0 336 92v467h197v-559q-105 -89 -247 -135.5t-296 -46.5q-163 0 -305 55.5t-242.5 152 t-158.5 232.5t-58 293z" />
<glyph unicode="H" horiz-adv-x="1662" d="M215 0v1434h205v-617h823v617h205v-1434h-205v639h-823v-639h-205z" />
<glyph unicode="I" horiz-adv-x="634" d="M215 0v1434h205v-1434h-205z" />
<glyph unicode="J" horiz-adv-x="1050" d="M-18 190l118 140q119 -170 299 -170q246 0 246 291v804h-518v179h721v-973q0 -238 -114 -357.5t-335 -119.5q-129 0 -239 53.5t-178 152.5z" />
<glyph unicode="K" horiz-adv-x="1472" d="M215 0v1434h205v-801l778 801h234l-613 -646l651 -788h-239l-549 637l-262 -266v-371h-205z" />
<glyph unicode="L" horiz-adv-x="1216" d="M215 0v1434h205v-1256h776v-178h-981z" />
<glyph unicode="M" horiz-adv-x="1955" d="M215 0v1434h168l598 -1008l590 1008h168l2 -1434h-197l-2 1044l-518 -870h-94l-518 864v-1038h-197z" />
<glyph unicode="N" horiz-adv-x="1662" d="M215 0v1434h168l860 -1069v1069h205v-1434h-168l-860 1069v-1069h-205z" />
<glyph unicode="O" horiz-adv-x="1720" d="M98 717q0 155 58 291t158.5 233t243 153t304.5 56q215 0 389 -94.5t272.5 -262.5t98.5 -376t-98.5 -376t-272.5 -262.5t-389 -94.5q-162 0 -304.5 56t-243 153t-158.5 233t-58 291zM303 717q0 -238 159 -394.5t400 -156.5q238 0 396.5 157t158.5 394t-158.5 394 t-396.5 157q-241 0 -400 -156.5t-159 -394.5z" />
<glyph unicode="P" horiz-adv-x="1478" d="M215 0v1434h559q280 0 439 -133.5t159 -366.5t-159 -366.5t-439 -133.5h-354v-434h-205zM420 612h348q195 0 297 83.5t102 238.5t-102 238t-297 83h-348v-643z" />
<glyph unicode="Q" horiz-adv-x="1720" d="M98 717q0 155 58 291t158.5 233t243 153t304.5 56q215 0 389 -94.5t272.5 -262.5t98.5 -376q0 -265 -155 -458.5t-408 -252.5q135 -143 274 -143q151 0 262 123l97 -117q-142 -168 -361 -168q-135 0 -253 64.5t-269 220.5q-204 11 -366 108.5t-253.5 260.5t-91.5 362z M303 717q0 -116 42.5 -218.5t116 -175.5t177.5 -115t223 -42q238 0 396.5 157.5t158.5 393.5t-158.5 393.5t-396.5 157.5q-119 0 -223 -42t-177.5 -115t-116 -175.5t-42.5 -218.5z" />
<glyph unicode="R" horiz-adv-x="1488" d="M215 0v1434h559q280 0 439 -133.5t159 -366.5q0 -165 -82 -282t-233 -171l340 -481h-223l-310 440q-58 -4 -90 -4h-354v-436h-205zM420 610h348q195 0 297 84.5t102 239.5t-102 238t-297 83h-348v-645z" />
<glyph unicode="S" horiz-adv-x="1271" d="M84 164l76 160q81 -74 209.5 -120t263.5 -46q178 0 266 61t88 160q0 71 -48 118.5t-124.5 73.5t-169 47t-185 49.5t-169 69.5t-124.5 118t-48 185q0 85 33.5 158t99 130t172.5 89.5t244 32.5q128 0 250 -33t210 -94l-67 -164q-183 117 -393 117q-174 0 -261.5 -63.5 t-87.5 -163.5q0 -56 29.5 -97t80 -66.5t115.5 -45.5t137.5 -37t144.5 -36t137 -49.5t115.5 -71.5t80 -106t29.5 -149t-34 -156.5t-100.5 -129t-174.5 -89t-246 -32.5q-162 0 -312 50t-237 130z" />
<glyph unicode="T" horiz-adv-x="1202" d="M8 1255v179h1186v-179h-492v-1255h-202v1255h-492z" />
<glyph unicode="U" horiz-adv-x="1619" d="M203 618v816h205v-807q0 -461 403 -461q198 0 302 114t104 347v807h198v-816q0 -308 -159 -471t-447 -163q-287 0 -446.5 163t-159.5 471z" />
<glyph unicode="V" horiz-adv-x="1458" d="M-2 1434h221l516 -1178l520 1178h205l-629 -1434h-202z" />
<glyph unicode="W" horiz-adv-x="2306" d="M66 1434h210l388 -1166l403 1166h188l396 -1172l395 1172h195l-480 -1434h-215l-391 1145l-391 -1145h-219z" />
<glyph unicode="X" horiz-adv-x="1378" d="M27 0l538 735l-506 699h234l401 -551l398 551h223l-506 -693l543 -741h-236l-430 592l-424 -592h-235z" />
<glyph unicode="Y" horiz-adv-x="1325" d="M-8 1434h219l459 -756l460 756h203l-569 -938v-496h-203v500z" />
<glyph unicode="Z" horiz-adv-x="1345" d="M88 0v139l901 1116h-887v179h1158v-140l-898 -1116h924v-178h-1198z" />
<glyph unicode="[" horiz-adv-x="681" d="M215 -397v1917h428v-162h-231v-1594h231v-161h-428z" />
<glyph unicode="\" horiz-adv-x="720" d="M-78 1724h178l676 -1929h-178z" />
<glyph unicode="]" horiz-adv-x="681" d="M39 -236h231v1594h-231v162h428v-1917h-428v161z" />
<glyph unicode="^" horiz-adv-x="1193" d="M154 291l362 852h164l360 -852h-157l-285 690l-287 -690h-157z" />
<glyph unicode="_" horiz-adv-x="1024" d="M0 0h1024v-127h-1024v127z" />
<glyph unicode="`" horiz-adv-x="1228" d="M240 1509h249l279 -266h-184z" />
<glyph unicode="a" horiz-adv-x="1224" d="M102 307q0 68 23.5 123.5t73 100t136 69.5t204.5 25h311v39q0 126 -73.5 194t-217.5 68q-97 0 -189 -31.5t-155 -85.5l-82 147q85 67 201.5 103.5t247.5 36.5q226 0 345.5 -110.5t119.5 -330.5v-655h-187v143q-104 -155 -356 -155q-183 0 -292.5 88.5t-109.5 230.5z M297 315q0 -82 64 -129t176 -47q111 0 194 50t119 143v151h-303q-250 0 -250 -168z" />
<glyph unicode="b" horiz-adv-x="1396" d="M186 0v1520h197v-598q134 174 379 174q240 0 394.5 -153t154.5 -400t-154.5 -401t-394.5 -154q-122 0 -222 46.5t-165 137.5v-172h-189zM381 543q0 -171 103.5 -277t260.5 -106q159 0 263 106t104 277t-104 276t-263 105q-158 0 -261 -105t-103 -276z" />
<glyph unicode="c" horiz-adv-x="1169" d="M86 543q0 243 161 398t412 155q148 0 263.5 -59.5t179.5 -172.5l-150 -96q-103 156 -295 156q-162 0 -267 -105t-105 -276q0 -174 104.5 -278.5t267.5 -104.5q193 0 295 155l150 -94q-64 -113 -179.5 -173t-263.5 -60q-251 0 -412 156t-161 399z" />
<glyph unicode="d" horiz-adv-x="1396" d="M86 543q0 247 154.5 400t394.5 153q245 0 379 -174v598h196v-1520h-188v172q-65 -91 -165 -137.5t-222 -46.5q-240 0 -394.5 154t-154.5 401zM285 543q0 -171 103.5 -277t262.5 -106q158 0 261.5 106t103.5 277t-103.5 276t-261.5 105q-159 0 -262.5 -105t-103.5 -276z " />
<glyph unicode="e" d="M86 543q0 159 70.5 285.5t195 197t279.5 70.5q236 0 386 -155t150 -404q0 -24 -4 -60h-880q19 -143 126 -230t267 -87q194 0 313 131l109 -127q-150 -176 -428 -176q-261 0 -422.5 155t-161.5 400zM283 618h696q-15 138 -111 225t-237 87t-237 -87t-111 -225z" />
<glyph unicode="f" horiz-adv-x="722" d="M31 924v161h184v97q0 161 93.5 255.5t264.5 94.5q140 0 222 -64l-60 -149q-67 51 -151 51q-176 0 -176 -190v-95h315v-161h-311v-924h-197v924h-184z" />
<glyph unicode="g" horiz-adv-x="1413" d="M86 571q0 154 72.5 274t197.5 185.5t281 65.5q124 0 228.5 -45t172.5 -133v167h187v-938q0 -284 -141.5 -420.5t-421.5 -136.5q-153 0 -292.5 42t-226.5 120l95 152q76 -65 187 -103.5t230 -38.5q191 0 282 90t91 275v86q-69 -83 -170.5 -125.5t-220.5 -42.5 q-237 0 -394 147t-157 379zM285 571q0 -156 104.5 -255t269.5 -99q163 0 268 99t105 255q0 157 -104.5 255t-268.5 98q-165 0 -269.5 -98t-104.5 -255z" />
<glyph unicode="h" horiz-adv-x="1394" d="M186 0v1520h197v-588q62 79 160.5 121.5t222.5 42.5q206 0 328.5 -119.5t122.5 -351.5v-625h-197v602q0 158 -76 238t-217 80q-160 0 -252 -93.5t-92 -267.5v-559h-197z" />
<glyph unicode="i" horiz-adv-x="571" d="M152 1421q0 54 38 91.5t95 37.5t95 -36t38 -89q0 -56 -37.5 -93.5t-95.5 -37.5q-57 0 -95 36.5t-38 90.5zM186 0v1085h197v-1085h-197z" />
<glyph unicode="j" horiz-adv-x="581" d="M-188 -344l63 151q60 -51 160 -51q78 0 120 49t42 142v1138h196v-1134q0 -168 -90.5 -264.5t-255.5 -96.5q-154 0 -235 66zM162 1421q0 54 38 91.5t95 37.5t95 -36t38 -89q0 -56 -37.5 -93.5t-95.5 -37.5q-57 0 -95 36.5t-38 90.5z" />
<glyph unicode="k" horiz-adv-x="1261" d="M186 0v1520h197v-975l592 540h237l-456 -448l501 -637h-241l-408 506l-225 -209v-297h-197z" />
<glyph unicode="l" horiz-adv-x="571" d="M186 0v1520h197v-1520h-197z" />
<glyph unicode="m" horiz-adv-x="2164" d="M186 0v1085h189v-161q58 83 155 127.5t220 44.5q127 0 225 -51t151 -150q62 94 172 147.5t246 53.5q205 0 325 -119.5t120 -351.5v-625h-197v602q0 158 -73 238t-208 80q-151 0 -238 -93.5t-87 -267.5v-559h-197v602q0 158 -72.5 238t-207.5 80q-151 0 -238.5 -93.5 t-87.5 -267.5v-559h-197z" />
<glyph unicode="n" horiz-adv-x="1394" d="M186 0v1085h189v-163q60 84 161 129t230 45q206 0 328.5 -119.5t122.5 -351.5v-625h-197v602q0 158 -76 238t-217 80q-160 0 -252 -93.5t-92 -267.5v-559h-197z" />
<glyph unicode="o" horiz-adv-x="1300" d="M86 543q0 242 160 397.5t405 155.5t404 -155.5t159 -397.5q0 -160 -72.5 -287t-201 -197.5t-289.5 -70.5q-245 0 -405 156.5t-160 398.5zM285 543q0 -171 103.5 -277t262.5 -106t262 106t103 277t-103 276t-262 105t-262.5 -105t-103.5 -276z" />
<glyph unicode="p" horiz-adv-x="1396" d="M186 -397v1482h189v-172q65 90 165.5 136.5t221.5 46.5q240 0 394.5 -153t154.5 -400q0 -248 -154.5 -401.5t-394.5 -153.5q-117 0 -214.5 44.5t-164.5 131.5v-561h-197zM381 543q0 -171 103.5 -277t260.5 -106q159 0 263 106t104 277q0 170 -104 275.5t-263 105.5 q-157 0 -260.5 -105.5t-103.5 -275.5z" />
<glyph unicode="q" horiz-adv-x="1396" d="M86 543q0 247 154.5 400t394.5 153q121 0 221.5 -46.5t165.5 -136.5v172h188v-1482h-196v561q-67 -87 -164.5 -131.5t-214.5 -44.5q-240 0 -394.5 153.5t-154.5 401.5zM285 543q0 -171 103.5 -277t262.5 -106q158 0 261.5 106t103.5 277q0 169 -104 275t-261 106 q-159 0 -262.5 -105.5t-103.5 -275.5z" />
<glyph unicode="r" horiz-adv-x="839" d="M186 0v1085h189v-182q106 193 395 193v-191q-16 2 -45 2q-160 0 -251 -95t-91 -271v-541h-197z" />
<glyph unicode="s" horiz-adv-x="1026" d="M49 115l82 155q70 -50 173.5 -81t207.5 -31q258 0 258 147q0 49 -38 79.5t-98.5 44.5t-133.5 25t-146 29t-133.5 48t-98.5 90.5t-38 148.5q0 147 122.5 236.5t330.5 89.5q107 0 216 -27t179 -72l-84 -155q-134 86 -313 86q-125 0 -190.5 -41.5t-65.5 -108.5q0 -52 38 -84 t98.5 -47.5t134 -27t147 -30t134 -47.5t98.5 -88t38 -145q0 -148 -126 -234.5t-343 -86.5q-132 0 -256 36t-193 91z" />
<glyph unicode="t" horiz-adv-x="847" d="M31 924v161h184v238h197v-238h311v-161h-311v-588q0 -88 44 -135t126 -47q90 0 153 51l62 -142q-87 -75 -238 -75q-165 0 -254.5 88t-89.5 252v596h-184z" />
<glyph unicode="u" horiz-adv-x="1386" d="M176 461v624h197v-602q0 -158 76 -238.5t217 -80.5q156 0 245.5 94t89.5 266v561h197v-1085h-186v164q-60 -84 -156.5 -130t-212.5 -46q-217 0 -342 120t-125 353z" />
<glyph unicode="v" horiz-adv-x="1144" d="M-4 1085h205l372 -870l381 870h193l-475 -1085h-201z" />
<glyph unicode="w" horiz-adv-x="1841" d="M12 1085h187l315 -864l328 864h166l321 -868l324 868h176l-406 -1085h-188l-313 823l-318 -823h-188z" />
<glyph unicode="x" horiz-adv-x="1130" d="M29 0l428 555l-408 530h219l299 -391l297 391h215l-409 -530l432 -555h-223l-314 416l-317 -416h-219z" />
<glyph unicode="y" horiz-adv-x="1144" d="M-45 -309l84 147q83 -80 194 -80q72 0 120 38t87 130l35 76l-479 1083h205l379 -868l374 868h193l-526 -1194q-69 -165 -163 -233t-225 -68q-80 0 -154 26.5t-124 74.5z" />
<glyph unicode="z" horiz-adv-x="1067" d="M82 0v127l641 797h-629v161h881v-129l-641 -794h657v-162h-909z" />
<glyph unicode="{" horiz-adv-x="718" d="M117 479v164h71q93 0 93 102v472q0 150 78 226.5t231 76.5h90v-162h-51q-76 0 -114 -41t-38 -119v-448q0 -85 -26.5 -127.5t-85.5 -61.5q59 -19 85.5 -61t26.5 -127v-449q0 -78 38 -119t114 -41h51v-161h-90q-153 0 -231 76.5t-78 226.5v471q0 102 -93 102h-71z" />
<glyph unicode="|" horiz-adv-x="612" d="M215 -397v1917h182v-1917h-182z" />
<glyph unicode="}" horiz-adv-x="718" d="M39 -236h49q156 0 156 160v449q0 85 25.5 127t84.5 61q-59 19 -84.5 61t-25.5 128v448q0 160 -156 160h-49v162h90q154 0 232.5 -77t78.5 -226v-472q0 -102 90 -102h70v-164h-70q-90 0 -90 -102v-471q0 -149 -78.5 -226t-232.5 -77h-90v161z" />
<glyph unicode="~" horiz-adv-x="1191" d="M119 557q4 166 76.5 251t193.5 85q55 0 105.5 -20.5t88.5 -49.5t72 -58.5t70.5 -50t71.5 -20.5q67 0 105.5 50.5t41.5 136.5h129q-4 -167 -76.5 -252.5t-193.5 -85.5q-55 0 -105 20.5t-88 49.5t-72.5 58t-71 49.5t-71.5 20.5q-66 0 -105 -49.5t-42 -134.5h-129z" />
<glyph unicode="&#xa1;" horiz-adv-x="548" d="M141 963q0 56 38.5 94.5t96.5 38.5q57 0 94.5 -38.5t37.5 -94.5q0 -54 -37.5 -91.5t-94.5 -37.5q-58 0 -96.5 37.5t-38.5 91.5zM160 -315l37 948h155l39 -948h-231z" />
<glyph unicode="&#xa2;" horiz-adv-x="1169" d="M86 543q0 221 136 372t356 177v239h131v-237q131 -9 233 -68t160 -162l-150 -96q-87 133 -243 152v-756q157 19 243 151l150 -94q-58 -103 -160.5 -162.5t-232.5 -68.5v-236h-131v238q-219 26 -355.5 177.5t-136.5 373.5zM285 543q0 -151 80.5 -251t212.5 -124v747 q-132 -25 -212.5 -124.5t-80.5 -247.5z" />
<glyph unicode="&#xa3;" horiz-adv-x="1323" d="M61 0v178h224v471h-224v135h224v134q0 245 159 388.5t445 143.5q241 0 403 -102l-67 -170q-131 90 -355 90q-188 0 -285.5 -90t-97.5 -258v-136h545v-135h-545v-471h775v-178h-1201z" />
<glyph unicode="&#xa4;" horiz-adv-x="1433" d="M63 117l211 211q-112 144 -112 325q0 178 108 324l-207 207l113 121l215 -213q145 104 326 104q176 0 325 -102l213 211l115 -121l-207 -205q111 -146 111 -326t-115 -327l211 -209l-115 -121l-217 215q-148 -98 -321 -98q-179 0 -322 100l-219 -217zM324 653 q0 -156 115.5 -267.5t277.5 -111.5q163 0 281 112t118 267q0 156 -118 268.5t-281 112.5t-278 -112t-115 -269z" />
<glyph unicode="&#xa5;" horiz-adv-x="1447" d="M-8 1434h217l518 -725l520 725h209l-567 -795h368v-117h-432v-166h432v-116h-432v-240h-202v240h-433v116h433v166h-433v117h371z" />
<glyph unicode="&#xa6;" horiz-adv-x="612" d="M215 319h182v-716h-182v716zM215 803v717h182v-717h-182z" />
<glyph unicode="&#xa7;" horiz-adv-x="1024" d="M53 -86l64 149q66 -54 165 -88t201 -34q118 0 184 44.5t66 125.5q0 43 -22.5 75t-60.5 51.5t-87.5 34t-104.5 27.5t-109.5 28t-104 39t-87.5 56.5t-60.5 84.5t-22.5 120q0 87 41 155t112 111q-108 74 -108 219q0 152 125.5 243t343.5 91q99 0 207.5 -28t171.5 -75 l-64 -149q-134 94 -330 94q-136 0 -207 -44t-71 -126q0 -42 22.5 -73t60.5 -50t87.5 -34t104 -28t108.5 -29t103.5 -40.5t87.5 -58t60.5 -87t22.5 -122.5q0 -82 -40.5 -148.5t-110.5 -109.5q108 -77 108 -223q0 -149 -119.5 -240.5t-314.5 -91.5q-120 0 -238.5 37t-183.5 94 zM246 637q0 -38 17 -68t41.5 -48.5t68 -35.5t78 -26t92 -23t90.5 -24q67 21 107 68.5t40 113.5q0 38 -17 67.5t-40.5 47.5t-67 35t-77 26t-91 23t-90.5 24q-68 -21 -109.5 -68t-41.5 -112z" />
<glyph unicode="&#xa8;" horiz-adv-x="1228" d="M319 1382q0 45 31 76t74 31t73.5 -31t30.5 -76t-30.5 -74.5t-73.5 -29.5q-44 0 -74.5 29.5t-30.5 74.5zM700 1382q0 45 31 76t74 31t73.5 -31t30.5 -76t-30.5 -74.5t-73.5 -29.5q-44 0 -74.5 29.5t-30.5 74.5z" />
<glyph unicode="&#xa9;" horiz-adv-x="1642" d="M98 717q0 149 56 282.5t151.5 230.5t230.5 153.5t287 56.5t286 -55.5t229.5 -151t150.5 -228.5t55 -284t-56.5 -285.5t-152.5 -231.5t-231 -153.5t-285 -56.5t-284 56.5t-230 153.5t-151.5 230.5t-55.5 282.5zM195 717q0 -174 81 -318.5t224.5 -228.5t318.5 -84t319.5 84 t227 229.5t82.5 321.5t-80.5 319.5t-224 225.5t-320.5 82t-321.5 -84t-225.5 -228.5t-81 -318.5zM410 717q0 186 121.5 304t310.5 118q107 0 194 -44.5t138 -121.5l-117 -84q-74 110 -217 110q-119 0 -197 -77.5t-78 -204.5t78 -205t197 -78q143 0 217 111l117 -82 q-50 -78 -137.5 -123t-194.5 -45q-189 0 -310.5 118t-121.5 304z" />
<glyph unicode="&#xaa;" horiz-adv-x="827" d="M76 1061q0 87 67.5 137.5t210.5 50.5h199v19q0 79 -44 116t-134 37q-131 0 -225 -71l-54 92q53 41 133 64.5t160 23.5q305 0 305 -266v-387h-131v81q-29 -40 -88.5 -65t-140.5 -25q-124 0 -191 53.5t-67 139.5zM211 1067q0 -47 39.5 -73.5t111.5 -26.5q139 0 191 100v94 h-180q-162 0 -162 -94z" />
<glyph unicode="&#xab;" horiz-adv-x="1032" d="M94 543l295 393h180l-288 -393l288 -391h-180zM487 543l295 393h181l-289 -393l289 -391h-181z" />
<glyph unicode="&#xac;" horiz-adv-x="1191" d="M137 637v162h918v-527h-174v365h-744z" />
<glyph unicode="&#xad;" horiz-adv-x="784" d="M117 477v170h551v-170h-551z" />
<glyph unicode="&#xae;" horiz-adv-x="1642" d="M98 717q0 149 56 282.5t151.5 230.5t230.5 153.5t287 56.5t286 -55.5t229.5 -151t150.5 -228.5t55 -284t-56.5 -285.5t-152.5 -231.5t-231 -153.5t-285 -56.5t-284 56.5t-230 153.5t-151.5 230.5t-55.5 282.5zM195 717q0 -174 81 -318.5t224.5 -228.5t318.5 -84t319.5 84 t227 229.5t82.5 321.5t-80.5 319.5t-224 225.5t-320.5 82t-321.5 -84t-225.5 -228.5t-81 -318.5zM530 307v819h328q153 0 242.5 -75t89.5 -203q0 -93 -45 -157.5t-127 -94.5l186 -289h-141l-170 262h-35h-188v-262h-140zM668 684h180q98 0 152.5 43t54.5 121t-54 120 t-153 42h-180v-326z" />
<glyph unicode="&#xaf;" horiz-adv-x="1228" d="M281 1315v123h667v-123h-667z" />
<glyph unicode="&#xb0;" horiz-adv-x="858" d="M92 1114q0 138 97.5 235t238.5 97t239.5 -97t98.5 -235q0 -139 -98.5 -236.5t-239.5 -97.5t-238.5 97t-97.5 237zM207 1114q0 -96 63.5 -159.5t157.5 -63.5t157.5 64t63.5 159t-63.5 159t-157.5 64t-157.5 -63.5t-63.5 -159.5z" />
<glyph unicode="&#xb1;" horiz-adv-x="1191" d="M137 0v162h918v-162h-918zM137 735v162h373v356h172v-356h373v-162h-373v-356h-172v356h-373z" />
<glyph unicode="&#xb2;" horiz-adv-x="880" d="M57 1393q109 137 344 137q161 0 249.5 -67.5t88.5 -174.5q0 -65 -32.5 -122.5t-124.5 -139.5l-271 -238h467v-118h-684v92l379 332q71 64 97 104t26 80q0 57 -51.5 93t-153.5 36q-153 0 -233 -92z" />
<glyph unicode="&#xb3;" horiz-adv-x="880" d="M55 764l58 108q51 -41 130 -65.5t169 -24.5q112 0 168.5 37t56.5 103q0 65 -54 101t-163 36h-96v96l229 246h-471v119h657v-93l-241 -260q136 -10 209 -76.5t73 -168.5q0 -113 -95.5 -188t-272.5 -75q-110 0 -208 29t-149 76z" />
<glyph unicode="&#xb4;" horiz-adv-x="1228" d="M461 1243l278 266h250l-344 -266h-184z" />
<glyph unicode="&#xb5;" horiz-adv-x="1396" d="M186 -397v1482h197v-602q0 -157 76.5 -238t216.5 -81q156 0 246 94t90 266v561h196v-1085h-186v168q-55 -92 -146.5 -136t-195.5 -44q-196 0 -297 125v-510h-197z" />
<glyph unicode="&#xb6;" horiz-adv-x="1327" d="M39 1153q0 168 124.5 267.5t330.5 99.5h618v-1725h-164v1571h-319v-1571h-164v991q-190 2 -308 101.5t-118 265.5z" />
<glyph unicode="&#xb7;" horiz-adv-x="546" d="M135 563q0 61 40 100t99 39q58 0 97 -39t39 -100q0 -62 -39 -101.5t-97 -39.5q-59 0 -99 39.5t-40 101.5z" />
<glyph unicode="&#xb8;" horiz-adv-x="1228" d="M381 -414l43 101q60 -35 139 -35q115 0 115 82q0 37 -29 58.5t-88 21.5h-55l51 200h113l-31 -116q87 -9 132.5 -54.5t45.5 -115.5q0 -86 -69 -136.5t-185 -50.5q-108 0 -182 45z" />
<glyph unicode="&#xb9;" horiz-adv-x="880" d="M166 670v118h237v613h-221v119h367v-732h209v-118h-592z" />
<glyph unicode="&#xba;" horiz-adv-x="856" d="M66 1200q0 145 102 237.5t260 92.5t260.5 -92.5t102.5 -237.5t-102.5 -238.5t-260.5 -93.5t-260 93.5t-102 238.5zM203 1200q0 -94 62.5 -153.5t162.5 -59.5t162.5 59.5t62.5 153.5q0 95 -62.5 154t-162.5 59t-162.5 -59t-62.5 -154z" />
<glyph unicode="&#xbb;" horiz-adv-x="1032" d="M70 152l288 391l-288 393h180l295 -393l-295 -391h-180zM463 152l289 391l-289 393h180l295 -393l-295 -391h-180z" />
<glyph unicode="&#xbc;" horiz-adv-x="2117" d="M166 584v118h237v613h-221v119h367v-732h209v-118h-592zM492 0l978 1434h156l-979 -1434h-155zM1282 203v96l412 551h159l-397 -528h311v170h129v-170h166v-119h-166v-203h-141v203h-473z" />
<glyph unicode="&#xbd;" horiz-adv-x="2117" d="M166 584v118h237v613h-221v119h367v-732h209v-118h-592zM492 0l978 1434h156l-979 -1434h-155zM1294 723q109 137 344 137q161 0 249.5 -67.5t88.5 -174.5q0 -65 -32.5 -122.5t-124.5 -139.5l-271 -237h467v-119h-684v92l379 332q71 64 97 104t26 80q0 57 -51.5 93 t-153.5 36q-153 0 -233 -92z" />
<glyph unicode="&#xbe;" horiz-adv-x="2117" d="M55 678l58 108q51 -41 130 -65.5t169 -24.5q112 0 168.5 37t56.5 103q0 65 -54 101t-163 36h-96v96l229 246h-471v119h657v-93l-241 -260q136 -10 209 -76.5t73 -168.5q0 -113 -95.5 -188t-272.5 -75q-110 0 -208 29t-149 76zM492 0l978 1434h156l-979 -1434h-155z M1282 203v96l412 551h159l-397 -528h311v170h129v-170h166v-119h-166v-203h-141v203h-473z" />
<glyph unicode="&#xbf;" horiz-adv-x="1173" d="M141 18q0 68 20 125.5t51.5 98t70 77t77 70t70 68t52 79.5t20.5 97h205q0 -63 -20 -117.5t-51.5 -94.5t-70.5 -76t-77.5 -69.5t-70 -66.5t-51.5 -75t-20 -89q0 -87 80 -145t213 -58q239 0 367 162l149 -106q-179 -230 -528 -230q-221 0 -353.5 94.5t-132.5 255.5z M471 963q0 56 37.5 94.5t95.5 38.5q57 0 95 -38.5t38 -94.5q0 -54 -38 -91.5t-95 -37.5q-58 0 -95.5 37t-37.5 92z" />
<glyph unicode="&#xc0;" horiz-adv-x="1499" d="M-2 0l649 1434h203l651 -1434h-215l-158 358h-761l-158 -358h-211zM375 1817h250l278 -267h-184zM438 522h619l-309 703z" />
<glyph unicode="&#xc1;" horiz-adv-x="1499" d="M-2 0l649 1434h203l651 -1434h-215l-158 358h-761l-158 -358h-211zM438 522h619l-309 703zM596 1550l278 267h250l-344 -267h-184z" />
<glyph unicode="&#xc2;" horiz-adv-x="1499" d="M-2 0l649 1434h203l651 -1434h-215l-158 358h-761l-158 -358h-211zM383 1550l272 267h189l272 -267h-178l-188 158l-189 -158h-178zM438 522h619l-309 703z" />
<glyph unicode="&#xc3;" horiz-adv-x="1499" d="M-2 0l649 1434h203l651 -1434h-215l-158 358h-761l-158 -358h-211zM406 1567q3 114 57 182t143 68q44 0 87 -22t70.5 -48t59 -48t56.5 -22q44 0 72.5 33t31.5 90h111q-3 -110 -57.5 -177t-143.5 -67q-44 0 -87 21.5t-70 47.5t-58.5 47.5t-56.5 21.5q-45 0 -73.5 -34 t-31.5 -93h-110zM438 522h619l-309 703z" />
<glyph unicode="&#xc4;" horiz-adv-x="1499" d="M-2 0l649 1434h203l651 -1434h-215l-158 358h-761l-158 -358h-211zM438 522h619l-309 703zM455 1690q0 45 30.5 75.5t73.5 30.5t74 -30.5t31 -75.5t-31 -75t-74 -30t-73.5 30t-30.5 75zM836 1690q0 45 30.5 75.5t73.5 30.5t73.5 -30.5t30.5 -75.5t-30.5 -75t-73.5 -30 t-73.5 30t-30.5 75z" />
<glyph unicode="&#xc5;" horiz-adv-x="1499" d="M-2 0l649 1434h203l651 -1434h-215l-158 358h-761l-158 -358h-211zM438 522h619l-309 703zM522 1786q0 93 65.5 159t160.5 66q96 0 161.5 -66t65.5 -159t-65.5 -157t-161.5 -64q-95 0 -160.5 64.5t-65.5 156.5zM614 1786q0 -57 38 -96t96 -39q59 0 97 38.5t38 96.5 q0 59 -38.5 98t-96.5 39q-57 0 -95.5 -38.5t-38.5 -98.5z" />
<glyph unicode="&#xc6;" horiz-adv-x="2144" d="M-2 0l854 1434h1149v-179h-809v-440h719v-174h-719v-463h838v-178h-1041v358h-569l-211 -358h-211zM516 522h473v733h-41z" />
<glyph unicode="&#xc7;" horiz-adv-x="1480" d="M98 717q0 157 58 293t158.5 232.5t241.5 152t302 55.5q167 0 307.5 -57t237.5 -166l-133 -129q-161 170 -404 170q-120 0 -224.5 -42t-179 -114.5t-117 -175t-42.5 -219.5t42.5 -219.5t117 -175t179 -114.5t224.5 -42q241 0 404 172l133 -129q-96 -107 -233 -164.5 t-300 -60.5l-22 -86q87 -9 132.5 -54.5t45.5 -115.5q0 -86 -69 -136.5t-185 -50.5q-108 0 -182 45l43 101q60 -35 139 -35q115 0 115 82q0 37 -29 58.5t-88 21.5h-55l45 176q-143 15 -265.5 76t-210 156t-137 223t-49.5 272z" />
<glyph unicode="&#xc8;" horiz-adv-x="1372" d="M215 0v1434h1012v-179h-807v-440h719v-174h-719v-463h835v-178h-1040zM348 1817h250l279 -267h-185z" />
<glyph unicode="&#xc9;" horiz-adv-x="1372" d="M215 0v1434h1012v-179h-807v-440h719v-174h-719v-463h835v-178h-1040zM569 1550l279 267h250l-344 -267h-185z" />
<glyph unicode="&#xca;" horiz-adv-x="1372" d="M215 0v1434h1012v-179h-807v-440h719v-174h-719v-463h835v-178h-1040zM356 1550l273 267h188l273 -267h-179l-188 158l-188 -158h-179z" />
<glyph unicode="&#xcb;" horiz-adv-x="1372" d="M215 0v1434h1012v-179h-807v-440h719v-174h-719v-463h835v-178h-1040zM428 1690q0 45 30.5 75.5t73.5 30.5t74 -30.5t31 -75.5t-31 -75t-74 -30t-73.5 30t-30.5 75zM809 1690q0 45 30.5 75.5t73.5 30.5t74 -30.5t31 -75.5t-31 -75t-74 -30t-73.5 30t-30.5 75z" />
<glyph unicode="&#xcc;" horiz-adv-x="634" d="M-57 1817h250l278 -267h-184zM215 0v1434h205v-1434h-205z" />
<glyph unicode="&#xcd;" horiz-adv-x="634" d="M164 1550l278 267h250l-344 -267h-184zM215 0v1434h205v-1434h-205z" />
<glyph unicode="&#xce;" horiz-adv-x="634" d="M-49 1550l272 267h189l272 -267h-178l-189 158l-188 -158h-178zM215 0v1434h205v-1434h-205z" />
<glyph unicode="&#xcf;" horiz-adv-x="634" d="M23 1690q0 45 30.5 75.5t73.5 30.5t73.5 -30.5t30.5 -75.5t-30.5 -75t-73.5 -30t-73.5 30t-30.5 75zM215 0v1434h205v-1434h-205zM403 1690q0 45 31 75.5t74 30.5t73.5 -30.5t30.5 -75.5t-30.5 -75t-73.5 -30t-74 30t-31 75z" />
<glyph unicode="&#xd0;" horiz-adv-x="1708" d="M23 649v162h208v623h605q228 0 404 -90t273 -253t97 -374t-97 -374t-273 -253t-404 -90h-605v649h-208zM436 178h387q264 0 423 148t159 391q0 242 -159 390t-423 148h-387v-444h406v-162h-406v-471z" />
<glyph unicode="&#xd1;" horiz-adv-x="1662" d="M215 0v1434h168l860 -1069v1069h205v-1434h-168l-860 1069v-1069h-205zM485 1567q3 114 57.5 182t143.5 68q44 0 87 -22t70 -48t58.5 -48t56.5 -22q45 0 73.5 33t31.5 90h111q-3 -110 -57.5 -177t-143.5 -67q-44 0 -87 21.5t-70.5 47.5t-59 47.5t-56.5 21.5 q-45 0 -73 -34t-31 -93h-111z" />
<glyph unicode="&#xd2;" horiz-adv-x="1720" d="M98 717q0 155 58 291t158.5 233t243 153t304.5 56q215 0 389 -94.5t272.5 -262.5t98.5 -376t-98.5 -376t-272.5 -262.5t-389 -94.5q-162 0 -304.5 56t-243 153t-158.5 233t-58 291zM303 717q0 -238 159 -394.5t400 -156.5q238 0 396.5 157t158.5 394t-158.5 394 t-396.5 157q-241 0 -400 -156.5t-159 -394.5zM487 1817h250l279 -267h-185z" />
<glyph unicode="&#xd3;" horiz-adv-x="1720" d="M98 717q0 155 58 291t158.5 233t243 153t304.5 56q215 0 389 -94.5t272.5 -262.5t98.5 -376t-98.5 -376t-272.5 -262.5t-389 -94.5q-162 0 -304.5 56t-243 153t-158.5 233t-58 291zM303 717q0 -238 159 -394.5t400 -156.5q238 0 396.5 157t158.5 394t-158.5 394 t-396.5 157q-241 0 -400 -156.5t-159 -394.5zM709 1550l278 267h250l-344 -267h-184z" />
<glyph unicode="&#xd4;" horiz-adv-x="1720" d="M98 717q0 155 58 291t158.5 233t243 153t304.5 56q215 0 389 -94.5t272.5 -262.5t98.5 -376t-98.5 -376t-272.5 -262.5t-389 -94.5q-162 0 -304.5 56t-243 153t-158.5 233t-58 291zM303 717q0 -238 159 -394.5t400 -156.5q238 0 396.5 157t158.5 394t-158.5 394 t-396.5 157q-241 0 -400 -156.5t-159 -394.5zM496 1550l272 267h188l273 -267h-178l-189 158l-188 -158h-178z" />
<glyph unicode="&#xd5;" horiz-adv-x="1720" d="M98 717q0 155 58 291t158.5 233t243 153t304.5 56q215 0 389 -94.5t272.5 -262.5t98.5 -376t-98.5 -376t-272.5 -262.5t-389 -94.5q-162 0 -304.5 56t-243 153t-158.5 233t-58 291zM303 717q0 -238 159 -394.5t400 -156.5q238 0 396.5 157t158.5 394t-158.5 394 t-396.5 157q-241 0 -400 -156.5t-159 -394.5zM518 1567q3 114 57.5 182t143.5 68q44 0 87 -22t70 -48t58.5 -48t56.5 -22q45 0 73.5 33t31.5 90h110q-3 -110 -57 -177t-143 -67q-44 0 -87 21.5t-70.5 47.5t-59 47.5t-56.5 21.5q-45 0 -73 -34t-31 -93h-111z" />
<glyph unicode="&#xd6;" horiz-adv-x="1720" d="M98 717q0 155 58 291t158.5 233t243 153t304.5 56q215 0 389 -94.5t272.5 -262.5t98.5 -376t-98.5 -376t-272.5 -262.5t-389 -94.5q-162 0 -304.5 56t-243 153t-158.5 233t-58 291zM303 717q0 -238 159 -394.5t400 -156.5q238 0 396.5 157t158.5 394t-158.5 394 t-396.5 157q-241 0 -400 -156.5t-159 -394.5zM567 1690q0 45 31 75.5t74 30.5t73.5 -30.5t30.5 -75.5t-30.5 -75t-73.5 -30t-74 30t-31 75zM948 1690q0 45 31 75.5t74 30.5t73.5 -30.5t30.5 -75.5t-30.5 -75t-73.5 -30t-74 30t-31 75z" />
<glyph unicode="&#xd7;" horiz-adv-x="1191" d="M219 451l264 266l-264 266l109 119l268 -271l268 271l111 -119l-264 -266l264 -266l-111 -119l-268 270l-268 -270z" />
<glyph unicode="&#xd8;" horiz-adv-x="1720" d="M98 717q0 155 58 291t158.5 233t243 153t304.5 56q206 0 381 -90l156 217h160l-207 -289q128 -100 199 -247.5t71 -323.5q0 -208 -98.5 -376t-272.5 -262.5t-389 -94.5q-206 0 -381 90l-155 -217h-160l205 286q-129 102 -201 250.5t-72 323.5zM303 717 q0 -127 47.5 -234.5t134.5 -181.5l645 903q-122 64 -268 64q-241 0 -400 -156.5t-159 -394.5zM592 229q123 -63 270 -63q238 0 396.5 157t158.5 394q0 126 -46.5 232t-131.5 181z" />
<glyph unicode="&#xd9;" horiz-adv-x="1619" d="M203 618v816h205v-807q0 -461 403 -461q198 0 302 114t104 347v807h198v-816q0 -308 -159 -471t-447 -163q-287 0 -446.5 163t-159.5 471zM436 1817h250l279 -267h-185z" />
<glyph unicode="&#xda;" horiz-adv-x="1619" d="M203 618v816h205v-807q0 -461 403 -461q198 0 302 114t104 347v807h198v-816q0 -308 -159 -471t-447 -163q-287 0 -446.5 163t-159.5 471zM657 1550l279 267h250l-344 -267h-185z" />
<glyph unicode="&#xdb;" horiz-adv-x="1619" d="M203 618v816h205v-807q0 -461 403 -461q198 0 302 114t104 347v807h198v-816q0 -308 -159 -471t-447 -163q-287 0 -446.5 163t-159.5 471zM444 1550l273 267h188l273 -267h-179l-188 158l-188 -158h-179z" />
<glyph unicode="&#xdc;" horiz-adv-x="1619" d="M203 618v816h205v-807q0 -461 403 -461q198 0 302 114t104 347v807h198v-816q0 -308 -159 -471t-447 -163q-287 0 -446.5 163t-159.5 471zM516 1690q0 45 31 75.5t74 30.5t73.5 -30.5t30.5 -75.5t-30.5 -75t-73.5 -30t-74 30t-31 75zM897 1690q0 45 30.5 75.5t73.5 30.5 t74 -30.5t31 -75.5t-31 -75t-74 -30t-73.5 30t-30.5 75z" />
<glyph unicode="&#xdd;" horiz-adv-x="1325" d="M-8 1434h219l459 -756l460 756h203l-569 -938v-496h-203v500zM510 1550l278 267h250l-344 -267h-184z" />
<glyph unicode="&#xde;" horiz-adv-x="1478" d="M215 0v1434h205v-177h354q279 0 438.5 -133.5t159.5 -367.5q0 -233 -159 -366.5t-439 -133.5h-354v-256h-205zM420 432h348q195 0 297 84.5t102 239.5t-102 239t-297 84h-348v-647z" />
<glyph unicode="&#xdf;" horiz-adv-x="1384" d="M186 0v1012q0 126 38.5 226t108 163.5t162.5 97t205 33.5q217 0 346.5 -115t129.5 -291q0 -110 -51.5 -194t-135.5 -135q140 -37 223.5 -136t83.5 -247q0 -197 -137 -311.5t-356 -114.5q-148 0 -236 32l31 166q79 -26 197 -26q140 0 222.5 67.5t82.5 190.5t-89 190.5 t-239 67.5h-117v166q153 1 241.5 76t88.5 200q0 111 -75.5 176.5t-209.5 65.5q-150 0 -233.5 -85t-83.5 -247v-1028h-197z" />
<glyph unicode="&#xe0;" horiz-adv-x="1224" d="M102 307q0 68 23.5 123.5t73 100t136 69.5t204.5 25h311v39q0 126 -73.5 194t-217.5 68q-97 0 -189 -31.5t-155 -85.5l-82 147q85 67 201.5 103.5t247.5 36.5q226 0 345.5 -110.5t119.5 -330.5v-655h-187v143q-104 -155 -356 -155q-183 0 -292.5 88.5t-109.5 230.5z M221 1509h250l279 -266h-185zM297 315q0 -82 64 -129t176 -47q111 0 194 50t119 143v151h-303q-250 0 -250 -168z" />
<glyph unicode="&#xe1;" horiz-adv-x="1224" d="M102 307q0 68 23.5 123.5t73 100t136 69.5t204.5 25h311v39q0 126 -73.5 194t-217.5 68q-97 0 -189 -31.5t-155 -85.5l-82 147q85 67 201.5 103.5t247.5 36.5q226 0 345.5 -110.5t119.5 -330.5v-655h-187v143q-104 -155 -356 -155q-183 0 -292.5 88.5t-109.5 230.5z M297 315q0 -82 64 -129t176 -47q111 0 194 50t119 143v151h-303q-250 0 -250 -168zM442 1243l279 266h250l-344 -266h-185z" />
<glyph unicode="&#xe2;" horiz-adv-x="1224" d="M102 307q0 68 23.5 123.5t73 100t136 69.5t204.5 25h311v39q0 126 -73.5 194t-217.5 68q-97 0 -189 -31.5t-155 -85.5l-82 147q85 67 201.5 103.5t247.5 36.5q226 0 345.5 -110.5t119.5 -330.5v-655h-187v143q-104 -155 -356 -155q-183 0 -292.5 88.5t-109.5 230.5z M229 1243l273 266h188l273 -266h-179l-188 158l-188 -158h-179zM297 315q0 -82 64 -129t176 -47q111 0 194 50t119 143v151h-303q-250 0 -250 -168z" />
<glyph unicode="&#xe3;" horiz-adv-x="1224" d="M102 307q0 68 23.5 123.5t73 100t136 69.5t204.5 25h311v39q0 126 -73.5 194t-217.5 68q-97 0 -189 -31.5t-155 -85.5l-82 147q85 67 201.5 103.5t247.5 36.5q226 0 345.5 -110.5t119.5 -330.5v-655h-187v143q-104 -155 -356 -155q-183 0 -292.5 88.5t-109.5 230.5z M252 1260q3 114 57.5 181.5t143.5 67.5q36 0 70.5 -14.5t60.5 -35t49.5 -40.5t47 -34.5t44.5 -14.5q44 0 72.5 33t31.5 90h111q-3 -110 -57.5 -177t-143.5 -67q-44 0 -87 21.5t-70 47t-58.5 47t-56.5 21.5q-45 0 -73.5 -33.5t-31.5 -92.5h-110zM297 315q0 -82 64 -129 t176 -47q111 0 194 50t119 143v151h-303q-250 0 -250 -168z" />
<glyph unicode="&#xe4;" horiz-adv-x="1224" d="M102 307q0 68 23.5 123.5t73 100t136 69.5t204.5 25h311v39q0 126 -73.5 194t-217.5 68q-97 0 -189 -31.5t-155 -85.5l-82 147q85 67 201.5 103.5t247.5 36.5q226 0 345.5 -110.5t119.5 -330.5v-655h-187v143q-104 -155 -356 -155q-183 0 -292.5 88.5t-109.5 230.5z M297 315q0 -82 64 -129t176 -47q111 0 194 50t119 143v151h-303q-250 0 -250 -168zM301 1382q0 45 31 76t74 31t73.5 -31t30.5 -76t-30.5 -74.5t-73.5 -29.5q-44 0 -74.5 29.5t-30.5 74.5zM682 1382q0 45 30.5 76t73.5 31t74 -31t31 -76t-30.5 -74.5t-74.5 -29.5 q-43 0 -73.5 29.5t-30.5 74.5z" />
<glyph unicode="&#xe5;" horiz-adv-x="1224" d="M102 307q0 68 23.5 123.5t73 100t136 69.5t204.5 25h311v39q0 126 -73.5 194t-217.5 68q-97 0 -189 -31.5t-155 -85.5l-82 147q85 67 201.5 103.5t247.5 36.5q226 0 345.5 -110.5t119.5 -330.5v-655h-187v143q-104 -155 -356 -155q-183 0 -292.5 88.5t-109.5 230.5z M297 315q0 -82 64 -129t176 -47q111 0 194 50t119 143v151h-303q-250 0 -250 -168zM369 1438q0 93 65 159t160 66q96 0 161.5 -66t65.5 -159t-65.5 -157t-161.5 -64q-95 0 -160 64t-65 157zM461 1438q0 -58 37.5 -96.5t95.5 -38.5q59 0 97 38.5t38 96.5q0 59 -38.5 98 t-96.5 39q-57 0 -95 -38.5t-38 -98.5z" />
<glyph unicode="&#xe6;" horiz-adv-x="2025" d="M102 315q0 64 23.5 117.5t73 97.5t136.5 68.5t204 24.5h311v41q0 126 -73 194t-216 68q-98 0 -190.5 -31.5t-155.5 -85.5l-82 147q84 67 201.5 103.5t245.5 36.5q300 0 403 -193q72 91 180 142t236 51q234 0 387 -155t153 -392q0 -41 -6 -68h-884q17 -146 123.5 -233.5 t269.5 -87.5q191 0 313 131l111 -127q-150 -176 -430 -176q-152 0 -275 54.5t-203 164.5q-63 -115 -178.5 -167t-255.5 -52q-196 0 -309 89.5t-113 237.5zM297 319q0 -86 64.5 -133t179.5 -47q143 0 226 74.5t83 198.5v69h-303q-250 0 -250 -162zM1051 623h694 q-17 143 -116.5 225t-231.5 82q-131 0 -229.5 -81.5t-116.5 -225.5z" />
<glyph unicode="&#xe7;" horiz-adv-x="1169" d="M86 543q0 243 161 398t412 155q148 0 263.5 -59.5t179.5 -172.5l-150 -96q-103 156 -295 156q-162 0 -267 -105t-105 -276q0 -174 104.5 -278.5t267.5 -104.5q193 0 295 155l150 -94q-64 -113 -178 -173t-260 -60l-25 -90q87 -9 132.5 -54.5t45.5 -115.5 q0 -86 -69 -136.5t-185 -50.5q-108 0 -182 45l43 101q60 -35 139 -35q115 0 115 82q0 37 -29 58.5t-88 21.5h-55l47 182q-209 34 -338 183t-129 364z" />
<glyph unicode="&#xe8;" d="M86 543q0 159 70.5 285.5t195 197t279.5 70.5q236 0 386 -155t150 -404q0 -24 -4 -60h-880q19 -143 126 -230t267 -87q194 0 313 131l109 -127q-150 -176 -428 -176q-261 0 -422.5 155t-161.5 400zM254 1509h250l278 -266h-184zM283 618h696q-15 138 -111 225t-237 87 t-237 -87t-111 -225z" />
<glyph unicode="&#xe9;" d="M86 543q0 159 70.5 285.5t195 197t279.5 70.5q236 0 386 -155t150 -404q0 -24 -4 -60h-880q19 -143 126 -230t267 -87q194 0 313 131l109 -127q-150 -176 -428 -176q-261 0 -422.5 155t-161.5 400zM283 618h696q-15 138 -111 225t-237 87t-237 -87t-111 -225zM475 1243 l279 266h250l-345 -266h-184z" />
<glyph unicode="&#xea;" d="M86 543q0 159 70.5 285.5t195 197t279.5 70.5q236 0 386 -155t150 -404q0 -24 -4 -60h-880q19 -143 126 -230t267 -87q194 0 313 131l109 -127q-150 -176 -428 -176q-261 0 -422.5 155t-161.5 400zM262 1243l273 266h188l272 -266h-178l-188 158l-189 -158h-178zM283 618 h696q-15 138 -111 225t-237 87t-237 -87t-111 -225z" />
<glyph unicode="&#xeb;" d="M86 543q0 159 70.5 285.5t195 197t279.5 70.5q236 0 386 -155t150 -404q0 -24 -4 -60h-880q19 -143 126 -230t267 -87q194 0 313 131l109 -127q-150 -176 -428 -176q-261 0 -422.5 155t-161.5 400zM283 618h696q-15 138 -111 225t-237 87t-237 -87t-111 -225zM334 1382 q0 45 30.5 76t73.5 31t74 -31t31 -76t-30.5 -74.5t-74.5 -29.5q-43 0 -73.5 29.5t-30.5 74.5zM715 1382q0 45 30.5 76t73.5 31t74 -31t31 -76t-30.5 -74.5t-74.5 -29.5q-43 0 -73.5 29.5t-30.5 74.5z" />
<glyph unicode="&#xec;" horiz-adv-x="571" d="M-90 1509h250l278 -266h-184zM186 0v1085h197v-1085h-197z" />
<glyph unicode="&#xed;" horiz-adv-x="571" d="M131 1243l279 266h249l-344 -266h-184zM186 0v1085h197v-1085h-197z" />
<glyph unicode="&#xee;" horiz-adv-x="571" d="M-31 1243l224 266h184l223 -266h-168l-147 152l-148 -152h-168zM186 0v1085h197v-1085h-197z" />
<glyph unicode="&#xef;" horiz-adv-x="571" d="M37 1382q0 45 29 75t73 30q43 0 72 -30t29 -75q0 -44 -29 -73t-72 -29q-44 0 -73 29.5t-29 72.5zM186 0v1085h197v-1085h-197zM330 1382q0 44 28.5 74.5t71.5 30.5q44 0 73 -29.5t29 -75.5q0 -44 -29 -73t-73 -29q-43 0 -71.5 29.5t-28.5 72.5z" />
<glyph unicode="&#xf0;" horiz-adv-x="1310" d="M86 442q0 206 147 331.5t375 125.5q138 0 246.5 -57t169.5 -162q2 25 2 70q0 304 -164 452l-547 -219l-53 129l445 180q-92 29 -193 29q-161 0 -297 -47l-33 168q147 45 330 45q240 0 408 -109l182 74l53 -131l-115 -45q183 -205 183 -569q0 -336 -164 -529.5 t-459 -193.5q-146 0 -262.5 55t-185 160.5t-68.5 242.5zM285 442q0 -132 91.5 -212t239.5 -80q161 0 257 86t96 206q0 125 -96 208t-244 83q-160 0 -252 -79.5t-92 -211.5z" />
<glyph unicode="&#xf1;" horiz-adv-x="1394" d="M186 0v1085h189v-163q60 84 161 129t230 45q206 0 328.5 -119.5t122.5 -351.5v-625h-197v602q0 158 -76 238t-217 80q-160 0 -252 -93.5t-92 -267.5v-559h-197zM358 1260q3 114 57.5 181.5t143.5 67.5q36 0 70.5 -14.5t60.5 -35t49.5 -40.5t47 -34.5t44.5 -14.5 q45 0 73.5 33t31.5 90h111q-3 -110 -57.5 -177t-143.5 -67q-44 0 -87 21.5t-70.5 47t-59 47t-56.5 21.5q-45 0 -73 -33.5t-31 -92.5h-111z" />
<glyph unicode="&#xf2;" horiz-adv-x="1300" d="M86 543q0 242 160 397.5t405 155.5t404 -155.5t159 -397.5q0 -160 -72.5 -287t-201 -197.5t-289.5 -70.5q-245 0 -405 156.5t-160 398.5zM274 1509h250l279 -266h-185zM285 543q0 -171 103.5 -277t262.5 -106t262 106t103 277t-103 276t-262 105t-262.5 -105t-103.5 -276 z" />
<glyph unicode="&#xf3;" horiz-adv-x="1300" d="M86 543q0 242 160 397.5t405 155.5t404 -155.5t159 -397.5q0 -160 -72.5 -287t-201 -197.5t-289.5 -70.5q-245 0 -405 156.5t-160 398.5zM285 543q0 -171 103.5 -277t262.5 -106t262 106t103 277t-103 276t-262 105t-262.5 -105t-103.5 -276zM496 1243l278 266h250 l-344 -266h-184z" />
<glyph unicode="&#xf4;" horiz-adv-x="1300" d="M86 543q0 242 160 397.5t405 155.5t404 -155.5t159 -397.5q0 -160 -72.5 -287t-201 -197.5t-289.5 -70.5q-245 0 -405 156.5t-160 398.5zM283 1243l272 266h188l273 -266h-178l-189 158l-188 -158h-178zM285 543q0 -171 103.5 -277t262.5 -106t262 106t103 277t-103 276 t-262 105t-262.5 -105t-103.5 -276z" />
<glyph unicode="&#xf5;" horiz-adv-x="1300" d="M86 543q0 242 160 397.5t405 155.5t404 -155.5t159 -397.5q0 -160 -72.5 -287t-201 -197.5t-289.5 -70.5q-245 0 -405 156.5t-160 398.5zM285 543q0 -171 103.5 -277t262.5 -106t262 106t103 277t-103 276t-262 105t-262.5 -105t-103.5 -276zM305 1260q3 114 57.5 181.5 t143.5 67.5q36 0 70.5 -14.5t60.5 -35t49.5 -40.5t47 -34.5t44.5 -14.5q45 0 73.5 33t31.5 90h110q-3 -110 -57 -177t-143 -67q-44 0 -87 21.5t-70.5 47t-59 47t-56.5 21.5q-45 0 -73 -33.5t-31 -92.5h-111z" />
<glyph unicode="&#xf6;" horiz-adv-x="1300" d="M86 543q0 242 160 397.5t405 155.5t404 -155.5t159 -397.5q0 -160 -72.5 -287t-201 -197.5t-289.5 -70.5q-245 0 -405 156.5t-160 398.5zM285 543q0 -171 103.5 -277t262.5 -106t262 106t103 277t-103 276t-262 105t-262.5 -105t-103.5 -276zM354 1382q0 45 31 76t74 31 t73.5 -31t30.5 -76t-30.5 -74.5t-73.5 -29.5q-44 0 -74.5 29.5t-30.5 74.5zM735 1382q0 45 31 76t74 31t73.5 -31t30.5 -76t-30.5 -74.5t-73.5 -29.5q-44 0 -74.5 29.5t-30.5 74.5z" />
<glyph unicode="&#xf7;" horiz-adv-x="1191" d="M137 635v162h918v-162h-918zM479 315q0 52 33.5 86.5t83.5 34.5q51 0 85 -34.5t34 -86.5q0 -54 -34 -89.5t-85 -35.5q-50 0 -83.5 35.5t-33.5 89.5zM479 1120q0 54 33.5 88.5t83.5 34.5q51 0 85 -34.5t34 -88.5q0 -53 -34 -88t-85 -35q-50 0 -83.5 35.5t-33.5 87.5z" />
<glyph unicode="&#xf8;" horiz-adv-x="1300" d="M86 543q0 242 160 397.5t405 155.5q147 0 267 -60l122 189h121l-157 -240q100 -75 155 -189t55 -253q0 -160 -72.5 -287t-201 -197.5t-289.5 -70.5q-146 0 -264 59l-127 -192h-123l162 245q-101 74 -157 189t-56 254zM285 543q0 -182 116 -289l416 633q-73 37 -166 37 q-159 0 -262.5 -105t-103.5 -276zM485 197q73 -37 166 -37q159 0 262 106t103 277q0 181 -115 286z" />
<glyph unicode="&#xf9;" horiz-adv-x="1386" d="M176 461v624h197v-602q0 -158 76 -238.5t217 -80.5q156 0 245.5 94t89.5 266v561h197v-1085h-186v164q-60 -84 -156.5 -130t-212.5 -46q-217 0 -342 120t-125 353zM313 1509h250l279 -266h-185z" />
<glyph unicode="&#xfa;" horiz-adv-x="1386" d="M176 461v624h197v-602q0 -158 76 -238.5t217 -80.5q156 0 245.5 94t89.5 266v561h197v-1085h-186v164q-60 -84 -156.5 -130t-212.5 -46q-217 0 -342 120t-125 353zM535 1243l278 266h250l-344 -266h-184z" />
<glyph unicode="&#xfb;" horiz-adv-x="1386" d="M176 461v624h197v-602q0 -158 76 -238.5t217 -80.5q156 0 245.5 94t89.5 266v561h197v-1085h-186v164q-60 -84 -156.5 -130t-212.5 -46q-217 0 -342 120t-125 353zM322 1243l272 266h188l273 -266h-178l-189 158l-188 -158h-178z" />
<glyph unicode="&#xfc;" horiz-adv-x="1386" d="M176 461v624h197v-602q0 -158 76 -238.5t217 -80.5q156 0 245.5 94t89.5 266v561h197v-1085h-186v164q-60 -84 -156.5 -130t-212.5 -46q-217 0 -342 120t-125 353zM393 1382q0 45 31 76t74 31t73.5 -31t30.5 -76t-30.5 -74.5t-73.5 -29.5q-44 0 -74.5 29.5t-30.5 74.5z M774 1382q0 45 31 76t74 31t73.5 -31t30.5 -76t-30.5 -74.5t-73.5 -29.5q-44 0 -74.5 29.5t-30.5 74.5z" />
<glyph unicode="&#xfd;" horiz-adv-x="1144" d="M-45 -309l84 147q83 -80 194 -80q72 0 120 38t87 130l35 76l-479 1083h205l379 -868l374 868h193l-526 -1194q-69 -165 -163 -233t-225 -68q-80 0 -154 26.5t-124 74.5zM391 1243l279 266h250l-345 -266h-184z" />
<glyph unicode="&#xfe;" horiz-adv-x="1396" d="M186 -397v1917h197v-596q132 172 379 172q240 0 394.5 -153t154.5 -400q0 -248 -154.5 -401.5t-394.5 -153.5q-117 0 -214.5 44.5t-164.5 131.5v-561h-197zM381 543q0 -171 103.5 -277t260.5 -106q159 0 263 106t104 277q0 170 -104 275.5t-263 105.5 q-157 0 -260.5 -105.5t-103.5 -275.5z" />
<glyph unicode="&#xff;" horiz-adv-x="1144" d="M-45 -309l84 147q83 -80 194 -80q72 0 120 38t87 130l35 76l-479 1083h205l379 -868l374 868h193l-526 -1194q-69 -165 -163 -233t-225 -68q-80 0 -154 26.5t-124 74.5zM250 1382q0 45 30.5 76t73.5 31t74 -31t31 -76t-30.5 -74.5t-74.5 -29.5q-43 0 -73.5 29.5 t-30.5 74.5zM631 1382q0 45 30.5 76t73.5 31t74 -31t31 -76t-30.5 -74.5t-74.5 -29.5q-43 0 -73.5 29.5t-30.5 74.5z" />
<glyph unicode="&#x100;" horiz-adv-x="1499" d="M-2 0l649 1434h203l651 -1434h-215l-158 358h-761l-158 -358h-211zM416 1622v123h667v-123h-667zM438 522h619l-309 703z" />
<glyph unicode="&#x101;" horiz-adv-x="1224" d="M102 307q0 68 23.5 123.5t73 100t136 69.5t204.5 25h311v39q0 126 -73.5 194t-217.5 68q-97 0 -189 -31.5t-155 -85.5l-82 147q85 67 201.5 103.5t247.5 36.5q226 0 345.5 -110.5t119.5 -330.5v-655h-187v143q-104 -155 -356 -155q-183 0 -292.5 88.5t-109.5 230.5z M262 1315v123h668v-123h-668zM297 315q0 -82 64 -129t176 -47q111 0 194 50t119 143v151h-303q-250 0 -250 -168z" />
<glyph unicode="&#x102;" horiz-adv-x="1499" d="M-2 0l649 1434h203l651 -1434h-215l-158 358h-761l-158 -358h-211zM418 1817h133q3 -74 59.5 -119t139.5 -45t139 45t59 119h133q-4 -127 -97 -203t-234 -76t-234.5 76t-97.5 203zM438 522h619l-309 703z" />
<glyph unicode="&#x103;" horiz-adv-x="1224" d="M102 307q0 68 23.5 123.5t73 100t136 69.5t204.5 25h311v39q0 126 -73.5 194t-217.5 68q-97 0 -189 -31.5t-155 -85.5l-82 147q85 67 201.5 103.5t247.5 36.5q226 0 345.5 -110.5t119.5 -330.5v-655h-187v143q-104 -155 -356 -155q-183 0 -292.5 88.5t-109.5 230.5z M264 1509h133q3 -74 59.5 -118.5t139.5 -44.5t139.5 44.5t59.5 118.5h133q-4 -127 -97.5 -202.5t-234.5 -75.5t-234.5 75.5t-97.5 202.5zM297 315q0 -82 64 -129t176 -47q111 0 194 50t119 143v151h-303q-250 0 -250 -168z" />
<glyph unicode="&#x104;" horiz-adv-x="1499" d="M-2 0l649 1434h203l651 -1434q-130 -58 -187 -116t-57 -122q0 -50 34.5 -78t90.5 -28q77 0 127 35l37 -101q-77 -49 -184 -49q-114 0 -180 57t-66 150q0 147 168 254l-156 356h-761l-158 -358h-211zM438 522h619l-309 703z" />
<glyph unicode="&#x105;" horiz-adv-x="1224" d="M102 307q0 68 23.5 123.5t73 100t136 69.5t204.5 25h311v39q0 126 -73.5 194t-217.5 68q-97 0 -189 -31.5t-155 -85.5l-82 147q85 67 201.5 103.5t247.5 36.5q226 0 345.5 -110.5t119.5 -330.5v-655q-130 -58 -187 -116t-57 -122q0 -50 34.5 -78t90.5 -28q77 0 127 35 l37 -101q-77 -49 -185 -49q-114 0 -179.5 56.5t-65.5 150.5q0 160 198 272v123q-104 -155 -356 -155q-183 0 -292.5 88.5t-109.5 230.5zM297 315q0 -82 64 -129t176 -47q111 0 194 50t119 143v151h-303q-250 0 -250 -168z" />
<glyph unicode="&#x106;" horiz-adv-x="1480" d="M98 717q0 157 58 293t158.5 232.5t241.5 152t302 55.5q167 0 307.5 -57t237.5 -166l-133 -129q-161 170 -404 170q-120 0 -224.5 -42t-179 -114.5t-117 -175t-42.5 -219.5t42.5 -219.5t117 -175t179 -114.5t224.5 -42q241 0 404 172l133 -129q-98 -110 -238.5 -167.5 t-308.5 -57.5q-214 0 -387.5 94t-272 262t-98.5 377zM688 1550l279 267h250l-345 -267h-184z" />
<glyph unicode="&#x107;" horiz-adv-x="1169" d="M86 543q0 243 161 398t412 155q148 0 263.5 -59.5t179.5 -172.5l-150 -96q-103 156 -295 156q-162 0 -267 -105t-105 -276q0 -174 104.5 -278.5t267.5 -104.5q193 0 295 155l150 -94q-64 -113 -179.5 -173t-263.5 -60q-251 0 -412 156t-161 399zM467 1243l278 266h250 l-344 -266h-184z" />
<glyph unicode="&#x108;" horiz-adv-x="1480" d="M98 717q0 157 58 293t158.5 232.5t241.5 152t302 55.5q167 0 307.5 -57t237.5 -166l-133 -129q-161 170 -404 170q-120 0 -224.5 -42t-179 -114.5t-117 -175t-42.5 -219.5t42.5 -219.5t117 -175t179 -114.5t224.5 -42q241 0 404 172l133 -129q-98 -110 -238.5 -167.5 t-308.5 -57.5q-214 0 -387.5 94t-272 262t-98.5 377zM475 1550l273 267h188l272 -267h-178l-188 158l-189 -158h-178z" />
<glyph unicode="&#x109;" horiz-adv-x="1169" d="M86 543q0 243 161 398t412 155q148 0 263.5 -59.5t179.5 -172.5l-150 -96q-103 156 -295 156q-162 0 -267 -105t-105 -276q0 -174 104.5 -278.5t267.5 -104.5q193 0 295 155l150 -94q-64 -113 -179.5 -173t-263.5 -60q-251 0 -412 156t-161 399zM254 1243l272 266h189 l272 -266h-178l-188 158l-189 -158h-178z" />
<glyph unicode="&#x10a;" horiz-adv-x="1480" d="M98 717q0 157 58 293t158.5 232.5t241.5 152t302 55.5q167 0 307.5 -57t237.5 -166l-133 -129q-161 170 -404 170q-120 0 -224.5 -42t-179 -114.5t-117 -175t-42.5 -219.5t42.5 -219.5t117 -175t179 -114.5t224.5 -42q241 0 404 172l133 -129q-98 -110 -238.5 -167.5 t-308.5 -57.5q-214 0 -387.5 94t-272 262t-98.5 377zM721 1708q0 51 35 86t86 35t86 -35t35 -86q0 -52 -35 -86.5t-86 -34.5t-86 34.5t-35 86.5z" />
<glyph unicode="&#x10b;" horiz-adv-x="1169" d="M86 543q0 243 161 398t412 155q148 0 263.5 -59.5t179.5 -172.5l-150 -96q-103 156 -295 156q-162 0 -267 -105t-105 -276q0 -174 104.5 -278.5t267.5 -104.5q193 0 295 155l150 -94q-64 -113 -179.5 -173t-263.5 -60q-251 0 -412 156t-161 399zM500 1401q0 51 35 86 t86 35t85.5 -35t34.5 -86q0 -52 -34.5 -86.5t-85.5 -34.5t-86 34.5t-35 86.5z" />
<glyph unicode="&#x10c;" horiz-adv-x="1480" d="M98 717q0 157 58 293t158.5 232.5t241.5 152t302 55.5q167 0 307.5 -57t237.5 -166l-133 -129q-161 170 -404 170q-120 0 -224.5 -42t-179 -114.5t-117 -175t-42.5 -219.5t42.5 -219.5t117 -175t179 -114.5t224.5 -42q241 0 404 172l133 -129q-98 -110 -238.5 -167.5 t-308.5 -57.5q-214 0 -387.5 94t-272 262t-98.5 377zM475 1817h178l189 -156l188 156h178l-272 -267h-188z" />
<glyph unicode="&#x10d;" horiz-adv-x="1169" d="M86 543q0 243 161 398t412 155q148 0 263.5 -59.5t179.5 -172.5l-150 -96q-103 156 -295 156q-162 0 -267 -105t-105 -276q0 -174 104.5 -278.5t267.5 -104.5q193 0 295 155l150 -94q-64 -113 -179.5 -173t-263.5 -60q-251 0 -412 156t-161 399zM254 1509h178l189 -155 l188 155h178l-272 -266h-189z" />
<glyph unicode="&#x10e;" horiz-adv-x="1691" d="M215 0v1434h604q228 0 404 -90t273 -253t97 -374t-97 -374t-273 -253t-404 -90h-604zM410 1815h178l188 -156l189 156h178l-273 -267h-188zM420 178h387q264 0 423 148t159 391q0 242 -159 390t-423 148h-387v-1077z" />
<glyph unicode="&#x10f;" horiz-adv-x="1396" d="M86 543q0 247 154.5 400t394.5 153q245 0 379 -174v598h196v-1520h-188v172q-65 -91 -165 -137.5t-222 -46.5q-240 0 -394.5 154t-154.5 401zM285 543q0 -171 103.5 -277t262.5 -106q158 0 261.5 106t103.5 277t-103.5 276t-261.5 105q-159 0 -262.5 -105t-103.5 -276z M1393 1192v395h161l-24 -395h-137z" />
<glyph unicode="&#x110;" horiz-adv-x="1708" d="M23 649v162h208v623h605q228 0 404 -90t273 -253t97 -374t-97 -374t-273 -253t-404 -90h-605v649h-208zM436 178h387q264 0 423 148t159 391q0 242 -159 390t-423 148h-387v-444h406v-162h-406v-471z" />
<glyph unicode="&#x111;" horiz-adv-x="1396" d="M86 543q0 247 154.5 400t394.5 153q245 0 379 -174v307h-428v139h428v152h196v-152h187v-139h-187v-1229h-188v172q-65 -91 -165 -137.5t-222 -46.5q-240 0 -394.5 154t-154.5 401zM285 543q0 -171 103.5 -277t262.5 -106q158 0 261.5 106t103.5 277t-103.5 276 t-261.5 105q-159 0 -262.5 -105t-103.5 -276z" />
<glyph unicode="&#x112;" horiz-adv-x="1372" d="M215 0v1434h1012v-179h-807v-440h719v-174h-719v-463h835v-178h-1040zM389 1622v123h668v-123h-668z" />
<glyph unicode="&#x113;" d="M86 543q0 159 70.5 285.5t195 197t279.5 70.5q236 0 386 -155t150 -404q0 -24 -4 -60h-880q19 -143 126 -230t267 -87q194 0 313 131l109 -127q-150 -176 -428 -176q-261 0 -422.5 155t-161.5 400zM283 618h696q-15 138 -111 225t-237 87t-237 -87t-111 -225zM295 1315 v123h668v-123h-668z" />
<glyph unicode="&#x114;" horiz-adv-x="1372" d="M215 0v1434h1012v-179h-807v-440h719v-174h-719v-463h835v-178h-1040zM391 1817h133q3 -74 59.5 -119t139.5 -45t139.5 45t59.5 119h133q-4 -127 -97.5 -203t-234.5 -76t-234.5 76t-97.5 203z" />
<glyph unicode="&#x115;" d="M86 543q0 159 70.5 285.5t195 197t279.5 70.5q236 0 386 -155t150 -404q0 -24 -4 -60h-880q19 -143 126 -230t267 -87q194 0 313 131l109 -127q-150 -176 -428 -176q-261 0 -422.5 155t-161.5 400zM283 618h696q-15 138 -111 225t-237 87t-237 -87t-111 -225zM297 1509 h133q3 -74 59.5 -118.5t139.5 -44.5t139 44.5t59 118.5h134q-4 -127 -97.5 -202.5t-234.5 -75.5t-234.5 75.5t-97.5 202.5z" />
<glyph unicode="&#x116;" horiz-adv-x="1372" d="M215 0v1434h1012v-179h-807v-440h719v-174h-719v-463h835v-178h-1040zM602 1708q0 51 35 86t86 35t86 -35t35 -86q0 -52 -35 -86.5t-86 -34.5t-86 34.5t-35 86.5z" />
<glyph unicode="&#x117;" d="M86 543q0 159 70.5 285.5t195 197t279.5 70.5q236 0 386 -155t150 -404q0 -24 -4 -60h-880q19 -143 126 -230t267 -87q194 0 313 131l109 -127q-150 -176 -428 -176q-261 0 -422.5 155t-161.5 400zM283 618h696q-15 138 -111 225t-237 87t-237 -87t-111 -225zM508 1401 q0 51 35 86t86 35t86 -35t35 -86q0 -52 -35 -86.5t-86 -34.5t-86 34.5t-35 86.5z" />
<glyph unicode="&#x118;" horiz-adv-x="1372" d="M215 0v1434h1012v-179h-807v-440h719v-174h-719v-463h835v-178q-130 -58 -186.5 -116t-56.5 -122q0 -50 34.5 -78t90.5 -28q77 0 127 35l36 -101q-77 -49 -184 -49q-114 0 -180 57t-66 150q0 145 164 252h-819z" />
<glyph unicode="&#x119;" d="M86 543q0 159 70.5 285.5t195 197t279.5 70.5q236 0 386 -155t150 -404q0 -24 -4 -60h-880q19 -143 126 -230t267 -87q194 0 313 131l109 -127q-14 -17 -80 -74q-130 -108 -181 -182.5t-51 -138.5q0 -55 34.5 -84t92.5 -29q75 0 125 35l39 -101q-81 -49 -184 -49 q-112 0 -179 58.5t-67 156.5q0 127 101 236q-50 -4 -78 -4q-261 0 -422.5 155t-161.5 400zM283 618h696q-15 138 -111 225t-237 87t-237 -87t-111 -225z" />
<glyph unicode="&#x11a;" horiz-adv-x="1372" d="M215 0v1434h1012v-179h-807v-440h719v-174h-719v-463h835v-178h-1040zM356 1817h179l188 -156l188 156h179l-273 -267h-188z" />
<glyph unicode="&#x11b;" d="M86 543q0 159 70.5 285.5t195 197t279.5 70.5q236 0 386 -155t150 -404q0 -24 -4 -60h-880q19 -143 126 -230t267 -87q194 0 313 131l109 -127q-150 -176 -428 -176q-261 0 -422.5 155t-161.5 400zM262 1509h178l189 -155l188 155h178l-272 -266h-188zM283 618h696 q-15 138 -111 225t-237 87t-237 -87t-111 -225z" />
<glyph unicode="&#x11c;" horiz-adv-x="1581" d="M98 717q0 209 99 377t274.5 262t394.5 94q171 0 312 -56.5t239 -164.5l-127 -127q-172 166 -416 166q-249 0 -410 -156t-161 -395q0 -156 73 -282t203.5 -197.5t292.5 -71.5q194 0 336 92v467h197v-559q-105 -89 -247 -135.5t-296 -46.5q-163 0 -305 55.5t-242.5 152 t-158.5 232.5t-58 293zM473 1550l272 267h189l272 -267h-178l-188 158l-189 -158h-178z" />
<glyph unicode="&#x11d;" horiz-adv-x="1413" d="M86 571q0 154 72.5 274t197.5 185.5t281 65.5q124 0 228.5 -45t172.5 -133v167h187v-938q0 -284 -141.5 -420.5t-421.5 -136.5q-153 0 -292.5 42t-226.5 120l95 152q76 -65 187 -103.5t230 -38.5q191 0 282 90t91 275v86q-69 -83 -170.5 -125.5t-220.5 -42.5 q-237 0 -394 147t-157 379zM285 571q0 -156 104.5 -255t269.5 -99q163 0 268 99t105 255q0 157 -104.5 255t-268.5 98q-165 0 -269.5 -98t-104.5 -255zM307 1243l273 266h188l272 -266h-178l-188 158l-189 -158h-178z" />
<glyph unicode="&#x11e;" horiz-adv-x="1581" d="M98 717q0 209 99 377t274.5 262t394.5 94q171 0 312 -56.5t239 -164.5l-127 -127q-172 166 -416 166q-249 0 -410 -156t-161 -395q0 -156 73 -282t203.5 -197.5t292.5 -71.5q194 0 336 92v467h197v-559q-105 -89 -247 -135.5t-296 -46.5q-163 0 -305 55.5t-242.5 152 t-158.5 232.5t-58 293zM508 1817h133q3 -74 59.5 -119t139.5 -45t139 45t59 119h133q-4 -127 -97 -203t-234 -76t-234.5 76t-97.5 203z" />
<glyph unicode="&#x11f;" horiz-adv-x="1413" d="M86 571q0 154 72.5 274t197.5 185.5t281 65.5q124 0 228.5 -45t172.5 -133v167h187v-938q0 -284 -141.5 -420.5t-421.5 -136.5q-153 0 -292.5 42t-226.5 120l95 152q76 -65 187 -103.5t230 -38.5q191 0 282 90t91 275v86q-69 -83 -170.5 -125.5t-220.5 -42.5 q-237 0 -394 147t-157 379zM285 571q0 -156 104.5 -255t269.5 -99q163 0 268 99t105 255q0 157 -104.5 255t-268.5 98q-165 0 -269.5 -98t-104.5 -255zM342 1509h133q3 -74 59.5 -118.5t139.5 -44.5t139 44.5t59 118.5h134q-4 -127 -97.5 -202.5t-234.5 -75.5t-234.5 75.5 t-97.5 202.5z" />
<glyph unicode="&#x120;" horiz-adv-x="1581" d="M98 717q0 209 99 377t274.5 262t394.5 94q171 0 312 -56.5t239 -164.5l-127 -127q-172 166 -416 166q-249 0 -410 -156t-161 -395q0 -156 73 -282t203.5 -197.5t292.5 -71.5q194 0 336 92v467h197v-559q-105 -89 -247 -135.5t-296 -46.5q-163 0 -305 55.5t-242.5 152 t-158.5 232.5t-58 293zM719 1708q0 51 35 86t86 35t86 -35t35 -86q0 -52 -35 -86.5t-86 -34.5t-86 34.5t-35 86.5z" />
<glyph unicode="&#x121;" horiz-adv-x="1413" d="M86 571q0 154 72.5 274t197.5 185.5t281 65.5q124 0 228.5 -45t172.5 -133v167h187v-938q0 -284 -141.5 -420.5t-421.5 -136.5q-153 0 -292.5 42t-226.5 120l95 152q76 -65 187 -103.5t230 -38.5q191 0 282 90t91 275v86q-69 -83 -170.5 -125.5t-220.5 -42.5 q-237 0 -394 147t-157 379zM285 571q0 -156 104.5 -255t269.5 -99q163 0 268 99t105 255q0 157 -104.5 255t-268.5 98q-165 0 -269.5 -98t-104.5 -255zM553 1401q0 51 35 86t86 35t86 -35t35 -86q0 -52 -35 -86.5t-86 -34.5t-86 34.5t-35 86.5z" />
<glyph unicode="&#x122;" horiz-adv-x="1581" d="M98 717q0 209 99 377t274.5 262t394.5 94q171 0 312 -56.5t239 -164.5l-127 -127q-172 166 -416 166q-249 0 -410 -156t-161 -395q0 -156 73 -282t203.5 -197.5t292.5 -71.5q194 0 336 92v467h197v-559q-105 -89 -247 -135.5t-296 -46.5q-163 0 -305 55.5t-242.5 152 t-158.5 232.5t-58 293zM725 -287q0 42 28.5 68t75.5 26t76 -27t29 -67q0 -46 -27 -104l-61 -148h-103l48 164q-31 9 -48.5 32.5t-17.5 55.5z" />
<glyph unicode="&#x123;" horiz-adv-x="1413" d="M86 571q0 154 72.5 274t197.5 185.5t281 65.5q124 0 228.5 -45t172.5 -133v167h187v-938q0 -284 -141.5 -420.5t-421.5 -136.5q-153 0 -292.5 42t-226.5 120l95 152q76 -65 187 -103.5t230 -38.5q191 0 282 90t91 275v86q-69 -83 -170.5 -125.5t-220.5 -42.5 q-237 0 -394 147t-157 379zM285 571q0 -156 104.5 -255t269.5 -99q163 0 268 99t105 255q0 157 -104.5 255t-268.5 98q-165 0 -269.5 -98t-104.5 -255zM559 1325q0 41 31 102l76 193h112l-59 -209q33 -9 51 -31.5t18 -54.5q0 -42 -30 -68t-84 -26t-84.5 26.5t-30.5 67.5z " />
<glyph unicode="&#x124;" horiz-adv-x="1662" d="M215 0v1434h205v-617h823v617h205v-1434h-205v639h-823v-639h-205zM463 1550l272 267h189l272 -267h-178l-189 158l-188 -158h-178z" />
<glyph unicode="&#x125;" horiz-adv-x="1394" d="M-82 1636l272 267h189l272 -267h-178l-188 158l-189 -158h-178zM186 0v1520h197v-588q62 79 160.5 121.5t222.5 42.5q206 0 328.5 -119.5t122.5 -351.5v-625h-197v602q0 158 -76 238t-217 80q-160 0 -252 -93.5t-92 -267.5v-559h-197z" />
<glyph unicode="&#x126;" horiz-adv-x="1695" d="M18 1051v161h213v222h205v-222h824v222h204v-222h207v-161h-207v-1051h-204v639h-824v-639h-205v1051h-213zM436 817h824v234h-824v-234z" />
<glyph unicode="&#x127;" horiz-adv-x="1394" d="M0 1229v139h186v152h197v-152h428v-139h-428v-297q62 79 160.5 121.5t222.5 42.5q206 0 328.5 -119.5t122.5 -351.5v-625h-197v602q0 158 -76 238t-217 80q-160 0 -252 -93.5t-92 -267.5v-559h-197v1229h-186z" />
<glyph unicode="&#x128;" horiz-adv-x="634" d="M-27 1567q3 114 57.5 182t143.5 68q44 0 87 -22t70 -48t58.5 -48t56.5 -22q45 0 73.5 33t31.5 90h111q-3 -110 -57.5 -177t-143.5 -67q-44 0 -87 21.5t-70.5 47.5t-59 47.5t-56.5 21.5q-45 0 -73 -34t-31 -93h-111zM215 0v1434h205v-1434h-205z" />
<glyph unicode="&#x129;" horiz-adv-x="571" d="M-8 1260q0 119 45 184t125 65q41 0 78.5 -21.5t60 -47t49 -47t47.5 -21.5q33 0 51.5 32.5t18.5 88.5h111q0 -115 -45 -179.5t-125 -64.5q-41 0 -78.5 21.5t-60.5 47t-49.5 47t-47.5 21.5q-34 0 -52 -33t-18 -93h-110zM186 0v1085h197v-1085h-197z" />
<glyph unicode="&#x12a;" horiz-adv-x="634" d="M45 1622v123h545v-123h-545zM215 0v1434h205v-1434h-205z" />
<glyph unicode="&#x12b;" horiz-adv-x="571" d="M12 1315v123h545v-123h-545zM186 0v1085h197v-1085h-197z" />
<glyph unicode="&#x12c;" horiz-adv-x="634" d="M-14 1817h133q3 -74 59 -119t139 -45t139.5 45t59.5 119h133q-4 -127 -97.5 -203t-234.5 -76t-234 76t-97 203zM215 0v1434h205v-1434h-205z" />
<glyph unicode="&#x12d;" horiz-adv-x="571" d="M4 1509h127q0 -75 41.5 -119t112.5 -44q70 0 111.5 44t41.5 119h127q0 -127 -79 -202.5t-201 -75.5q-123 0 -202 75.5t-79 202.5zM186 0v1085h197v-1085h-197z" />
<glyph unicode="&#x12e;" horiz-adv-x="634" d="M160 -260q0 138 116 260h-61v1434h205v-1434q-121 -116 -121 -238q0 -49 26 -77.5t64 -28.5q34 0 70 25l35 -99q-47 -41 -129 -41q-92 0 -148.5 55t-56.5 144z" />
<glyph unicode="&#x12f;" horiz-adv-x="571" d="M123 -260q0 137 117 260h-54v1085h197v-1085q-121 -116 -121 -238q0 -49 26 -77.5t64 -28.5q34 0 70 25l35 -99q-47 -41 -129 -41q-92 0 -148.5 55t-56.5 144zM152 1421q0 54 38 91.5t95 37.5t95 -36t38 -89q0 -56 -37.5 -93.5t-95.5 -37.5q-57 0 -95 36.5t-38 90.5z" />
<glyph unicode="&#x130;" horiz-adv-x="634" d="M197 1708q0 51 34.5 86t85.5 35t86 -35t35 -86q0 -52 -35 -86.5t-86 -34.5t-85.5 34.5t-34.5 86.5zM215 0v1434h205v-1434h-205z" />
<glyph unicode="&#x131;" horiz-adv-x="571" d="M186 0v1085h197v-1085h-197z" />
<glyph unicode="&#x132;" horiz-adv-x="1474" d="M178 129l80 164q184 -127 416 -127q192 0 292.5 112.5t100.5 339.5v816h205v-805q0 -313 -162 -479t-440 -166q-140 0 -267.5 39t-224.5 106zM203 633v801h205v-801h-205z" />
<glyph unicode="&#x133;" horiz-adv-x="1153" d="M152 1421q0 54 38 91.5t95 37.5t95 -36t38 -89q0 -56 -37.5 -93.5t-95.5 -37.5q-57 0 -95 36.5t-38 90.5zM186 0v1085h197v-1085h-197zM383 -344l63 151q60 -51 160 -51q78 0 120 49t42 142v1138h197v-1134q0 -168 -91 -264.5t-256 -96.5q-154 0 -235 66zM733 1421 q0 54 38 91.5t95 37.5t95 -36t38 -89q0 -56 -37.5 -93.5t-95.5 -37.5q-57 0 -95 36.5t-38 90.5z" />
<glyph unicode="&#x134;" horiz-adv-x="1050" d="M-18 190l118 140q119 -170 299 -170q246 0 246 291v804h-518v179h721v-973q0 -238 -114 -357.5t-335 -119.5q-129 0 -239 53.5t-178 152.5zM123 1550l272 267h189l272 -267h-178l-189 158l-188 -158h-178z" />
<glyph unicode="&#x135;" horiz-adv-x="581" d="M-188 -344l63 151q60 -51 160 -51q78 0 120 49t42 142v1138h196v-1134q0 -168 -90.5 -264.5t-255.5 -96.5q-154 0 -235 66zM-20 1243l223 266h184l223 -266h-168l-147 152l-148 -152h-167z" />
<glyph unicode="&#x136;" horiz-adv-x="1472" d="M215 0v1434h205v-801l778 801h234l-613 -646l651 -788h-239l-549 637l-262 -266v-371h-205zM664 -287q0 42 28.5 68t75.5 26q46 0 75 -27t29 -67q0 -48 -26 -104l-62 -148h-102l47 164q-31 9 -48 32.5t-17 55.5z" />
<glyph unicode="&#x137;" horiz-adv-x="1261" d="M186 0v1520h197v-975l592 540h237l-456 -448l501 -637h-241l-408 506l-225 -209v-297h-197zM537 -287q0 42 28.5 68t75.5 26q46 0 75 -27t29 -67q0 -48 -26 -104l-62 -148h-102l47 164q-31 9 -48 32.5t-17 55.5z" />
<glyph unicode="&#x138;" horiz-adv-x="1241" d="M186 0v1085h197v-540l592 540h237l-456 -448l501 -637h-241l-408 506l-225 -209v-297h-197z" />
<glyph unicode="&#x139;" horiz-adv-x="1216" d="M164 1550l278 267h250l-344 -267h-184zM215 0v1434h205v-1256h776v-178h-981z" />
<glyph unicode="&#x13a;" horiz-adv-x="571" d="M131 1677l279 267h249l-344 -267h-184zM186 0v1520h197v-1520h-197z" />
<glyph unicode="&#x13b;" horiz-adv-x="1216" d="M215 0v1434h205v-1256h776v-178h-981zM625 -287q0 42 28.5 68t75.5 26t76 -27t29 -67q0 -46 -27 -104l-62 -148h-102l47 164q-31 9 -48 32.5t-17 55.5z" />
<glyph unicode="&#x13c;" horiz-adv-x="571" d="M180 -287q0 41 29 67.5t76 26.5q46 0 75 -27t29 -67q0 -46 -27 -104l-61 -148h-102l47 164q-31 9 -48.5 32.5t-17.5 55.5zM186 0v1520h197v-1520h-197z" />
<glyph unicode="&#x13d;" horiz-adv-x="1216" d="M215 0v1434h205v-1256h776v-178h-981zM897 1106v395h162l-25 -395h-137z" />
<glyph unicode="&#x13e;" horiz-adv-x="571" d="M186 0v1520h197v-1520h-197zM565 1192v395h162l-25 -395h-137z" />
<glyph unicode="&#x13f;" horiz-adv-x="1216" d="M215 0v1434h205v-1256h776v-178h-981zM801 805q0 55 36.5 91t88.5 36t87.5 -36t35.5 -91t-35.5 -91t-87.5 -36t-88.5 36t-36.5 91z" />
<glyph unicode="&#x140;" horiz-adv-x="708" d="M186 0v1520h197v-1520h-197zM520 731q0 50 34 83.5t85 33.5q49 0 83 -34t34 -83t-34 -83t-83 -34q-51 0 -85 33.5t-34 83.5z" />
<glyph unicode="&#x141;" horiz-adv-x="1232" d="M18 621l213 161v652h205v-496l230 174l90 -115l-320 -241v-578h776v-178h-981v600l-122 -94z" />
<glyph unicode="&#x142;" horiz-adv-x="604" d="M-14 586l217 166v768h196v-619l129 98l88 -118l-217 -164v-717h-196v567l-129 -98z" />
<glyph unicode="&#x143;" horiz-adv-x="1662" d="M215 0v1434h168l860 -1069v1069h205v-1434h-168l-860 1069v-1069h-205zM676 1550l278 267h250l-344 -267h-184z" />
<glyph unicode="&#x144;" horiz-adv-x="1394" d="M186 0v1085h189v-163q60 84 161 129t230 45q206 0 328.5 -119.5t122.5 -351.5v-625h-197v602q0 158 -76 238t-217 80q-160 0 -252 -93.5t-92 -267.5v-559h-197zM549 1243l278 266h250l-344 -266h-184z" />
<glyph unicode="&#x145;" horiz-adv-x="1662" d="M215 0v1434h168l860 -1069v1069h205v-1434h-168l-860 1069v-1069h-205zM725 -287q0 42 28.5 68t75.5 26t76 -27t29 -67q0 -46 -27 -104l-61 -148h-103l48 164q-31 9 -48.5 32.5t-17.5 55.5z" />
<glyph unicode="&#x146;" horiz-adv-x="1394" d="M186 0v1085h189v-163q60 84 161 129t230 45q206 0 328.5 -119.5t122.5 -351.5v-625h-197v602q0 158 -76 238t-217 80q-160 0 -252 -93.5t-92 -267.5v-559h-197zM598 -287q0 42 28.5 68t75.5 26t76 -27t29 -67q0 -46 -27 -104l-61 -148h-103l48 164q-31 9 -48.5 32.5 t-17.5 55.5z" />
<glyph unicode="&#x147;" horiz-adv-x="1662" d="M215 0v1434h168l860 -1069v1069h205v-1434h-168l-860 1069v-1069h-205zM463 1817h178l188 -156l189 156h178l-272 -267h-189z" />
<glyph unicode="&#x148;" horiz-adv-x="1394" d="M186 0v1085h189v-163q60 84 161 129t230 45q206 0 328.5 -119.5t122.5 -351.5v-625h-197v602q0 158 -76 238t-217 80q-160 0 -252 -93.5t-92 -267.5v-559h-197zM336 1509h178l188 -155l189 155h178l-272 -266h-189z" />
<glyph unicode="&#x149;" horiz-adv-x="1576" d="M109 899l6 535h135l-33 -535h-108zM371 0v1085h188v-163q60 84 161 129t230 45q206 0 328.5 -119.5t122.5 -351.5v-625h-197v602q0 158 -76 238t-217 80q-160 0 -252 -93.5t-92 -267.5v-559h-196z" />
<glyph unicode="&#x14a;" horiz-adv-x="1662" d="M215 0v1434h168l860 -1069v1069h205v-1348q0 -252 -111 -374t-333 -122q-109 0 -205.5 42t-163.5 120l100 148q108 -133 269 -133q233 0 239 278l-823 1024v-1069h-205z" />
<glyph unicode="&#x14b;" horiz-adv-x="1394" d="M186 0v1085h189v-163q60 84 161 129t230 45q206 0 328.5 -119.5t122.5 -351.5v-674q0 -168 -90.5 -264.5t-256.5 -96.5q-151 0 -235 66l63 151q63 -51 160 -51q78 0 120 49t42 142v655q0 158 -76 238t-217 80q-160 0 -252 -93.5t-92 -267.5v-559h-197z" />
<glyph unicode="&#x14c;" horiz-adv-x="1720" d="M98 717q0 155 58 291t158.5 233t243 153t304.5 56q215 0 389 -94.5t272.5 -262.5t98.5 -376t-98.5 -376t-272.5 -262.5t-389 -94.5q-162 0 -304.5 56t-243 153t-158.5 233t-58 291zM303 717q0 -238 159 -394.5t400 -156.5q238 0 396.5 157t158.5 394t-158.5 394 t-396.5 157q-241 0 -400 -156.5t-159 -394.5zM528 1622v123h668v-123h-668z" />
<glyph unicode="&#x14d;" horiz-adv-x="1300" d="M86 543q0 242 160 397.5t405 155.5t404 -155.5t159 -397.5q0 -160 -72.5 -287t-201 -197.5t-289.5 -70.5q-245 0 -405 156.5t-160 398.5zM285 543q0 -171 103.5 -277t262.5 -106t262 106t103 277t-103 276t-262 105t-262.5 -105t-103.5 -276zM315 1315v123h668v-123h-668 z" />
<glyph unicode="&#x14e;" horiz-adv-x="1720" d="M98 717q0 155 58 291t158.5 233t243 153t304.5 56q215 0 389 -94.5t272.5 -262.5t98.5 -376t-98.5 -376t-272.5 -262.5t-389 -94.5q-162 0 -304.5 56t-243 153t-158.5 233t-58 291zM303 717q0 -238 159 -394.5t400 -156.5q238 0 396.5 157t158.5 394t-158.5 394 t-396.5 157q-241 0 -400 -156.5t-159 -394.5zM530 1817h134q3 -74 59 -119t139 -45t139.5 45t59.5 119h133q-4 -127 -97.5 -203t-234.5 -76t-234.5 76t-97.5 203z" />
<glyph unicode="&#x14f;" horiz-adv-x="1300" d="M86 543q0 242 160 397.5t405 155.5t404 -155.5t159 -397.5q0 -160 -72.5 -287t-201 -197.5t-289.5 -70.5q-245 0 -405 156.5t-160 398.5zM285 543q0 -171 103.5 -277t262.5 -106t262 106t103 277t-103 276t-262 105t-262.5 -105t-103.5 -276zM317 1509h134 q3 -74 59 -118.5t139 -44.5t139.5 44.5t59.5 118.5h133q-4 -127 -97.5 -202.5t-234.5 -75.5t-234.5 75.5t-97.5 202.5z" />
<glyph unicode="&#x150;" horiz-adv-x="1720" d="M98 717q0 155 58 291t158.5 233t243 153t304.5 56q215 0 389 -94.5t272.5 -262.5t98.5 -376t-98.5 -376t-272.5 -262.5t-389 -94.5q-162 0 -304.5 56t-243 153t-158.5 233t-58 291zM303 717q0 -238 159 -394.5t400 -156.5q238 0 396.5 157t158.5 394t-158.5 394 t-396.5 157q-241 0 -400 -156.5t-159 -394.5zM600 1550l184 267h209l-227 -267h-166zM958 1550l183 267h207l-224 -267h-166z" />
<glyph unicode="&#x151;" horiz-adv-x="1300" d="M86 543q0 242 160 397.5t405 155.5t404 -155.5t159 -397.5q0 -160 -72.5 -287t-201 -197.5t-289.5 -70.5q-245 0 -405 156.5t-160 398.5zM285 543q0 -171 103.5 -277t262.5 -106t262 106t103 277t-103 276t-262 105t-262.5 -105t-103.5 -276zM387 1243l184 266h209 l-227 -266h-166zM745 1243l183 266h207l-224 -266h-166z" />
<glyph unicode="&#x152;" horiz-adv-x="2306" d="M98 715q0 212 97 375.5t273 253.5t404 90h1289v-179h-809v-440h721v-174h-721v-463h837v-178h-1317q-345 0 -559.5 198.5t-214.5 516.5zM303 715q0 -240 158.5 -388.5t421.5 -148.5h266v1077h-266q-263 0 -421.5 -148t-158.5 -392z" />
<glyph unicode="&#x153;" horiz-adv-x="2185" d="M86 543q0 242 160 397.5t405 155.5q153 0 272 -64t189 -178q70 114 186 178t263 64q236 0 386 -155t150 -404q0 -42 -2 -60h-881q19 -143 125.5 -230t266.5 -87q197 0 313 131l109 -127q-73 -86 -183.5 -131t-245.5 -45q-163 0 -288 64t-197 179q-70 -114 -190 -178.5 t-273 -64.5q-245 0 -405 156.5t-160 398.5zM285 543q0 -171 103.5 -277t262.5 -106t262 106t103 277t-103 276t-262 105t-262.5 -105t-103.5 -276zM1214 618h697q-15 138 -112 225t-238 87q-139 0 -235.5 -87t-111.5 -225z" />
<glyph unicode="&#x154;" horiz-adv-x="1488" d="M215 0v1434h559q280 0 439 -133.5t159 -366.5q0 -165 -82 -282t-233 -171l340 -481h-223l-310 440q-58 -4 -90 -4h-354v-436h-205zM420 610h348q195 0 297 84.5t102 239.5t-102 238t-297 83h-348v-645zM606 1550l279 267h250l-344 -267h-185z" />
<glyph unicode="&#x155;" horiz-adv-x="839" d="M186 0v1085h189v-182q106 193 395 193v-191q-16 2 -45 2q-160 0 -251 -95t-91 -271v-541h-197zM326 1243l278 266h250l-344 -266h-184z" />
<glyph unicode="&#x156;" horiz-adv-x="1488" d="M215 0v1434h559q280 0 439 -133.5t159 -366.5q0 -165 -82 -282t-233 -171l340 -481h-223l-310 440q-58 -4 -90 -4h-354v-436h-205zM420 610h348q195 0 297 84.5t102 239.5t-102 238t-297 83h-348v-645zM655 -287q0 41 29 67.5t76 26.5q46 0 75 -27t29 -67q0 -48 -26 -104 l-62 -148h-102l47 164q-31 9 -48.5 32.5t-17.5 55.5z" />
<glyph unicode="&#x157;" horiz-adv-x="839" d="M180 -287q0 41 29 67.5t76 26.5q46 0 75 -27t29 -67q0 -46 -27 -104l-61 -148h-102l47 164q-31 9 -48.5 32.5t-17.5 55.5zM186 0v1085h189v-182q106 193 395 193v-191q-16 2 -45 2q-160 0 -251 -95t-91 -271v-541h-197z" />
<glyph unicode="&#x158;" horiz-adv-x="1488" d="M215 0v1434h559q280 0 439 -133.5t159 -366.5q0 -165 -82 -282t-233 -171l340 -481h-223l-310 440q-58 -4 -90 -4h-354v-436h-205zM393 1817h178l189 -156l188 156h178l-272 -267h-188zM420 610h348q195 0 297 84.5t102 239.5t-102 238t-297 83h-348v-645z" />
<glyph unicode="&#x159;" horiz-adv-x="839" d="M113 1509h178l188 -155l189 155h178l-273 -266h-188zM186 0v1085h189v-182q106 193 395 193v-191q-16 2 -45 2q-160 0 -251 -95t-91 -271v-541h-197z" />
<glyph unicode="&#x15a;" horiz-adv-x="1271" d="M84 164l76 160q81 -74 209.5 -120t263.5 -46q178 0 266 61t88 160q0 71 -48 118.5t-124.5 73.5t-169 47t-185 49.5t-169 69.5t-124.5 118t-48 185q0 85 33.5 158t99 130t172.5 89.5t244 32.5q128 0 250 -33t210 -94l-67 -164q-183 117 -393 117q-174 0 -261.5 -63.5 t-87.5 -163.5q0 -56 29.5 -97t80 -66.5t115.5 -45.5t137.5 -37t144.5 -36t137 -49.5t115.5 -71.5t80 -106t29.5 -149t-34 -156.5t-100.5 -129t-174.5 -89t-246 -32.5q-162 0 -312 50t-237 130zM506 1550l278 267h250l-344 -267h-184z" />
<glyph unicode="&#x15b;" horiz-adv-x="1026" d="M49 115l82 155q70 -50 173.5 -81t207.5 -31q258 0 258 147q0 49 -38 79.5t-98.5 44.5t-133.5 25t-146 29t-133.5 48t-98.5 90.5t-38 148.5q0 147 122.5 236.5t330.5 89.5q107 0 216 -27t179 -72l-84 -155q-134 86 -313 86q-125 0 -190.5 -41.5t-65.5 -108.5q0 -52 38 -84 t98.5 -47.5t134 -27t147 -30t134 -47.5t98.5 -88t38 -145q0 -148 -126 -234.5t-343 -86.5q-132 0 -256 36t-193 91zM354 1243l279 266h250l-344 -266h-185z" />
<glyph unicode="&#x15c;" horiz-adv-x="1271" d="M84 164l76 160q81 -74 209.5 -120t263.5 -46q178 0 266 61t88 160q0 71 -48 118.5t-124.5 73.5t-169 47t-185 49.5t-169 69.5t-124.5 118t-48 185q0 85 33.5 158t99 130t172.5 89.5t244 32.5q128 0 250 -33t210 -94l-67 -164q-183 117 -393 117q-174 0 -261.5 -63.5 t-87.5 -163.5q0 -56 29.5 -97t80 -66.5t115.5 -45.5t137.5 -37t144.5 -36t137 -49.5t115.5 -71.5t80 -106t29.5 -149t-34 -156.5t-100.5 -129t-174.5 -89t-246 -32.5q-162 0 -312 50t-237 130zM293 1550l272 267h189l272 -267h-178l-189 158l-188 -158h-178z" />
<glyph unicode="&#x15d;" horiz-adv-x="1026" d="M49 115l82 155q70 -50 173.5 -81t207.5 -31q258 0 258 147q0 49 -38 79.5t-98.5 44.5t-133.5 25t-146 29t-133.5 48t-98.5 90.5t-38 148.5q0 147 122.5 236.5t330.5 89.5q107 0 216 -27t179 -72l-84 -155q-134 86 -313 86q-125 0 -190.5 -41.5t-65.5 -108.5q0 -52 38 -84 t98.5 -47.5t134 -27t147 -30t134 -47.5t98.5 -88t38 -145q0 -148 -126 -234.5t-343 -86.5q-132 0 -256 36t-193 91zM141 1243l273 266h188l272 -266h-178l-188 158l-189 -158h-178z" />
<glyph unicode="&#x15e;" horiz-adv-x="1271" d="M84 164l76 160q81 -74 209.5 -120t263.5 -46q178 0 266 61t88 160q0 71 -48 118.5t-124.5 73.5t-169 47t-185 49.5t-169 69.5t-124.5 118t-48 185q0 85 33.5 158t99 130t172.5 89.5t244 32.5q128 0 250 -33t210 -94l-67 -164q-183 117 -393 117q-174 0 -261.5 -63.5 t-87.5 -163.5q0 -56 29.5 -97t80 -66.5t115.5 -45.5t137.5 -37t144.5 -36t137 -49.5t115.5 -71.5t80 -106t29.5 -149q0 -78 -29.5 -146.5t-87.5 -123.5t-151 -90.5t-213 -44.5l-23 -88q87 -9 132.5 -54.5t45.5 -115.5q0 -86 -69 -136.5t-185 -50.5q-108 0 -182 45l43 101 q60 -35 139 -35q115 0 115 82q0 37 -29 58.5t-88 21.5h-55l43 170q-152 6 -289.5 55t-220.5 125z" />
<glyph unicode="&#x15f;" horiz-adv-x="1026" d="M49 115l82 155q70 -50 173.5 -81t207.5 -31q258 0 258 147q0 49 -38 79.5t-98.5 44.5t-133.5 25t-146 29t-133.5 48t-98.5 90.5t-38 148.5q0 147 122.5 236.5t330.5 89.5q107 0 216 -27t179 -72l-84 -155q-134 86 -313 86q-125 0 -190.5 -41.5t-65.5 -108.5q0 -52 38 -84 t98.5 -47.5t134 -27t147 -30t134 -47.5t98.5 -88t38 -145q0 -136 -109.5 -221.5t-300.5 -97.5l-25 -92q87 -9 133 -54.5t46 -115.5q0 -86 -69 -136.5t-185 -50.5q-109 0 -183 45l43 101q60 -35 140 -35q114 0 114 82q0 80 -116 80h-56l45 176q-119 6 -225.5 40.5 t-169.5 84.5z" />
<glyph unicode="&#x160;" horiz-adv-x="1271" d="M84 164l76 160q81 -74 209.5 -120t263.5 -46q178 0 266 61t88 160q0 71 -48 118.5t-124.5 73.5t-169 47t-185 49.5t-169 69.5t-124.5 118t-48 185q0 85 33.5 158t99 130t172.5 89.5t244 32.5q128 0 250 -33t210 -94l-67 -164q-183 117 -393 117q-174 0 -261.5 -63.5 t-87.5 -163.5q0 -56 29.5 -97t80 -66.5t115.5 -45.5t137.5 -37t144.5 -36t137 -49.5t115.5 -71.5t80 -106t29.5 -149t-34 -156.5t-100.5 -129t-174.5 -89t-246 -32.5q-162 0 -312 50t-237 130zM293 1817h178l188 -156l189 156h178l-272 -267h-189z" />
<glyph unicode="&#x161;" horiz-adv-x="1026" d="M49 115l82 155q70 -50 173.5 -81t207.5 -31q258 0 258 147q0 49 -38 79.5t-98.5 44.5t-133.5 25t-146 29t-133.5 48t-98.5 90.5t-38 148.5q0 147 122.5 236.5t330.5 89.5q107 0 216 -27t179 -72l-84 -155q-134 86 -313 86q-125 0 -190.5 -41.5t-65.5 -108.5q0 -52 38 -84 t98.5 -47.5t134 -27t147 -30t134 -47.5t98.5 -88t38 -145q0 -148 -126 -234.5t-343 -86.5q-132 0 -256 36t-193 91zM141 1509h178l189 -155l188 155h178l-272 -266h-188z" />
<glyph unicode="&#x162;" horiz-adv-x="1202" d="M8 1255v179h1186v-179h-492v-1255h-51l-26 -102q87 -9 132.5 -54.5t45.5 -115.5q0 -86 -69 -136.5t-185 -50.5q-108 0 -182 45l43 101q60 -35 139 -35q115 0 115 82q0 37 -29 58.5t-88 21.5h-55l47 186h-39v1255h-492z" />
<glyph unicode="&#x163;" horiz-adv-x="847" d="M31 924v161h184v238h197v-238h311v-161h-311v-588q0 -88 44 -135t126 -47q90 0 153 51l62 -142q-41 -35 -102.5 -54t-127.5 -21l-24 -90q87 -9 132.5 -54.5t45.5 -115.5q0 -86 -69 -136.5t-185 -50.5q-108 0 -182 45l43 101q60 -35 139 -35q115 0 115 82q0 37 -29 58.5 t-88 21.5h-55l47 184q-117 25 -179.5 109.5t-62.5 220.5v596h-184z" />
<glyph unicode="&#x164;" horiz-adv-x="1202" d="M8 1255v179h1186v-179h-492v-1255h-202v1255h-492zM233 1817h179l188 -156l188 156h179l-273 -267h-188z" />
<glyph unicode="&#x165;" horiz-adv-x="847" d="M31 924v161h184v238h197v-238h311v-161h-311v-588q0 -88 44 -135t126 -47q90 0 153 51l62 -142q-87 -75 -238 -75q-165 0 -254.5 88t-89.5 252v596h-184zM584 1221v346h155l-22 -346h-133z" />
<glyph unicode="&#x166;" horiz-adv-x="1202" d="M8 1255v179h1186v-179h-492v-479h308v-162h-308v-614h-202v614h-310v162h310v479h-492z" />
<glyph unicode="&#x167;" horiz-adv-x="868" d="M41 924v161h184v238h197v-238h311v-161h-311v-267h289v-137h-289v-184q0 -88 44 -135t126 -47q90 0 153 51l62 -142q-87 -75 -238 -75q-165 0 -254.5 88t-89.5 252v192h-159v137h159v267h-184z" />
<glyph unicode="&#x168;" horiz-adv-x="1619" d="M203 618v816h205v-807q0 -461 403 -461q198 0 302 114t104 347v807h198v-816q0 -308 -159 -471t-447 -163q-287 0 -446.5 163t-159.5 471zM467 1567q3 114 57.5 182t143.5 68q44 0 87 -22t70 -48t58.5 -48t56.5 -22q44 0 72.5 33t31.5 90h111q-3 -110 -57.5 -177 t-143.5 -67q-44 0 -87 21.5t-70 47.5t-58.5 47.5t-56.5 21.5q-45 0 -73 -34t-31 -93h-111z" />
<glyph unicode="&#x169;" horiz-adv-x="1386" d="M176 461v624h197v-602q0 -158 76 -238.5t217 -80.5q156 0 245.5 94t89.5 266v561h197v-1085h-186v164q-60 -84 -156.5 -130t-212.5 -46q-217 0 -342 120t-125 353zM344 1260q3 114 57.5 181.5t143.5 67.5q36 0 70.5 -14.5t60.5 -35t49.5 -40.5t47 -34.5t44.5 -14.5 q45 0 73.5 33t31.5 90h110q-3 -110 -57.5 -177t-143.5 -67q-44 0 -87 21.5t-70 47t-58.5 47t-56.5 21.5q-45 0 -73 -33.5t-31 -92.5h-111z" />
<glyph unicode="&#x16a;" horiz-adv-x="1619" d="M203 618v816h205v-807q0 -461 403 -461q198 0 302 114t104 347v807h198v-816q0 -308 -159 -471t-447 -163q-287 0 -446.5 163t-159.5 471zM477 1622v123h668v-123h-668z" />
<glyph unicode="&#x16b;" horiz-adv-x="1386" d="M176 461v624h197v-602q0 -158 76 -238.5t217 -80.5q156 0 245.5 94t89.5 266v561h197v-1085h-186v164q-60 -84 -156.5 -130t-212.5 -46q-217 0 -342 120t-125 353zM354 1315v123h668v-123h-668z" />
<glyph unicode="&#x16c;" horiz-adv-x="1619" d="M203 618v816h205v-807q0 -461 403 -461q198 0 302 114t104 347v807h198v-816q0 -308 -159 -471t-447 -163q-287 0 -446.5 163t-159.5 471zM479 1817h133q3 -74 59.5 -119t139.5 -45t139.5 45t59.5 119h133q-4 -127 -97.5 -203t-234.5 -76t-234.5 76t-97.5 203z" />
<glyph unicode="&#x16d;" horiz-adv-x="1386" d="M176 461v624h197v-602q0 -158 76 -238.5t217 -80.5q156 0 245.5 94t89.5 266v561h197v-1085h-186v164q-60 -84 -156.5 -130t-212.5 -46q-217 0 -342 120t-125 353zM356 1509h133q3 -74 59.5 -118.5t139.5 -44.5t139.5 44.5t59.5 118.5h133q-4 -127 -97.5 -202.5 t-234.5 -75.5t-234.5 75.5t-97.5 202.5z" />
<glyph unicode="&#x16e;" horiz-adv-x="1619" d="M203 618v816h205v-807q0 -461 403 -461q198 0 302 114t104 347v807h198v-816q0 -308 -159 -471t-447 -163q-287 0 -446.5 163t-159.5 471zM584 1786q0 93 65 159t160 66q96 0 161.5 -66t65.5 -159t-65.5 -157t-161.5 -64q-95 0 -160 64t-65 157zM676 1786 q0 -58 37.5 -96.5t95.5 -38.5q59 0 97 38.5t38 96.5q0 59 -38.5 98t-96.5 39q-57 0 -95 -38.5t-38 -98.5z" />
<glyph unicode="&#x16f;" horiz-adv-x="1386" d="M176 461v624h197v-602q0 -158 76 -238.5t217 -80.5q156 0 245.5 94t89.5 266v561h197v-1085h-186v164q-60 -84 -156.5 -130t-212.5 -46q-217 0 -342 120t-125 353zM461 1438q0 93 65 159t160 66q96 0 161.5 -66t65.5 -159t-65.5 -157t-161.5 -64q-95 0 -160 64t-65 157z M553 1438q0 -58 37.5 -96.5t95.5 -38.5q59 0 97 38.5t38 96.5q0 59 -38.5 98t-96.5 39q-57 0 -95 -38.5t-38 -98.5z" />
<glyph unicode="&#x170;" horiz-adv-x="1619" d="M203 618v816h205v-807q0 -461 403 -461q198 0 302 114t104 347v807h198v-816q0 -308 -159 -471t-447 -163q-287 0 -446.5 163t-159.5 471zM549 1550l184 267h209l-227 -267h-166zM907 1550l183 267h206l-223 -267h-166z" />
<glyph unicode="&#x171;" horiz-adv-x="1386" d="M176 461v624h197v-602q0 -158 76 -238.5t217 -80.5q156 0 245.5 94t89.5 266v561h197v-1085h-186v164q-60 -84 -156.5 -130t-212.5 -46q-217 0 -342 120t-125 353zM426 1243l184 266h209l-227 -266h-166zM784 1243l183 266h207l-224 -266h-166z" />
<glyph unicode="&#x172;" horiz-adv-x="1619" d="M203 618v816h205v-807q0 -461 403 -461q198 0 302 114t104 347v807h198v-816q0 -471 -371 -602q-294 -104 -294 -254q0 -50 35 -78t92 -28q74 0 124 35l39 -101q-81 -49 -184 -49q-114 0 -180 57t-66 150q0 137 142 238q-260 15 -404.5 178t-144.5 454z" />
<glyph unicode="&#x173;" horiz-adv-x="1386" d="M176 461v624h197v-602q0 -158 76 -238.5t217 -80.5q156 0 245.5 94t89.5 266v561h197v-1085q-130 -58 -187 -116t-57 -122q0 -50 34.5 -78t90.5 -28q77 0 127 35l37 -101q-77 -49 -184 -49q-114 0 -180 57t-66 150q0 159 199 272v144q-60 -84 -156.5 -130t-212.5 -46 q-217 0 -342 120t-125 353z" />
<glyph unicode="&#x174;" horiz-adv-x="2306" d="M66 1434h210l388 -1166l403 1166h188l396 -1172l395 1172h195l-480 -1434h-215l-391 1145l-391 -1145h-219zM788 1550l273 267h188l273 -267h-179l-188 158l-188 -158h-179z" />
<glyph unicode="&#x175;" horiz-adv-x="1841" d="M12 1085h187l315 -864l328 864h166l321 -868l324 868h176l-406 -1085h-188l-313 823l-318 -823h-188zM549 1239l272 266h189l272 -266h-178l-189 158l-188 -158h-178z" />
<glyph unicode="&#x176;" horiz-adv-x="1325" d="M-8 1434h219l459 -756l460 756h203l-569 -938v-496h-203v500zM297 1550l272 267h189l272 -267h-178l-188 158l-189 -158h-178z" />
<glyph unicode="&#x177;" horiz-adv-x="1144" d="M-45 -309l84 147q83 -80 194 -80q72 0 120 38t87 130l35 76l-479 1083h205l379 -868l374 868h193l-526 -1194q-69 -165 -163 -233t-225 -68q-80 0 -154 26.5t-124 74.5zM178 1243l273 266h188l272 -266h-178l-188 158l-189 -158h-178z" />
<glyph unicode="&#x178;" horiz-adv-x="1325" d="M-8 1434h219l459 -756l460 756h203l-569 -938v-496h-203v500zM369 1690q0 45 30.5 75.5t73.5 30.5t74 -30.5t31 -75.5t-31 -75t-74 -30t-73.5 30t-30.5 75zM750 1690q0 45 30.5 75.5t73.5 30.5t73.5 -30.5t30.5 -75.5t-30.5 -75t-73.5 -30t-73.5 30t-30.5 75z" />
<glyph unicode="&#x179;" horiz-adv-x="1345" d="M88 0v139l901 1116h-887v179h1158v-140l-898 -1116h924v-178h-1198zM535 1550l278 267h250l-344 -267h-184z" />
<glyph unicode="&#x17a;" horiz-adv-x="1067" d="M82 0v127l641 797h-629v161h881v-129l-641 -794h657v-162h-909zM383 1243l279 266h249l-344 -266h-184z" />
<glyph unicode="&#x17b;" horiz-adv-x="1345" d="M88 0v139l901 1116h-887v179h1158v-140l-898 -1116h924v-178h-1198zM567 1708q0 51 35 86t86 35t86 -35t35 -86q0 -52 -35 -86.5t-86 -34.5t-86 34.5t-35 86.5z" />
<glyph unicode="&#x17c;" horiz-adv-x="1067" d="M82 0v127l641 797h-629v161h881v-129l-641 -794h657v-162h-909zM416 1401q0 51 35 86t86 35t85.5 -35t34.5 -86q0 -52 -34.5 -86.5t-85.5 -34.5t-86 34.5t-35 86.5z" />
<glyph unicode="&#x17d;" horiz-adv-x="1345" d="M88 0v139l901 1116h-887v179h1158v-140l-898 -1116h924v-178h-1198zM322 1817h178l188 -156l189 156h178l-273 -267h-188z" />
<glyph unicode="&#x17e;" horiz-adv-x="1067" d="M82 0v127l641 797h-629v161h881v-129l-641 -794h657v-162h-909zM170 1509h178l189 -155l188 155h178l-272 -266h-189z" />
<glyph unicode="&#x17f;" horiz-adv-x="626" d="M51 924v161h185v97q0 161 93.5 255.5t264.5 94.5q139 0 221 -64l-59 -149q-67 51 -152 51q-84 0 -128 -48.5t-44 -141.5v-1180h-196v924h-185z" />
<glyph unicode="&#x18f;" horiz-adv-x="1673" d="M98 725v57h1270q-22 211 -176 348.5t-369 137.5q-276 0 -450 -168l-123 141q102 99 252 154t323 55q214 0 385.5 -94.5t268 -262t96.5 -374.5q0 -156 -56 -292.5t-153.5 -233.5t-234.5 -153t-293 -56q-210 0 -379.5 95.5t-265 265t-95.5 380.5zM309 608 q32 -205 175 -326.5t354 -121.5t353 122t173 326h-1055z" />
<glyph unicode="&#x192;" horiz-adv-x="919" d="M-188 -342l73 149q60 -51 150 -51q79 0 129.5 49.5t60.5 141.5l119 950h-186l20 162h187l14 123q19 160 122 255t267 95q65 0 125.5 -17.5t97.5 -50.5l-76 -149q-57 51 -143 51q-88 0 -139.5 -48t-63.5 -142l-14 -117h315l-18 -162h-311l-119 -956q-19 -161 -119.5 -256 t-259.5 -95q-154 0 -231 68z" />
<glyph unicode="&#x1a0;" horiz-adv-x="1720" d="M98 717q0 208 99.5 376t275.5 262.5t395 94.5q88 0 214.5 -14.5t179.5 -14.5q194 0 194 150q0 65 -41 127l123 49q57 -83 57 -184q0 -113 -67 -181.5t-193 -83.5q133 -95 210 -248t77 -333q0 -208 -98.5 -376t-272.5 -262.5t-389 -94.5q-162 0 -304.5 56t-243 153 t-158.5 233t-58 291zM303 717q0 -236 160 -393.5t399 -157.5q238 0 396.5 157.5t158.5 393.5t-158.5 393.5t-396.5 157.5q-239 0 -399 -157.5t-160 -393.5z" />
<glyph unicode="&#x1a1;" horiz-adv-x="1300" d="M86 543q0 242 160 397.5t407 155.5q57 0 130.5 -6.5t117.5 -6.5q76 0 116 39t40 99q0 69 -43 129l123 47q59 -83 59 -183q0 -89 -46 -152t-132 -91q94 -75 145 -185t51 -243q0 -160 -72.5 -287t-201 -197.5t-289.5 -70.5q-245 0 -405 156.5t-160 398.5zM285 543 q0 -171 103.5 -277t262.5 -106q158 0 261.5 106t103.5 277t-103 276t-262 105t-262.5 -105t-103.5 -276z" />
<glyph unicode="&#x1af;" horiz-adv-x="1636" d="M203 618v816h205v-807q0 -461 403 -461q198 0 302 114t104 347v807h135q65 0 98 36.5t33 96.5q0 75 -41 129l125 47q57 -77 57 -182q0 -108 -55 -180t-154 -91v-672q0 -308 -159 -471t-447 -163q-287 0 -446.5 163t-159.5 471z" />
<glyph unicode="&#x1b0;" horiz-adv-x="1402" d="M176 461v624h197v-602q0 -158 76 -238.5t217 -80.5q156 0 245.5 94t89.5 266v561h101q65 0 98 37t33 97q0 75 -41 129l125 47q57 -77 57 -183q0 -99 -46 -168t-130 -94v-950h-186v164q-60 -84 -156.5 -130t-212.5 -46q-217 0 -342 120t-125 353z" />
<glyph unicode="&#x1b7;" horiz-adv-x="1275" d="M63 156l76 161q78 -71 201.5 -113t263.5 -42q174 0 269.5 69t95.5 191q0 118 -94.5 184t-284.5 66h-119v141l393 447h-745v174h989v-140l-410 -465q232 -15 355 -124.5t123 -282.5q0 -93 -36 -171.5t-104.5 -138.5t-178.5 -94t-249 -34q-165 0 -312 46.5t-233 125.5z" />
<glyph unicode="&#x1c4;" horiz-adv-x="2977" d="M215 0v1434h604q228 0 404 -90t273 -253t97 -374t-97 -374t-273 -253t-404 -90h-604zM420 178h387q264 0 423 148t159 391q0 242 -159 390t-423 148h-387v-1077zM1710 0v139l901 1116h-887v179h1158v-140l-897 -1116h923v-178h-1198zM1944 1817h178l188 -156l189 156h178 l-273 -267h-188z" />
<glyph unicode="&#x1c5;" horiz-adv-x="2758" d="M215 0v1434h604q228 0 404 -90t273 -253t97 -374t-97 -374t-273 -253t-404 -90h-604zM420 178h387q264 0 423 148t159 391q0 242 -159 390t-423 148h-387v-1077zM1774 0v127l641 797h-629v161h880v-129l-641 -794h658v-162h-909zM1862 1509h178l188 -155l189 155h178 l-273 -266h-188z" />
<glyph unicode="&#x1c6;" horiz-adv-x="2480" d="M86 543q0 247 154.5 400t394.5 153q245 0 379 -174v598h196v-1520h-188v172q-65 -91 -165 -137.5t-222 -46.5q-240 0 -394.5 154t-154.5 401zM285 543q0 -171 103.5 -277t262.5 -106q158 0 261.5 106t103.5 277t-103.5 276t-261.5 105q-159 0 -262.5 -105t-103.5 -276z M1473 0v127l641 797h-629v161h880v-129l-641 -794h658v-162h-909zM1561 1509h178l188 -155l189 155h178l-273 -266h-188z" />
<glyph unicode="&#x1c7;" horiz-adv-x="2267" d="M215 0v1434h205v-1256h776v-178h-981zM1198 190l119 140q119 -170 299 -170q246 0 246 291v804h-519v179h721v-973q0 -238 -113.5 -357.5t-334.5 -119.5q-129 0 -239.5 53.5t-178.5 152.5z" />
<glyph unicode="&#x1c8;" horiz-adv-x="1798" d="M215 0v1434h205v-1256h776v-178h-981zM1028 -344l64 151q60 -51 159 -51q78 0 120 49t42 142v1138h197v-1134q0 -168 -90.5 -264.5t-255.5 -96.5q-155 0 -236 66zM1378 1421q0 54 38 91.5t95 37.5t95.5 -36t38.5 -89q0 -56 -38 -93.5t-96 -37.5q-57 0 -95 36.5t-38 90.5z " />
<glyph unicode="&#x1c9;" horiz-adv-x="1153" d="M186 0v1520h197v-1520h-197zM383 -344l63 151q60 -51 160 -51q78 0 120 49t42 142v1138h197v-1134q0 -168 -91 -264.5t-256 -96.5q-154 0 -235 66zM733 1421q0 54 38 91.5t95 37.5t95 -36t38 -89q0 -56 -37.5 -93.5t-95.5 -37.5q-57 0 -95 36.5t-38 90.5z" />
<glyph unicode="&#x1ca;" horiz-adv-x="2713" d="M215 0v1434h168l860 -1069v1069h205v-1434h-168l-860 1069v-1069h-205zM1645 190l118 140q119 -170 299 -170q246 0 246 291v804h-518v179h721v-973q0 -238 -114 -357.5t-335 -119.5q-129 0 -239 53.5t-178 152.5z" />
<glyph unicode="&#x1cb;" horiz-adv-x="2244" d="M215 0v1434h168l860 -1069v1069h205v-1434h-168l-860 1069v-1069h-205zM1475 -344l63 151q60 -51 160 -51q78 0 120 49t42 142v1138h196v-1134q0 -168 -90.5 -264.5t-255.5 -96.5q-154 0 -235 66zM1825 1421q0 54 38 91.5t95 37.5t95 -36t38 -89q0 -56 -37.5 -93.5 t-95.5 -37.5q-57 0 -95 36.5t-38 90.5z" />
<glyph unicode="&#x1cc;" horiz-adv-x="1976" d="M186 0v1085h189v-163q60 84 161 129t230 45q206 0 328.5 -119.5t122.5 -351.5v-625h-197v602q0 158 -76 238t-217 80q-160 0 -252 -93.5t-92 -267.5v-559h-197zM1206 -344l64 151q60 -51 160 -51q78 0 119.5 49t41.5 142v1138h197v-1134q0 -168 -90.5 -264.5 t-255.5 -96.5q-155 0 -236 66zM1556 1421q0 54 38.5 91.5t95.5 37.5t95 -36t38 -89q0 -56 -37.5 -93.5t-95.5 -37.5q-57 0 -95.5 36.5t-38.5 90.5z" />
<glyph unicode="&#x1cd;" horiz-adv-x="1499" d="M-2 0l649 1434h203l651 -1434h-215l-158 358h-761l-158 -358h-211zM383 1817h178l189 -156l188 156h178l-272 -267h-189zM438 522h619l-309 703z" />
<glyph unicode="&#x1ce;" horiz-adv-x="1224" d="M102 307q0 68 23.5 123.5t73 100t136 69.5t204.5 25h311v39q0 126 -73.5 194t-217.5 68q-97 0 -189 -31.5t-155 -85.5l-82 147q85 67 201.5 103.5t247.5 36.5q226 0 345.5 -110.5t119.5 -330.5v-655h-187v143q-104 -155 -356 -155q-183 0 -292.5 88.5t-109.5 230.5z M229 1509h179l188 -155l188 155h179l-273 -266h-188zM297 315q0 -82 64 -129t176 -47q111 0 194 50t119 143v151h-303q-250 0 -250 -168z" />
<glyph unicode="&#x1d3;" horiz-adv-x="1619" d="M203 618v816h205v-807q0 -461 403 -461q198 0 302 114t104 347v807h198v-816q0 -308 -159 -471t-447 -163q-287 0 -446.5 163t-159.5 471zM444 1817h179l188 -156l188 156h179l-273 -267h-188z" />
<glyph unicode="&#x1d4;" horiz-adv-x="1386" d="M176 461v624h197v-602q0 -158 76 -238.5t217 -80.5q156 0 245.5 94t89.5 266v561h197v-1085h-186v164q-60 -84 -156.5 -130t-212.5 -46q-217 0 -342 120t-125 353zM322 1509h178l188 -155l189 155h178l-273 -266h-188z" />
<glyph unicode="&#x1e4;" horiz-adv-x="1652" d="M98 717q0 209 99 377t274.5 262t394.5 94q171 0 312 -56.5t239 -164.5l-127 -127q-172 166 -416 166q-249 0 -410 -156t-161 -395q0 -156 73 -282t203.5 -197.5t292.5 -71.5q194 0 336 92v148h-387v161h387v158h197v-158h201v-161h-201v-240q-105 -89 -247 -135.5 t-296 -46.5q-163 0 -305 55.5t-242.5 152t-158.5 232.5t-58 293z" />
<glyph unicode="&#x1e5;" horiz-adv-x="1429" d="M86 594q0 222 157 362t394 140q125 0 229.5 -43t171.5 -127v159h187v-938q0 -76 -8 -131h139v-135h-174q-111 -291 -520 -291q-153 0 -292.5 42t-226.5 120l95 152q76 -65 187 -103.5t230 -38.5q220 0 308 119h-381v133l436 2q10 55 10 111v123q-140 -162 -391 -162 q-237 0 -394 141.5t-157 364.5zM285 594q0 -152 104.5 -246t269.5 -94q164 0 268.5 94.5t104.5 245.5q0 150 -104.5 244t-268.5 94q-165 0 -269.5 -94t-104.5 -244z" />
<glyph unicode="&#x1e6;" horiz-adv-x="1581" d="M98 717q0 209 99 377t274.5 262t394.5 94q171 0 312 -56.5t239 -164.5l-127 -127q-172 166 -416 166q-249 0 -410 -156t-161 -395q0 -156 73 -282t203.5 -197.5t292.5 -71.5q194 0 336 92v467h197v-559q-105 -89 -247 -135.5t-296 -46.5q-163 0 -305 55.5t-242.5 152 t-158.5 232.5t-58 293zM473 1817h178l189 -156l188 156h178l-272 -267h-189z" />
<glyph unicode="&#x1e7;" horiz-adv-x="1413" d="M86 571q0 154 72.5 274t197.5 185.5t281 65.5q124 0 228.5 -45t172.5 -133v167h187v-938q0 -284 -141.5 -420.5t-421.5 -136.5q-153 0 -292.5 42t-226.5 120l95 152q76 -65 187 -103.5t230 -38.5q191 0 282 90t91 275v86q-69 -83 -170.5 -125.5t-220.5 -42.5 q-237 0 -394 147t-157 379zM285 571q0 -156 104.5 -255t269.5 -99q163 0 268 99t105 255q0 157 -104.5 255t-268.5 98q-165 0 -269.5 -98t-104.5 -255zM307 1509h178l189 -155l188 155h178l-272 -266h-188z" />
<glyph unicode="&#x1e8;" horiz-adv-x="1472" d="M215 0v1434h205v-801l778 801h234l-613 -646l651 -788h-239l-549 637l-262 -266v-371h-205zM401 1817h179l188 -156l188 156h179l-273 -267h-188z" />
<glyph unicode="&#x1e9;" horiz-adv-x="1261" d="M-82 1944h178l189 -156l188 156h178l-272 -267h-189zM186 0v1520h197v-975l592 540h237l-456 -448l501 -637h-241l-408 506l-225 -209v-297h-197z" />
<glyph unicode="&#x1ea;" horiz-adv-x="1720" d="M98 717q0 156 58 292t159 233t243 152.5t304 55.5q215 0 389 -94.5t272.5 -262.5t98.5 -376q0 -135 -42.5 -254.5t-117.5 -208t-174.5 -151t-214.5 -91.5q-138 -37 -219.5 -104t-81.5 -146q0 -50 35 -78t92 -28q75 0 125 35l39 -101q-77 -49 -184 -49q-114 0 -180 57 t-66 150q0 138 143 240q-296 28 -487 232t-191 497zM303 717q0 -238 159 -394.5t400 -156.5q238 0 396.5 157t158.5 394t-158.5 394t-396.5 157q-241 0 -400 -156.5t-159 -394.5z" />
<glyph unicode="&#x1eb;" horiz-adv-x="1300" d="M86 543q0 242 160 397.5t405 155.5t404 -155.5t159 -397.5q0 -177 -87.5 -311t-241.5 -199q-158 -69 -219.5 -135.5t-61.5 -133.5q0 -51 35 -79.5t92 -28.5q75 0 125 35l39 -101q-81 -49 -184 -49q-114 0 -180 56t-66 147q0 143 141 246q-228 15 -374 168.5t-146 384.5z M285 543q0 -171 103.5 -277t262.5 -106t262 106t103 277t-103 276t-262 105t-262.5 -105t-103.5 -276z" />
<glyph unicode="&#x1ee;" horiz-adv-x="1275" d="M63 156l76 161q78 -71 201.5 -113t263.5 -42q174 0 269.5 69t95.5 191q0 118 -94.5 184t-284.5 66h-119v141l393 447h-745v174h989v-140l-410 -465q232 -15 355 -124.5t123 -282.5q0 -93 -36 -171.5t-104.5 -138.5t-178.5 -94t-249 -34q-165 0 -312 46.5t-233 125.5z M252 1817h178l188 -156l189 156h178l-272 -267h-189z" />
<glyph unicode="&#x1ef;" horiz-adv-x="1079" d="M-41 -231l76 163q72 -73 187 -117t245 -44q165 0 253.5 70.5t88.5 197.5q0 124 -87 194t-263 70h-117v139l373 469h-705v174h940v-141l-385 -483q219 -17 333 -129.5t114 -292.5q0 -197 -139 -324t-398 -127q-155 0 -293.5 49t-222.5 132zM96 1509h178l189 -155l188 155 h178l-272 -266h-188z" />
<glyph unicode="&#x1fa;" horiz-adv-x="1499" d="M-2 0l649 1434h203l651 -1434h-215l-158 358h-761l-158 -358h-211zM438 522h619l-309 703zM522 1786q0 93 65.5 159t160.5 66q57 0 110 -29l172 175l103 -84l-197 -158q39 -58 39 -129q0 -93 -65.5 -157t-161.5 -64q-95 0 -160.5 64.5t-65.5 156.5zM614 1786 q0 -57 38 -96t96 -39q59 0 97 38.5t38 96.5q0 59 -38.5 98t-96.5 39q-57 0 -95.5 -38.5t-38.5 -98.5z" />
<glyph unicode="&#x1fb;" horiz-adv-x="1224" d="M102 307q0 68 23.5 123.5t73 100t136 69.5t204.5 25h311v39q0 126 -73.5 194t-217.5 68q-97 0 -189 -31.5t-155 -85.5l-82 147q85 67 201.5 103.5t247.5 36.5q226 0 345.5 -110.5t119.5 -330.5v-655h-187v143q-104 -155 -356 -155q-183 0 -292.5 88.5t-109.5 230.5z M297 315q0 -82 64 -129t176 -47q111 0 194 50t119 143v151h-303q-250 0 -250 -168zM369 1438q0 93 65 159t160 66q58 0 111 -29l172 174l102 -84l-197 -157q39 -58 39 -129q0 -93 -65.5 -157t-161.5 -64q-95 0 -160 64t-65 157zM461 1438q0 -58 37.5 -96.5t95.5 -38.5 q59 0 97 38.5t38 96.5q0 59 -38.5 98t-96.5 39q-57 0 -95 -38.5t-38 -98.5z" />
<glyph unicode="&#x1fc;" horiz-adv-x="2144" d="M-2 0l854 1434h1149v-179h-809v-440h719v-174h-719v-463h838v-178h-1041v358h-569l-211 -358h-211zM516 522h473v733h-41zM936 1550l278 267h250l-344 -267h-184z" />
<glyph unicode="&#x1fd;" horiz-adv-x="2025" d="M102 315q0 64 23.5 117.5t73 97.5t136.5 68.5t204 24.5h311v41q0 126 -73 194t-216 68q-98 0 -190.5 -31.5t-155.5 -85.5l-82 147q84 67 201.5 103.5t245.5 36.5q300 0 403 -193q72 91 180 142t236 51q234 0 387 -155t153 -392q0 -41 -6 -68h-884q17 -146 123.5 -233.5 t269.5 -87.5q191 0 313 131l111 -127q-150 -176 -430 -176q-152 0 -275 54.5t-203 164.5q-63 -115 -178.5 -167t-255.5 -52q-196 0 -309 89.5t-113 237.5zM297 319q0 -86 64.5 -133t179.5 -47q143 0 226 74.5t83 198.5v69h-303q-250 0 -250 -162zM795 1243l278 266h250 l-344 -266h-184zM1051 623h694q-17 143 -116.5 225t-231.5 82q-131 0 -229.5 -81.5t-116.5 -225.5z" />
<glyph unicode="&#x1fe;" horiz-adv-x="1720" d="M98 717q0 155 58 291t158.5 233t243 153t304.5 56q206 0 381 -90l156 217h160l-207 -289q128 -100 199 -247.5t71 -323.5q0 -208 -98.5 -376t-272.5 -262.5t-389 -94.5q-206 0 -381 90l-155 -217h-160l205 286q-129 102 -201 250.5t-72 323.5zM303 717 q0 -127 47.5 -234.5t134.5 -181.5l645 903q-122 64 -268 64q-241 0 -400 -156.5t-159 -394.5zM592 229q123 -63 270 -63q238 0 396.5 157t158.5 394q0 126 -46.5 232t-131.5 181zM709 1550l278 267h250l-344 -267h-184z" />
<glyph unicode="&#x1ff;" horiz-adv-x="1300" d="M86 543q0 242 160 397.5t405 155.5q147 0 267 -60l122 189h121l-157 -240q100 -75 155 -189t55 -253q0 -160 -72.5 -287t-201 -197.5t-289.5 -70.5q-146 0 -264 59l-127 -192h-123l162 245q-101 74 -157 189t-56 254zM285 543q0 -182 116 -289l416 633q-73 37 -166 37 q-159 0 -262.5 -105t-103.5 -276zM485 197q73 -37 166 -37q159 0 262 106t103 277q0 181 -115 286zM492 1243l278 266h250l-344 -266h-184z" />
<glyph unicode="&#x200;" horiz-adv-x="1499" d="M-2 0l649 1434h203l651 -1434h-215l-158 358h-761l-158 -358h-211zM264 1817h207l182 -267h-166zM438 522h619l-309 703zM618 1817h209l185 -267h-166z" />
<glyph unicode="&#x201;" horiz-adv-x="1224" d="M102 307q0 68 23.5 123.5t73 100t136 69.5t204.5 25h311v39q0 126 -73.5 194t-217.5 68q-97 0 -189 -31.5t-155 -85.5l-82 147q85 67 201.5 103.5t247.5 36.5q226 0 345.5 -110.5t119.5 -330.5v-655h-187v143q-104 -155 -356 -155q-183 0 -292.5 88.5t-109.5 230.5z M111 1509h206l183 -266h-166zM297 315q0 -82 64 -129t176 -47q111 0 194 50t119 143v151h-303q-250 0 -250 -168zM465 1509h209l184 -266h-166z" />
<glyph unicode="&#x202;" horiz-adv-x="1499" d="M-2 0l649 1434h203l651 -1434h-215l-158 358h-761l-158 -358h-211zM418 1550q4 127 97.5 203t234.5 76t234 -76t97 -203h-133q-3 75 -58.5 119.5t-139.5 44.5t-140 -44.5t-59 -119.5h-133zM438 522h619l-309 703z" />
<glyph unicode="&#x203;" horiz-adv-x="1224" d="M102 307q0 68 23.5 123.5t73 100t136 69.5t204.5 25h311v39q0 126 -73.5 194t-217.5 68q-97 0 -189 -31.5t-155 -85.5l-82 147q85 67 201.5 103.5t247.5 36.5q226 0 345.5 -110.5t119.5 -330.5v-655h-187v143q-104 -155 -356 -155q-183 0 -292.5 88.5t-109.5 230.5z M264 1243q4 127 97.5 203t234.5 76t234.5 -76t97.5 -203h-133q-3 75 -59 119.5t-140 44.5t-140 -44.5t-59 -119.5h-133zM297 315q0 -82 64 -129t176 -47q111 0 194 50t119 143v151h-303q-250 0 -250 -168z" />
<glyph unicode="&#x204;" horiz-adv-x="1372" d="M215 0v1434h1012v-179h-807v-440h719v-174h-719v-463h835v-178h-1040zM238 1817h206l183 -267h-166zM592 1817h209l184 -267h-166z" />
<glyph unicode="&#x205;" d="M86 543q0 159 70.5 285.5t195 197t279.5 70.5q236 0 386 -155t150 -404q0 -24 -4 -60h-880q19 -143 126 -230t267 -87q194 0 313 131l109 -127q-150 -176 -428 -176q-261 0 -422.5 155t-161.5 400zM143 1509h207l182 -266h-165zM283 618h696q-15 138 -111 225t-237 87 t-237 -87t-111 -225zM498 1509h209l184 -266h-166z" />
<glyph unicode="&#x206;" horiz-adv-x="1372" d="M215 0v1434h1012v-179h-807v-440h719v-174h-719v-463h835v-178h-1040zM391 1550q4 127 97.5 203t234.5 76t234.5 -76t97.5 -203h-133q-3 75 -59 119.5t-140 44.5t-140 -44.5t-59 -119.5h-133z" />
<glyph unicode="&#x207;" d="M86 543q0 159 70.5 285.5t195 197t279.5 70.5q236 0 386 -155t150 -404q0 -24 -4 -60h-880q19 -143 126 -230t267 -87q194 0 313 131l109 -127q-150 -176 -428 -176q-261 0 -422.5 155t-161.5 400zM283 618h696q-15 138 -111 225t-237 87t-237 -87t-111 -225zM297 1243 q4 127 97.5 203t234.5 76t234.5 -76t97.5 -203h-134q-3 75 -58.5 119.5t-139.5 44.5t-140 -44.5t-59 -119.5h-133z" />
<glyph unicode="&#x208;" horiz-adv-x="634" d="M-168 1817h207l182 -267h-166zM186 1817h209l185 -267h-166zM215 0v1434h205v-1434h-205z" />
<glyph unicode="&#x209;" horiz-adv-x="571" d="M-201 1509h207l182 -266h-165zM154 1509h208l185 -266h-166zM186 0v1085h197v-1085h-197z" />
<glyph unicode="&#x20a;" horiz-adv-x="634" d="M-14 1550q4 127 97 203t234 76t234.5 -76t97.5 -203h-133q-3 75 -59 119.5t-140 44.5t-139.5 -44.5t-58.5 -119.5h-133zM215 0v1434h205v-1434h-205z" />
<glyph unicode="&#x20b;" horiz-adv-x="571" d="M4 1243q0 127 79.5 203t201.5 76t201 -76t79 -203h-127q0 76 -41 120t-112 44t-112.5 -44t-41.5 -120h-127zM186 0v1085h197v-1085h-197z" />
<glyph unicode="&#x20c;" horiz-adv-x="1720" d="M98 717q0 155 58 291t158.5 233t243 153t304.5 56q215 0 389 -94.5t272.5 -262.5t98.5 -376t-98.5 -376t-272.5 -262.5t-389 -94.5q-162 0 -304.5 56t-243 153t-158.5 233t-58 291zM303 717q0 -238 159 -394.5t400 -156.5q238 0 396.5 157t158.5 394t-158.5 394 t-396.5 157q-241 0 -400 -156.5t-159 -394.5zM377 1817h207l182 -267h-166zM731 1817h209l184 -267h-166z" />
<glyph unicode="&#x20d;" horiz-adv-x="1300" d="M86 543q0 242 160 397.5t405 155.5t404 -155.5t159 -397.5q0 -160 -72.5 -287t-201 -197.5t-289.5 -70.5q-245 0 -405 156.5t-160 398.5zM164 1509h207l182 -266h-166zM285 543q0 -171 103.5 -277t262.5 -106t262 106t103 277t-103 276t-262 105t-262.5 -105t-103.5 -276 zM518 1509h209l184 -266h-166z" />
<glyph unicode="&#x20e;" horiz-adv-x="1720" d="M98 717q0 155 58 291t158.5 233t243 153t304.5 56q215 0 389 -94.5t272.5 -262.5t98.5 -376t-98.5 -376t-272.5 -262.5t-389 -94.5q-162 0 -304.5 56t-243 153t-158.5 233t-58 291zM303 717q0 -238 159 -394.5t400 -156.5q238 0 396.5 157t158.5 394t-158.5 394 t-396.5 157q-241 0 -400 -156.5t-159 -394.5zM530 1550q4 127 97.5 203t234.5 76t234.5 -76t97.5 -203h-133q-3 75 -59 119.5t-140 44.5t-139.5 -44.5t-58.5 -119.5h-134z" />
<glyph unicode="&#x20f;" horiz-adv-x="1300" d="M86 543q0 242 160 397.5t405 155.5t404 -155.5t159 -397.5q0 -160 -72.5 -287t-201 -197.5t-289.5 -70.5q-245 0 -405 156.5t-160 398.5zM285 543q0 -171 103.5 -277t262.5 -106t262 106t103 277t-103 276t-262 105t-262.5 -105t-103.5 -276zM317 1243q4 127 97.5 203 t234.5 76t234.5 -76t97.5 -203h-133q-3 75 -59 119.5t-140 44.5t-139.5 -44.5t-58.5 -119.5h-134z" />
<glyph unicode="&#x210;" horiz-adv-x="1488" d="M215 0v1434h559q280 0 439 -133.5t159 -366.5q0 -165 -82 -282t-233 -171l340 -481h-223l-310 440q-58 -4 -90 -4h-354v-436h-205zM274 1817h207l183 -267h-166zM420 610h348q195 0 297 84.5t102 239.5t-102 238t-297 83h-348v-645zM629 1817h209l184 -267h-166z" />
<glyph unicode="&#x211;" horiz-adv-x="839" d="M-6 1509h207l182 -266h-166zM186 0v1085h189v-182q106 193 395 193v-191q-16 2 -45 2q-160 0 -251 -95t-91 -271v-541h-197zM348 1509h209l184 -266h-166z" />
<glyph unicode="&#x212;" horiz-adv-x="1488" d="M215 0v1434h559q280 0 439 -133.5t159 -366.5q0 -165 -82 -282t-233 -171l340 -481h-223l-310 440q-58 -4 -90 -4h-354v-436h-205zM420 610h348q195 0 297 84.5t102 239.5t-102 238t-297 83h-348v-645zM428 1550q4 127 97.5 203t234.5 76t234.5 -76t97.5 -203h-134 q-3 75 -58.5 119.5t-139.5 44.5t-140 -44.5t-59 -119.5h-133z" />
<glyph unicode="&#x213;" horiz-adv-x="839" d="M147 1243q4 127 97.5 203t234.5 76t234.5 -76t97.5 -203h-133q-3 75 -59 119.5t-140 44.5t-139.5 -44.5t-58.5 -119.5h-134zM186 0v1085h189v-182q106 193 395 193v-191q-16 2 -45 2q-160 0 -251 -95t-91 -271v-541h-197z" />
<glyph unicode="&#x214;" horiz-adv-x="1619" d="M203 618v816h205v-807q0 -461 403 -461q198 0 302 114t104 347v807h198v-816q0 -308 -159 -471t-447 -163q-287 0 -446.5 163t-159.5 471zM326 1817h206l183 -267h-166zM680 1817h209l184 -267h-166z" />
<glyph unicode="&#x215;" horiz-adv-x="1386" d="M176 461v624h197v-602q0 -158 76 -238.5t217 -80.5q156 0 245.5 94t89.5 266v561h197v-1085h-186v164q-60 -84 -156.5 -130t-212.5 -46q-217 0 -342 120t-125 353zM203 1509h207l182 -266h-166zM557 1509h209l184 -266h-166z" />
<glyph unicode="&#x216;" horiz-adv-x="1619" d="M203 618v816h205v-807q0 -461 403 -461q198 0 302 114t104 347v807h198v-816q0 -308 -159 -471t-447 -163q-287 0 -446.5 163t-159.5 471zM479 1550q4 127 97.5 203t234.5 76t234.5 -76t97.5 -203h-133q-3 75 -59 119.5t-140 44.5t-140 -44.5t-59 -119.5h-133z" />
<glyph unicode="&#x217;" horiz-adv-x="1386" d="M176 461v624h197v-602q0 -158 76 -238.5t217 -80.5q156 0 245.5 94t89.5 266v561h197v-1085h-186v164q-60 -84 -156.5 -130t-212.5 -46q-217 0 -342 120t-125 353zM356 1243q4 127 97.5 203t234.5 76t234.5 -76t97.5 -203h-133q-3 75 -59 119.5t-140 44.5t-140 -44.5 t-59 -119.5h-133z" />
<glyph unicode="&#x218;" horiz-adv-x="1271" d="M84 164l76 160q81 -74 209.5 -120t263.5 -46q178 0 266 61t88 160q0 71 -48 118.5t-124.5 73.5t-169 47t-185 49.5t-169 69.5t-124.5 118t-48 185q0 85 33.5 158t99 130t172.5 89.5t244 32.5q128 0 250 -33t210 -94l-67 -164q-183 117 -393 117q-174 0 -261.5 -63.5 t-87.5 -163.5q0 -56 29.5 -97t80 -66.5t115.5 -45.5t137.5 -37t144.5 -36t137 -49.5t115.5 -71.5t80 -106t29.5 -149t-34 -156.5t-100.5 -129t-174.5 -89t-246 -32.5q-162 0 -312 50t-237 130zM555 -287q0 42 28.5 68t75.5 26t76 -27t29 -67q0 -46 -27 -104l-61 -148h-103 l48 164q-31 9 -48.5 32.5t-17.5 55.5z" />
<glyph unicode="&#x219;" horiz-adv-x="1026" d="M49 115l82 155q70 -50 173.5 -81t207.5 -31q258 0 258 147q0 49 -38 79.5t-98.5 44.5t-133.5 25t-146 29t-133.5 48t-98.5 90.5t-38 148.5q0 147 122.5 236.5t330.5 89.5q107 0 216 -27t179 -72l-84 -155q-134 86 -313 86q-125 0 -190.5 -41.5t-65.5 -108.5q0 -52 38 -84 t98.5 -47.5t134 -27t147 -30t134 -47.5t98.5 -88t38 -145q0 -148 -126 -234.5t-343 -86.5q-132 0 -256 36t-193 91zM403 -287q0 41 29 67.5t76 26.5q46 0 75 -27t29 -67q0 -48 -26 -104l-62 -148h-102l47 164q-31 9 -48.5 32.5t-17.5 55.5z" />
<glyph unicode="&#x21a;" horiz-adv-x="1202" d="M8 1255v179h1186v-179h-492v-1255h-202v1255h-492zM496 -287q0 42 28.5 68t75.5 26t76 -27t29 -67q0 -46 -27 -104l-62 -148h-102l47 164q-31 9 -48 32.5t-17 55.5z" />
<glyph unicode="&#x21b;" horiz-adv-x="847" d="M31 924v161h184v238h197v-238h311v-161h-311v-588q0 -88 44 -135t126 -47q90 0 153 51l62 -142q-87 -75 -238 -75q-165 0 -254.5 88t-89.5 252v596h-184zM414 -287q0 42 28.5 68t75.5 26t76 -27t29 -67q0 -46 -27 -104l-61 -148h-103l47 164q-31 9 -48 32.5t-17 55.5z " />
<glyph unicode="&#x21e;" horiz-adv-x="1662" d="M215 0v1434h205v-617h823v617h205v-1434h-205v639h-823v-639h-205zM463 1817h178l188 -156l189 156h178l-272 -267h-189z" />
<glyph unicode="&#x21f;" horiz-adv-x="1394" d="M-82 1944h178l189 -156l188 156h178l-272 -267h-189zM186 0v1520h197v-588q62 79 160.5 121.5t222.5 42.5q206 0 328.5 -119.5t122.5 -351.5v-625h-197v602q0 158 -76 238t-217 80q-160 0 -252 -93.5t-92 -267.5v-559h-197z" />
<glyph unicode="&#x22a;" horiz-adv-x="1720" d="M98 717q0 155 58 291t158.5 233t243 153t304.5 56q215 0 389 -94.5t272.5 -262.5t98.5 -376t-98.5 -376t-272.5 -262.5t-389 -94.5q-162 0 -304.5 56t-243 153t-158.5 233t-58 291zM303 717q0 -238 159 -394.5t400 -156.5q238 0 396.5 157t158.5 394t-158.5 394 t-396.5 157q-241 0 -400 -156.5t-159 -394.5zM528 1886v117h668v-117h-668zM575 1688q0 42 30 71t73 29q42 0 71 -29t29 -71q0 -44 -29 -73.5t-71 -29.5q-43 0 -73 29.5t-30 73.5zM948 1688q0 42 30 71t71 29q42 0 72 -29t30 -71q0 -44 -30 -73.5t-72 -29.5q-41 0 -71 30 t-30 73z" />
<glyph unicode="&#x22b;" horiz-adv-x="1300" d="M86 543q0 242 160 397.5t405 155.5t404 -155.5t159 -397.5q0 -160 -72.5 -287t-201 -197.5t-289.5 -70.5q-245 0 -405 156.5t-160 398.5zM285 543q0 -171 103.5 -277t262.5 -106t262 106t103 277t-103 276t-262 105t-262.5 -105t-103.5 -276zM315 1579v117h668v-117h-668 zM362 1380q0 43 30 72t73 29q41 0 70.5 -29.5t29.5 -71.5q0 -44 -29 -73t-71 -29q-43 0 -73 29t-30 73zM735 1380q0 42 30.5 71.5t70.5 29.5q42 0 72 -29.5t30 -71.5q0 -44 -30 -73t-72 -29q-41 0 -71 29.5t-30 72.5z" />
<glyph unicode="&#x22c;" horiz-adv-x="1720" d="M98 717q0 155 58 291t158.5 233t243 153t304.5 56q215 0 389 -94.5t272.5 -262.5t98.5 -376t-98.5 -376t-272.5 -262.5t-389 -94.5q-162 0 -304.5 56t-243 153t-158.5 233t-58 291zM303 717q0 -238 159 -394.5t400 -156.5q238 0 396.5 157t158.5 394t-158.5 394 t-396.5 157q-241 0 -400 -156.5t-159 -394.5zM524 1569q1 99 54 155t143 56q44 0 86.5 -17.5t70 -38t60.5 -38t59 -17.5q45 0 69 26.5t26 73.5h108q-2 -97 -53.5 -152.5t-140.5 -55.5q-45 0 -88.5 17t-71 38t-60 38t-57.5 17q-91 0 -94 -102h-111zM528 1886v117h668v-117 h-668z" />
<glyph unicode="&#x22d;" horiz-adv-x="1300" d="M86 543q0 242 160 397.5t405 155.5t404 -155.5t159 -397.5q0 -160 -72.5 -287t-201 -197.5t-289.5 -70.5q-245 0 -405 156.5t-160 398.5zM285 543q0 -171 103.5 -277t262.5 -106t262 106t103 277t-103 276t-262 105t-262.5 -105t-103.5 -276zM311 1262q1 99 54 155 t143 56q44 0 86.5 -17.5t70 -38t60.5 -38t59 -17.5q45 0 69 26.5t26 73.5h108q-2 -97 -53.5 -153t-140.5 -56q-45 0 -88.5 17.5t-71 38t-60 38t-57.5 17.5q-91 0 -94 -102h-111zM315 1579v117h668v-117h-668z" />
<glyph unicode="&#x230;" horiz-adv-x="1720" d="M98 717q0 155 58 291t158.5 233t243 153t304.5 56q215 0 389 -94.5t272.5 -262.5t98.5 -376t-98.5 -376t-272.5 -262.5t-389 -94.5q-162 0 -304.5 56t-243 153t-158.5 233t-58 291zM303 717q0 -238 159 -394.5t400 -156.5q238 0 396.5 157t158.5 394t-158.5 394 t-396.5 157q-241 0 -400 -156.5t-159 -394.5zM528 1892v117h668v-117h-668zM758 1690q0 45 30.5 74.5t73.5 29.5q44 0 74.5 -29.5t30.5 -74.5t-31 -76t-74 -31t-73.5 31t-30.5 76z" />
<glyph unicode="&#x237;" horiz-adv-x="581" d="M-188 -344l63 151q60 -51 160 -51q78 0 120 49t42 142v1138h196v-1134q0 -168 -90.5 -264.5t-255.5 -96.5q-154 0 -235 66z" />
<glyph unicode="&#x2c6;" horiz-adv-x="1228" d="M248 1243l272 266h189l272 -266h-178l-189 158l-188 -158h-178z" />
<glyph unicode="&#x2c7;" horiz-adv-x="1228" d="M248 1509h178l188 -155l189 155h178l-272 -266h-189z" />
<glyph unicode="&#x2d8;" horiz-adv-x="1228" d="M283 1509h133q3 -74 59 -118.5t139 -44.5t139.5 44.5t59.5 118.5h133q-4 -127 -97.5 -202.5t-234.5 -75.5t-234 75.5t-97 202.5z" />
<glyph unicode="&#x2d9;" horiz-adv-x="1228" d="M494 1401q0 51 34.5 86t85.5 35t86 -35t35 -86q0 -52 -35 -86.5t-86 -34.5t-85.5 34.5t-34.5 86.5z" />
<glyph unicode="&#x2da;" horiz-adv-x="1228" d="M387 1438q0 93 65 159t160 66q96 0 162 -66t66 -159t-66 -157t-162 -64q-95 0 -160 64t-65 157zM479 1438q0 -58 37.5 -96.5t95.5 -38.5q59 0 97.5 38.5t38.5 96.5q0 59 -39 98t-97 39q-57 0 -95 -38.5t-38 -98.5z" />
<glyph unicode="&#x2db;" horiz-adv-x="1228" d="M231 -252q0 89 70 172.5t223 145.5l92 -66q-130 -58 -186.5 -116t-56.5 -122q0 -50 34.5 -78t90.5 -28q77 0 127 35l37 -101q-77 -49 -185 -49q-114 0 -180 57t-66 150z" />
<glyph unicode="&#x2dc;" horiz-adv-x="1228" d="M270 1260q3 114 57.5 181.5t143.5 67.5q36 0 70.5 -14.5t60.5 -35t49.5 -40.5t47 -34.5t44.5 -14.5q45 0 73.5 33t31.5 90h110q-3 -110 -57 -177t-143 -67q-44 0 -87 21.5t-70.5 47t-59 47t-56.5 21.5q-45 0 -73 -33.5t-31 -92.5h-111z" />
<glyph unicode="&#x2dd;" horiz-adv-x="1228" d="M352 1243l185 266h208l-227 -266h-166zM711 1243l182 266h207l-223 -266h-166z" />
<glyph unicode="&#x3a9;" horiz-adv-x="1839" d="M18 0v178h402q-124 101 -192 244t-68 313q0 207 99.5 371t273 254t387.5 90t387 -90t272.5 -254t99.5 -371q0 -171 -67.5 -314t-192.5 -243h402v-178h-709v166q176 88 269.5 235.5t93.5 323.5q0 241 -155.5 392t-399.5 151t-399.5 -151t-155.5 -392q0 -177 93.5 -324.5 t268.5 -234.5v-166h-709z" />
<glyph unicode="&#x3c0;" horiz-adv-x="1482" d="M-16 774q0 136 100.5 223.5t265.5 87.5h1114l-2 -161h-301v-924h-196v924h-306l-106 -924h-197l107 924h-90q-215 0 -215 -181q0 -72 59 -163l-149 -45q-40 46 -62 111t-22 128z" />
<glyph unicode="&#x400;" horiz-adv-x="1361" d="M223 0v1434h1012v-179h-807v-440h719v-174h-719v-463h836v-178h-1041zM356 1817h250l279 -267h-185z" />
<glyph unicode="&#x401;" horiz-adv-x="1361" d="M223 0v1434h1012v-179h-807v-440h719v-174h-719v-463h836v-178h-1041zM436 1690q0 45 31 75.5t74 30.5t73.5 -30.5t30.5 -75.5t-30.5 -75t-73.5 -30t-74 30t-31 75zM817 1690q0 45 31 75.5t74 30.5t73.5 -30.5t30.5 -75.5t-30.5 -75t-73.5 -30t-74 30t-31 75z" />
<glyph unicode="&#x402;" horiz-adv-x="1705" d="M29 1255v179h1231v-179h-539v-460q216 75 409 75q229 0 363.5 -113.5t134.5 -326.5q0 -112 -38 -198t-104 -138t-150.5 -78t-182.5 -26q-85 0 -174 18l25 170q66 -16 124 -16q127 0 212 66.5t85 197.5q0 132 -91 202t-242 70q-173 0 -371 -86v-612h-201v1255h-491z" />
<glyph unicode="&#x403;" horiz-adv-x="1183" d="M223 0v1434h940l-2 -179h-737l2 -1255h-203zM522 1550l279 267h250l-344 -267h-185z" />
<glyph unicode="&#x404;" horiz-adv-x="1449" d="M109 717q0 157 54.5 293t150 232.5t229 152t286.5 55.5q176 0 320.5 -57t239.5 -168l-129 -129q-161 170 -420 170q-209 0 -353.5 -133.5t-167.5 -344.5h695v-167h-692q31 -201 174 -327t344 -126q256 0 420 170l129 -129q-96 -110 -241 -167.5t-319 -57.5 q-153 0 -286.5 55.5t-229 152t-150 232.5t-54.5 293z" />
<glyph unicode="&#x405;" horiz-adv-x="1302" d="M100 164l76 160q81 -74 209.5 -120t263.5 -46q178 0 266.5 61t88.5 160q0 56 -29.5 97t-80 66.5t-115.5 45t-137 36.5t-144.5 36.5t-137.5 50t-115.5 71.5t-80 107t-29.5 151t33.5 158t99 130t172.5 89.5t244 32.5q128 0 250.5 -33t210.5 -94l-68 -164q-183 117 -393 117 q-174 0 -261 -63.5t-87 -163.5q0 -56 29.5 -97t80 -66.5t115.5 -45.5t137 -37t144 -36t137 -49.5t115.5 -71.5t80 -106t29.5 -149t-34 -156.5t-100.5 -129t-174.5 -89t-246 -32.5q-162 0 -312 50t-237 130z" />
<glyph unicode="&#x406;" horiz-adv-x="649" d="M223 0v1434h203v-1434h-203z" />
<glyph unicode="&#x407;" horiz-adv-x="634" d="M23 1690q0 46 30 76t74 30q43 0 73.5 -30.5t30.5 -75.5t-30.5 -75t-73.5 -30q-45 0 -74.5 29.5t-29.5 75.5zM215 0v1434h205v-1434h-205zM401 1690q0 45 31 75.5t76 30.5q43 0 73.5 -30.5t30.5 -75.5t-30.5 -75t-73.5 -30q-45 0 -76 30t-31 75z" />
<glyph unicode="&#x408;" horiz-adv-x="1105" d="M37 190l119 140q119 -170 299 -170q245 0 245 291v804h-518v179h721v-973q0 -238 -113.5 -357.5t-334.5 -119.5q-129 0 -239.5 53.5t-178.5 152.5z" />
<glyph unicode="&#x409;" horiz-adv-x="2430" d="M27 0l14 182q33 -8 65 -8q66 0 112.5 39t76.5 123t45.5 202.5t21.5 290.5l23 605h1012v-500h426q257 0 392.5 -115t135.5 -338q0 -236 -147 -358.5t-418 -122.5h-592v1255h-635l-14 -419q-5 -147 -15.5 -261t-30.5 -212t-49.5 -166.5t-71 -117.5t-97 -72t-125.5 -23 q-64 0 -129 16zM1397 162h381q179 0 273.5 80t94.5 235q0 295 -368 295h-381v-610z" />
<glyph unicode="&#x40a;" horiz-adv-x="2416" d="M223 0v1434h203v-574h797v574h200v-566h422q236 0 367 -110.5t131 -311.5q0 -211 -139.5 -328.5t-386.5 -117.5h-594v684h-797v-684h-203zM1423 162h375q160 0 249 72t89 204q0 129 -87.5 198t-250.5 69h-375v-543z" />
<glyph unicode="&#x40b;" horiz-adv-x="1724" d="M27 1255v179h1220v-179h-530v-475q221 84 409 84q232 0 365 -121t133 -356v-387h-201v360q0 156 -90.5 239t-249.5 83q-157 0 -366 -90v-592h-201v1255h-489z" />
<glyph unicode="&#x40c;" horiz-adv-x="1456" d="M223 0v1434h201v-623h303l451 623h219l-512 -695l536 -739h-233l-465 631h-299v-631h-201zM582 1550l278 267h250l-344 -267h-184z" />
<glyph unicode="&#x40d;" horiz-adv-x="1685" d="M223 0v1434h203v-1106l848 1106h188v-1434h-200v1104l-850 -1104h-189zM465 1817h250l278 -267h-184z" />
<glyph unicode="&#x40e;" horiz-adv-x="1415" d="M33 1434h219l465 -910l477 910h203l-637 -1182q-75 -141 -178.5 -211t-223.5 -70q-94 0 -192 43l53 164q76 -26 135 -26q136 0 224 143l32 51zM344 1815h145q1 -79 56 -123.5t151 -44.5q93 0 148.5 44.5t58.5 123.5h144q-2 -134 -93.5 -207.5t-257.5 -73.5 q-168 0 -259 73.5t-93 207.5z" />
<glyph unicode="&#x40f;" horiz-adv-x="1652" d="M223 0v1434h203v-1256h799v1256h202v-1434h-507v-326h-189v326h-508z" />
<glyph unicode="&#x410;" horiz-adv-x="1552" d="M25 0l649 1434h203l651 -1434h-215l-158 358h-762l-157 -358h-211zM465 522h618l-309 703z" />
<glyph unicode="&#x411;" horiz-adv-x="1497" d="M223 0v1434h1082v-174h-879v-410h446q256 0 389.5 -106t133.5 -308q0 -211 -144 -323.5t-413 -112.5h-615zM426 162h403q177 0 269 68t92 198q0 260 -361 260h-403v-526z" />
<glyph unicode="&#x412;" horiz-adv-x="1529" d="M223 0v1434h617q236 0 367.5 -95.5t131.5 -273.5q0 -117 -58.5 -199.5t-164.5 -122.5q295 -72 295 -352q0 -187 -135.5 -289t-396.5 -102h-656zM426 162h448q330 0 330 246q0 239 -330 239h-448v-485zM426 803h399q149 0 228.5 59t79.5 174t-80 175.5t-228 60.5h-399 v-469z" />
<glyph unicode="&#x413;" horiz-adv-x="1183" d="M223 0v1434h940l-2 -179h-737l2 -1255h-203z" />
<glyph unicode="&#x414;" horiz-adv-x="1646" d="M27 -313l2 491h69q58 4 101.5 47t70.5 111.5t45.5 173t27 213t13.5 250.5l15 461h1007v-1256h211v-491h-190v313h-1180l-2 -313h-190zM367 178h809v1077h-629l-10 -301q-10 -302 -47.5 -500.5t-122.5 -275.5z" />
<glyph unicode="&#x415;" horiz-adv-x="1361" d="M223 0v1434h1012v-179h-807v-440h719v-174h-719v-463h836v-178h-1041z" />
<glyph unicode="&#x416;" horiz-adv-x="2107" d="M39 0l473 745l-438 689h219l383 -623h278v623h201v-623h275l385 623h219l-439 -693l473 -741h-239l-402 631h-272v-631h-201v631h-274l-401 -631h-240z" />
<glyph unicode="&#x417;" horiz-adv-x="1314" d="M66 156l71 151q94 -73 211.5 -110t235.5 -37q172 0 288.5 72.5t116.5 199.5q0 109 -88 167t-248 58h-319v166h305q136 0 213.5 56.5t77.5 156.5q0 113 -101 178.5t-254 65.5q-212 0 -399 -115l-65 168q220 123 471 123q151 0 276 -45.5t202 -137t77 -212.5 q0 -109 -60.5 -191t-167.5 -122q134 -37 210.5 -128.5t76.5 -218.5t-83 -224t-215 -145t-290 -48q-144 0 -285 43t-257 129z" />
<glyph unicode="&#x418;" horiz-adv-x="1685" d="M223 0v1434h203v-1106l848 1106h188v-1434h-200v1104l-850 -1104h-189z" />
<glyph unicode="&#x419;" horiz-adv-x="1685" d="M223 0v1434h203v-1106l848 1106h188v-1434h-200v1104l-850 -1104h-189zM487 1815h146q1 -79 56 -123.5t151 -44.5q93 0 148.5 44.5t58.5 123.5h143q-2 -134 -93 -207.5t-257 -73.5q-168 0 -259.5 73.5t-93.5 207.5z" />
<glyph unicode="&#x41a;" horiz-adv-x="1456" d="M223 0v1434h201v-623h303l451 623h219l-512 -695l536 -739h-233l-465 631h-299v-631h-201z" />
<glyph unicode="&#x41b;" horiz-adv-x="1617" d="M27 0l14 182q33 -8 65 -8q66 0 112.5 39t76.5 123t45.5 202.5t21.5 290.5l23 605h1010v-1434h-201v1255h-635l-14 -419q-5 -147 -15.5 -261t-30.5 -212t-49.5 -166.5t-71 -117.5t-97 -72t-125.5 -23q-64 0 -129 16z" />
<glyph unicode="&#x41c;" horiz-adv-x="1972" d="M223 0v1434h168l598 -1008l590 1008h168l2 -1434h-197l-2 1044l-518 -870h-94l-518 864v-1038h-197z" />
<glyph unicode="&#x41d;" horiz-adv-x="1679" d="M223 0v1434h205v-617h823v617h205v-1434h-205v639h-823v-639h-205z" />
<glyph unicode="&#x41e;" horiz-adv-x="1736" d="M104 717q0 155 58 291t158.5 233t243 153t304.5 56q215 0 389 -94.5t272.5 -262.5t98.5 -376t-98.5 -376t-272.5 -262.5t-389 -94.5q-162 0 -304.5 56t-243 153t-158.5 233t-58 291zM309 717q0 -238 159 -394.5t400 -156.5q238 0 396.5 157t158.5 394t-158.5 394 t-396.5 157q-241 0 -400 -156.5t-159 -394.5z" />
<glyph unicode="&#x41f;" horiz-adv-x="1681" d="M223 0v1434h1235v-1434h-201v1255h-831v-1255h-203z" />
<glyph unicode="&#x420;" horiz-adv-x="1462" d="M223 0v1434h559q280 0 439 -133.5t159 -366.5t-159 -366.5t-439 -133.5h-354v-434h-205zM428 612h348q195 0 297.5 83.5t102.5 238.5t-102.5 238t-297.5 83h-348v-643z" />
<glyph unicode="&#x421;" horiz-adv-x="1470" d="M106 717q0 157 58 293t158.5 232.5t241.5 152t302 55.5q167 0 307.5 -57t237.5 -166l-133 -129q-161 170 -404 170q-120 0 -224.5 -42t-179 -114.5t-117 -175t-42.5 -219.5t42.5 -219.5t117 -175t179 -114.5t224.5 -42q241 0 404 172l133 -129q-98 -110 -238.5 -167.5 t-308.5 -57.5q-214 0 -387.5 94t-272 262t-98.5 377z" />
<glyph unicode="&#x422;" horiz-adv-x="1234" d="M27 1255v179h1181v-179h-491v-1255h-201v1255h-489z" />
<glyph unicode="&#x423;" horiz-adv-x="1415" d="M33 1434h219l465 -910l477 910h203l-637 -1182q-75 -141 -178.5 -211t-223.5 -70q-94 0 -192 43l53 164q76 -26 135 -26q136 0 224 143l32 51z" />
<glyph unicode="&#x424;" horiz-adv-x="1896" d="M92 719q0 284 199.5 446t562.5 176v146h190v-146q361 -14 560.5 -176.5t199.5 -445.5q0 -284 -199 -446.5t-561 -174.5v-151h-190v151q-363 14 -562.5 176.5t-199.5 444.5zM291 719q0 -210 146 -327t417 -134v922q-276 -17 -419.5 -133.5t-143.5 -327.5zM1044 258 q275 17 419.5 134.5t144.5 328.5q0 208 -147 326t-417 133v-922z" />
<glyph unicode="&#x425;" horiz-adv-x="1368" d="M35 0l522 737l-487 697h235l375 -525l375 525h239l-485 -689l524 -745h-241l-412 571l-410 -571h-235z" />
<glyph unicode="&#x426;" horiz-adv-x="1697" d="M223 0v1434h203v-1256h799v1256h202v-1256h222v-504h-191v326h-1235z" />
<glyph unicode="&#x427;" horiz-adv-x="1507" d="M111 969v465h200v-443q0 -159 97.5 -245.5t275.5 -86.5q195 0 397 91v684h203v-1434h-203v567q-227 -88 -419 -88q-263 0 -407 128t-144 362z" />
<glyph unicode="&#x428;" horiz-adv-x="2242" d="M223 0v1434h203v-1256h596v1256h201v-1256h596v1256h200v-1434h-1796z" />
<glyph unicode="&#x429;" horiz-adv-x="2293" d="M223 0v1434h203v-1256h596v1256h201v-1256h596v1256h200v-1256h215v-491h-188v313h-1823z" />
<glyph unicode="&#x42a;" horiz-adv-x="1695" d="M27 1255v179h635v-500h425q255 0 391 -115t136 -338q0 -236 -146.5 -358.5t-418.5 -122.5h-590v1255h-432zM662 162h382q178 0 271.5 80t93.5 235q0 295 -365 295h-382v-610z" />
<glyph unicode="&#x42b;" horiz-adv-x="2033" d="M223 0v1434h203v-500h426q257 0 392.5 -115t135.5 -338q0 -236 -147 -358.5t-418 -122.5h-592zM426 162h381q179 0 274 80t95 235q0 295 -369 295h-381v-610zM1608 0v1434h202v-1434h-202z" />
<glyph unicode="&#x42c;" horiz-adv-x="1460" d="M223 0v1434h203v-500h426q257 0 392.5 -115t135.5 -338q0 -236 -147 -358.5t-418 -122.5h-592zM426 162h381q179 0 274 80t95 235q0 295 -369 295h-381v-610z" />
<glyph unicode="&#x42d;" horiz-adv-x="1447" d="M59 209l129 129q161 -170 420 -170q209 0 353 133t167 344h-694v168h692q-31 201 -174 327t-344 126q-256 0 -420 -170l-129 129q96 110 240.5 167.5t318.5 57.5q204 0 369 -94t258.5 -262t93.5 -377t-93.5 -377t-258.5 -262t-369 -94q-176 0 -319.5 57t-239.5 168z" />
<glyph unicode="&#x42e;" horiz-adv-x="2250" d="M223 0v1434h203v-615h264q23 183 121.5 326.5t255 224t344.5 80.5q155 0 290 -55.5t231.5 -152.5t152 -233t55.5 -292t-55.5 -292t-152 -233t-231.5 -152.5t-290 -55.5q-192 0 -350.5 83.5t-256.5 231.5t-116 336h-262v-635h-203zM891 717q0 -239 149 -394t371 -155 q147 0 266.5 69.5t188.5 195.5t69 284t-69 284t-188.5 195.5t-266.5 69.5q-222 0 -371 -155t-149 -394z" />
<glyph unicode="&#x42f;" horiz-adv-x="1497" d="M119 0l317 455q-153 51 -235 170.5t-82 292.5q0 243 156 379.5t423 136.5h576v-1434h-201v418h-395q-37 0 -55 2l-287 -420h-217zM326 920q0 -160 93.5 -245t274.5 -85h379v665h-366q-184 0 -282.5 -85t-98.5 -250z" />
<glyph unicode="&#x430;" horiz-adv-x="1206" d="M98 307q0 68 23.5 123.5t73 100t136 69.5t204.5 25h311v39q0 126 -73.5 194t-217.5 68q-97 0 -189 -31.5t-155 -85.5l-82 147q85 67 201.5 103.5t247.5 36.5q226 0 345 -110.5t119 -330.5v-655h-186v143q-104 -155 -356 -155q-183 0 -292.5 88.5t-109.5 230.5zM293 315 q0 -82 63.5 -129t175.5 -47t195 50t119 143v151h-303q-250 0 -250 -168z" />
<glyph unicode="&#x431;" horiz-adv-x="1355" d="M127 707q0 335 137 523.5t420 250.5l496 110l28 -180l-456 -98q-214 -46 -318 -159.5t-119 -324.5q69 105 180.5 162.5t247.5 57.5q230 0 376.5 -148t146.5 -381q0 -239 -156 -387.5t-405 -148.5q-277 0 -427.5 189.5t-150.5 533.5zM350 514q0 -161 101 -264t258 -103 q158 0 257 102.5t99 264.5q0 161 -98 259.5t-258 98.5t-259.5 -98.5t-99.5 -259.5z" />
<glyph unicode="&#x432;" horiz-adv-x="1257" d="M190 0v1085h504q193 0 301.5 -72.5t108.5 -205.5q0 -86 -45.5 -148.5t-128.5 -95.5q211 -55 211 -264q0 -144 -107.5 -221.5t-320.5 -77.5h-523zM383 152h315q123 0 184.5 38.5t61.5 120.5q0 85 -56 125.5t-177 40.5h-328v-325zM383 618h295q112 0 170.5 41t58.5 119 q0 156 -229 156h-295v-316z" />
<glyph unicode="&#x433;" horiz-adv-x="999" d="M190 0v1085h799v-172h-602v-913h-197z" />
<glyph unicode="&#x434;" horiz-adv-x="1359" d="M16 172h58q45 2 79 35t53.5 80.5t33 125t19.5 143.5t11 163l17 366h841v-913h166v-424h-184v252h-907v-252h-187v424zM324 172h608v741h-471l-10 -208q-7 -204 -33.5 -339t-93.5 -194z" />
<glyph unicode="&#x435;" horiz-adv-x="1286" d="M90 543q0 159 70.5 285.5t195 197t279.5 70.5q236 0 386 -155t150 -404q0 -24 -4 -60h-880q19 -143 126 -230t267 -87q194 0 313 131l109 -127q-150 -176 -428 -176q-261 0 -422.5 155t-161.5 400zM287 618h696q-15 138 -111 225t-237 87t-237 -87t-111 -225z" />
<glyph unicode="&#x436;" horiz-adv-x="1738" d="M27 0l372 561l-344 524h209l293 -458h213v458h197v-458h213l293 458h210l-344 -526l373 -559h-233l-301 459h-211v-459h-197v459h-211l-299 -459h-233z" />
<glyph unicode="&#x437;" horiz-adv-x="1114" d="M57 109l60 149q76 -50 177.5 -77t203.5 -27q139 0 222 47.5t83 130.5q0 75 -67 116t-187 41h-199v142h185q110 0 173.5 38.5t63.5 106.5q0 73 -75 114.5t-201 41.5q-160 0 -342 -84l-54 151q198 101 416 101q200 0 329.5 -82t129.5 -213q0 -80 -53 -143.5t-144 -96.5 q109 -28 168.5 -92.5t59.5 -157.5q0 -146 -143.5 -237.5t-362.5 -91.5q-252 0 -443 123z" />
<glyph unicode="&#x438;" horiz-adv-x="1421" d="M190 0v1085h197v-790l666 790h178v-1085h-197v791l-663 -791h-181z" />
<glyph unicode="&#x439;" horiz-adv-x="1421" d="M190 0v1085h197v-790l666 790h178v-1085h-197v791l-663 -791h-181zM377 1509h133q2 -77 52.5 -122.5t133.5 -45.5q85 0 136 45.5t53 122.5h137q-3 -137 -88 -209.5t-236 -72.5t-235.5 72.5t-85.5 209.5z" />
<glyph unicode="&#x43a;" horiz-adv-x="1224" d="M190 0v1085h197v-458h229l353 458h211l-412 -522l440 -563h-231l-365 459h-225v-459h-197z" />
<glyph unicode="&#x43b;" horiz-adv-x="1312" d="M10 2l13 166q27 -6 49 -6q49 0 84 28.5t54.5 73.5t31.5 113t17.5 132.5t9.5 147.5q1 18 1 27l19 401h833v-1085h-196v913h-467l-13 -241q-5 -105 -12.5 -185t-22 -162.5t-37.5 -141t-55.5 -105.5t-80 -70.5t-107.5 -23.5q-53 0 -121 18z" />
<glyph unicode="&#x43c;" horiz-adv-x="1634" d="M190 0v1085h203l426 -733l438 733h185v-1085h-178v793l-406 -670h-86l-401 672v-795h-181z" />
<glyph unicode="&#x43d;" horiz-adv-x="1394" d="M190 0v1085h197v-460h619v460h196v-1085h-196v455h-619v-455h-197z" />
<glyph unicode="&#x43e;" horiz-adv-x="1312" d="M90 543q0 242 160 397.5t405 155.5t404.5 -155.5t159.5 -397.5t-159.5 -398.5t-404.5 -156.5t-405 156.5t-160 398.5zM289 543q0 -171 103.5 -277t262.5 -106t262 106t103 277t-103 276t-262 105t-262.5 -105t-103.5 -276z" />
<glyph unicode="&#x43f;" horiz-adv-x="1386" d="M190 0v1085h1006v-1085h-197v913h-612v-913h-197z" />
<glyph unicode="&#x440;" horiz-adv-x="1409" d="M190 -397v1482h189v-172q65 90 165.5 136.5t221.5 46.5q240 0 394.5 -153t154.5 -400q0 -248 -154.5 -401.5t-394.5 -153.5q-117 0 -214.5 44.5t-164.5 131.5v-561h-197zM385 543q0 -171 103.5 -277t261.5 -106q159 0 262.5 106t103.5 277q0 170 -103.5 275.5 t-262.5 105.5q-157 0 -261 -106t-104 -275z" />
<glyph unicode="&#x441;" horiz-adv-x="1169" d="M90 543q0 160 73.5 286.5t204.5 196.5t296 70q148 0 263 -59.5t179 -172.5l-150 -96q-103 156 -294 156q-162 0 -267.5 -105t-105.5 -276q0 -174 105 -278.5t268 -104.5q192 0 294 155l150 -94q-64 -113 -179 -173t-263 -60q-251 0 -412.5 156t-161.5 399z" />
<glyph unicode="&#x442;" horiz-adv-x="1009" d="M8 913v172h991v-172h-397v-913h-196v913h-398z" />
<glyph unicode="&#x443;" horiz-adv-x="1169" d="M-33 -309l84 147q83 -80 195 -80q72 0 120 38t87 130l34 76l-479 1083h205l379 -868l375 868h192l-526 -1194q-69 -165 -162.5 -233t-224.5 -68q-80 0 -154.5 26.5t-124.5 74.5z" />
<glyph unicode="&#x444;" horiz-adv-x="1648" d="M88 545q0 251 166 393.5t473 157.5v424h193v-424q305 -17 473 -159t168 -392q0 -252 -167.5 -397t-473.5 -162v-383h-193v383q-306 17 -472.5 161t-166.5 398zM283 545q0 -174 111.5 -272t332.5 -113v762q-222 -15 -333 -111t-111 -266zM920 158q446 35 446 387 q0 171 -112 266.5t-334 110.5v-764z" />
<glyph unicode="&#x445;" horiz-adv-x="1107" d="M18 0l428 555l-407 530h219l299 -391l297 391h215l-410 -530l433 -555h-224l-313 416l-317 -416h-220z" />
<glyph unicode="&#x446;" horiz-adv-x="1413" d="M190 0v1085h197v-913h594v913h197v-913h172v-432h-187v260h-973z" />
<glyph unicode="&#x447;" horiz-adv-x="1247" d="M86 733v352h197v-340q0 -113 70.5 -170t197.5 -57q143 0 309 72v495h197v-1085h-197v438q-178 -82 -350 -82q-203 0 -313.5 94t-110.5 283z" />
<glyph unicode="&#x448;" horiz-adv-x="1927" d="M190 0v1085h197v-913h479v913h197v-913h477v913h197v-1085h-1547z" />
<glyph unicode="&#x449;" horiz-adv-x="1927" d="M190 0v1085h197v-913h479v913h197v-913h477v913h197v-913h161v-403h-184v231h-1524z" />
<glyph unicode="&#x44a;" horiz-adv-x="1308" d="M8 913v172h529v-366h294q201 0 308.5 -92.5t107.5 -261.5q0 -175 -117.5 -270t-332.5 -95h-457v913h-332zM537 150h254q127 0 192.5 56t65.5 163q0 204 -258 204h-254v-423z" />
<glyph unicode="&#x44b;" horiz-adv-x="1652" d="M190 0v1085h197v-366l293 -2q204 -1 313 -94t109 -261q0 -177 -118 -271.5t-337 -92.5zM387 150l246 -3q132 -2 201 53.5t69 164.5q0 106 -67 155t-203 51l-246 4v-425zM1264 0v1085h196v-1085h-196z" />
<glyph unicode="&#x44c;" horiz-adv-x="1177" d="M190 0v1085h197v-366l305 -2q206 -1 315 -94t109 -261q0 -177 -118 -271.5t-336 -92.5zM387 150l258 -3q133 -1 201.5 54t68.5 164q0 106 -66.5 155t-203.5 51l-258 4v-425z" />
<glyph unicode="&#x44d;" horiz-adv-x="1177" d="M49 162l115 114q132 -129 332 -129q160 0 272 91.5t135 238.5h-545v146h541q-26 140 -136.5 227.5t-266.5 87.5q-198 0 -332 -131l-115 113q79 87 196 132.5t259 45.5q166 0 300 -71t210 -198t76 -286q0 -160 -76 -287.5t-210 -198.5t-300 -71q-296 0 -455 176z" />
<glyph unicode="&#x44e;" horiz-adv-x="1794" d="M190 0v1085h197v-444h221q31 204 180 329.5t363 125.5q239 0 395 -155t156 -398q0 -242 -156 -398.5t-395 -156.5q-216 0 -366.5 130.5t-178.5 340.5h-219v-459h-197zM795 543q0 -172 100.5 -277.5t255.5 -105.5q154 0 255 105.5t101 277.5q0 170 -101.5 275.5 t-254.5 105.5q-155 0 -255.5 -105t-100.5 -276z" />
<glyph unicode="&#x44f;" d="M98 0l264 371q-123 37 -188 121.5t-65 212.5q0 185 127 282.5t350 97.5h475v-1085h-176v344h-316h-22l-238 -344h-211zM309 698q0 -213 275 -213h301v428h-293q-283 0 -283 -215z" />
<glyph unicode="&#x450;" horiz-adv-x="1286" d="M90 543q0 159 70.5 285.5t195 197t279.5 70.5q236 0 386 -155t150 -404q0 -24 -4 -60h-880q19 -143 126 -230t267 -87q194 0 313 131l109 -127q-150 -176 -428 -176q-261 0 -422.5 155t-161.5 400zM258 1509h250l278 -266h-184zM287 618h696q-15 138 -111 225t-237 87 t-237 -87t-111 -225z" />
<glyph unicode="&#x451;" horiz-adv-x="1286" d="M90 543q0 159 70.5 285.5t195 197t279.5 70.5q236 0 386 -155t150 -404q0 -24 -4 -60h-880q19 -143 126 -230t267 -87q194 0 313 131l109 -127q-150 -176 -428 -176q-261 0 -422.5 155t-161.5 400zM287 618h696q-15 138 -111 225t-237 87t-237 -87t-111 -225zM338 1382 q0 45 30.5 76t73.5 31t74 -31t31 -76t-30.5 -74.5t-74.5 -29.5q-43 0 -73.5 29.5t-30.5 74.5zM719 1382q0 45 30.5 76t73.5 31t74 -31t31 -76t-30.5 -74.5t-74.5 -29.5q-43 0 -73.5 29.5t-30.5 74.5z" />
<glyph unicode="&#x452;" horiz-adv-x="1382" d="M-20 1231v139h213v150h186v-150h491v-139h-491v-309q60 84 161 129t230 45q206 0 329.5 -120t123.5 -351v-674q0 -168 -91 -264.5t-258 -96.5q-151 0 -235 66l63 151q63 -51 160 -51q79 0 121.5 49t42.5 142v655q0 157 -76.5 237.5t-218.5 80.5q-159 0 -250.5 -93.5 t-91.5 -267.5v-559h-196v1231h-213z" />
<glyph unicode="&#x453;" horiz-adv-x="999" d="M190 0v1085h799v-172h-602v-913h-197zM442 1239l279 266h250l-344 -266h-185z" />
<glyph unicode="&#x454;" horiz-adv-x="1181" d="M90 543q0 160 76 287.5t210 198.5t300 71q295 0 454 -176l-114 -115q-132 129 -332 129q-160 0 -272.5 -91.5t-135.5 -238.5h545v-145h-540q26 -141 136.5 -228.5t266.5 -87.5q197 0 332 132l114 -113q-79 -87 -195.5 -132.5t-258.5 -45.5q-166 0 -300 71t-210 198 t-76 286z" />
<glyph unicode="&#x455;" horiz-adv-x="1097" d="M88 115l82 155q70 -50 173.5 -81t207.5 -31q258 0 258 147q0 49 -38 79.5t-98.5 44.5t-133.5 25t-146 29t-133.5 48t-98.5 90.5t-38 148.5q0 147 122 236.5t330 89.5q107 0 216.5 -27t179.5 -72l-84 -155q-134 86 -314 86q-125 0 -190.5 -41.5t-65.5 -108.5q0 -52 38 -84 t99 -47.5t134 -27t146.5 -30t134.5 -47.5t99 -88t38 -145q0 -148 -126 -234.5t-343 -86.5q-132 0 -256 36t-193 91z" />
<glyph unicode="&#x456;" horiz-adv-x="579" d="M156 1421q0 54 38 91.5t95 37.5t95 -36t38 -89q0 -56 -37.5 -93.5t-95.5 -37.5q-57 0 -95 36.5t-38 90.5zM190 0v1085h197v-1085h-197z" />
<glyph unicode="&#x457;" horiz-adv-x="571" d="M37 1382q0 45 29 75t73 30q43 0 72 -30t29 -75q0 -44 -29 -73t-72 -29q-44 0 -73 29.5t-29 72.5zM186 0v1085h197v-1085h-197zM330 1382q0 44 28.5 74.5t71.5 30.5q44 0 73 -29.5t29 -75.5q0 -44 -29 -73t-73 -29q-43 0 -71.5 29.5t-28.5 72.5z" />
<glyph unicode="&#x458;" horiz-adv-x="581" d="M-193 -344l64 151q60 -51 160 -51q78 0 120 49t42 142v1138h196v-1134q0 -168 -90.5 -264.5t-255.5 -96.5q-155 0 -236 66zM158 1421q0 54 38 91.5t95 37.5t95 -36t38 -89q0 -56 -37.5 -93.5t-95.5 -37.5q-57 0 -95 36.5t-38 90.5z" />
<glyph unicode="&#x459;" horiz-adv-x="1912" d="M10 2l13 166q27 -6 49 -6q49 0 84 28.5t54.5 73.5t31.5 113t17.5 132.5t9.5 147.5q1 18 1 27l19 401h833v-366l305 -2q206 -1 315 -94t109 -261q0 -177 -118 -271.5t-336 -92.5l-471 2v913h-467l-13 -241q-5 -105 -12.5 -185t-22 -162.5t-37.5 -141t-55.5 -105.5 t-80 -70.5t-107.5 -23.5q-53 0 -121 18zM1122 150l258 -3q133 -1 202 54t69 164q0 106 -67 155t-204 51l-258 4v-425z" />
<glyph unicode="&#x45a;" horiz-adv-x="1949" d="M190 0v1085h197v-421h598v421h197v-421h311q194 0 298.5 -83t104.5 -237q0 -161 -115.5 -252.5t-320.5 -91.5h-475v494h-598v-494h-197zM1182 145h270q116 0 180 49.5t64 137.5q0 84 -62.5 128t-181.5 44h-270v-359z" />
<glyph unicode="&#x45b;" horiz-adv-x="1380" d="M-74 1239v117h267v164h196v-164h488v-117h-488v-303q129 160 381 160q206 0 329.5 -120t123.5 -351v-625h-197v602q0 157 -76.5 237.5t-218.5 80.5q-159 0 -250.5 -93.5t-91.5 -267.5v-559h-196v1239h-267z" />
<glyph unicode="&#x45c;" horiz-adv-x="1224" d="M190 0v1085h197v-458h229l353 458h211l-412 -522l440 -563h-231l-365 459h-225v-459h-197zM477 1243l279 266h250l-344 -266h-185z" />
<glyph unicode="&#x45d;" horiz-adv-x="1421" d="M190 0v1085h197v-790l666 790h178v-1085h-197v791l-663 -791h-181zM324 1509h249l279 -266h-184z" />
<glyph unicode="&#x45e;" horiz-adv-x="1169" d="M-33 -309l84 147q83 -80 195 -80q72 0 120 38t87 130l34 76l-479 1083h205l379 -868l375 868h192l-526 -1194q-69 -165 -162.5 -233t-224.5 -68q-80 0 -154.5 26.5t-124.5 74.5zM236 1509h133q2 -77 52.5 -122.5t133.5 -45.5q85 0 135.5 45.5t52.5 122.5h138 q-3 -137 -88 -209.5t-236 -72.5t-235.5 72.5t-85.5 209.5z" />
<glyph unicode="&#x45f;" horiz-adv-x="1323" d="M190 0v1085h197v-913h547v913h196v-1085h-374v-260h-187v260h-379z" />
<glyph unicode="&#x462;" horiz-adv-x="1660" d="M39 1137v151h383v232h201v-232h438v-151h-438v-211h434q255 0 388.5 -115.5t133.5 -337.5q0 -228 -144.5 -350.5t-414.5 -122.5h-598v1137h-383zM623 162h391q358 0 358 305q0 150 -88.5 223.5t-269.5 73.5h-391v-602z" />
<glyph unicode="&#x463;" horiz-adv-x="1255" d="M0 989v144h268v387h197v-387h401v-144h-401v-270l305 -2q206 -1 315 -94t109 -261q0 -177 -118.5 -271.5t-338.5 -92.5l-469 2v989h-268zM465 150l258 -3q132 -2 201 53.5t69 164.5q0 106 -67 155t-203 51l-258 4v-425z" />
<glyph unicode="&#x46a;" horiz-adv-x="1843" d="M37 0l141 324q92 228 223.5 335t307.5 107l-502 532v136h1431v-129l-503 -539h2q176 0 308 -107t222 -335l139 -324h-211l-114 274q-129 340 -391 340h-72v-614h-193v614h-67q-270 0 -396 -340l-114 -274h-211zM436 1276l486 -510l485 510h-971z" />
<glyph unicode="&#x46b;" horiz-adv-x="1441" d="M31 0l100 238q69 177 162.5 260t226.5 88l-362 375v124h1118v-124l-365 -375q139 -2 235 -85t165 -263l100 -238h-192l-80 195q-44 132 -111 191.5t-166 59.5h-59v-446h-170v446h-53q-98 0 -166 -59.5t-113 -191.5l-76 -195h-194zM365 948l350 -362h4l352 362h-706z" />
<glyph unicode="&#x472;" horiz-adv-x="1736" d="M104 717q0 155 58 291t158.5 233t243 153t304.5 56q215 0 389 -94.5t272.5 -262.5t98.5 -376t-98.5 -376t-272.5 -262.5t-389 -94.5q-162 0 -304.5 56t-243 153t-158.5 233t-58 291zM315 637q26 -208 179.5 -339.5t373.5 -131.5q219 0 371 131.5t178 339.5h-1102z M315 799h1102q-28 207 -180 338t-369 131q-219 0 -372 -131t-181 -338z" />
<glyph unicode="&#x473;" horiz-adv-x="1331" d="M90 543q0 243 163 398t413 155t412.5 -155t162.5 -398q0 -242 -162.5 -398.5t-412.5 -156.5t-413 156.5t-163 398.5zM283 473q22 -149 126.5 -238.5t256.5 -89.5q153 0 257 89t126 239h-766zM283 612h766q-22 150 -126 239t-257 89t-257 -89t-126 -239z" />
<glyph unicode="&#x474;" horiz-adv-x="1558" d="M29 1434h223l469 -1137l301 829q59 169 145.5 248.5t218.5 79.5q66 0 146 -18l-23 -201q-50 12 -88 12q-82 0 -135.5 -56.5t-101.5 -186.5l-365 -1004h-201z" />
<glyph unicode="&#x475;" horiz-adv-x="1220" d="M10 1085h217l357 -833l229 608q47 128 110.5 185t159.5 57q55 0 129 -19l-20 -194q-44 12 -76 12q-49 0 -79 -37.5t-70 -138.5l-285 -725h-197z" />
<glyph unicode="&#x48a;" horiz-adv-x="1742" d="M223 0v1434h203v-1106l848 1106h188v-1256h207l-145 -491h-164l78 313h-176v1104l-850 -1104h-189zM487 1815h146q1 -79 56 -123.5t151 -44.5q93 0 148.5 44.5t58.5 123.5h143q-2 -134 -93 -207.5t-257 -73.5q-168 0 -259.5 73.5t-93.5 207.5z" />
<glyph unicode="&#x48b;" horiz-adv-x="1466" d="M190 0v1085h197v-790l666 790h178v-913h172l-119 -403h-160l60 231h-150v791l-663 -791h-181zM367 1509h133q3 -74 59 -118.5t139 -44.5t139.5 44.5t59.5 118.5h133q-4 -127 -97.5 -202.5t-234.5 -75.5t-234 75.5t-97 202.5z" />
<glyph unicode="&#x48c;" horiz-adv-x="1513" d="M63 1137v151h211v232h203v-232h438v-151h-438v-211h434q254 0 387.5 -115.5t133.5 -337.5q0 -227 -145 -350t-415 -123h-598v1137h-211zM477 162h389q178 0 268.5 77t90.5 228q0 297 -359 297h-389v-602z" />
<glyph unicode="&#x48d;" horiz-adv-x="1241" d="M45 815v146h211v124h197v-124h401v-146h-401v-123l305 -2q209 -2 316.5 -86t107.5 -250q0 -176 -118 -267t-339 -89l-469 2v815h-211zM453 150l258 -3q270 -3 270 209q0 103 -66 146t-204 45l-258 2v-399z" />
<glyph unicode="&#x48e;" horiz-adv-x="1501" d="M223 0v1434h561q279 0 437.5 -134.5t158.5 -373.5q0 -281 -215 -416l189 -246l-113 -92l-213 279q-103 -33 -244 -33h-356v-418h-205zM428 594h348q72 0 133 12l-207 271l113 92l234 -307q127 86 127 264q0 160 -102.5 244.5t-297.5 84.5h-348v-661z" />
<glyph unicode="&#x48f;" horiz-adv-x="1431" d="M193 -397v1482h188v-227q121 238 414 238q147 0 266 -68.5t188.5 -196t69.5 -290.5q0 -125 -42.5 -230.5t-117.5 -179.5l137 -174l-110 -86l-142 176q-112 -59 -249 -59q-138 0 -242 58t-164 167v-610h-196zM387 541q0 -172 104 -276.5t265 -104.5q97 0 170 37l-150 188 l113 88l149 -188q86 102 86 256q0 171 -104 277t-264 106t-264.5 -106t-104.5 -277z" />
<glyph unicode="&#x490;" horiz-adv-x="1189" d="M223 0v1434h752v295h188v-474h-737v-1255h-203z" />
<glyph unicode="&#x491;" horiz-adv-x="954" d="M190 0v1085h568v222h184v-394h-555v-913h-197z" />
<glyph unicode="&#x492;" horiz-adv-x="1265" d="M61 586v153h218v695h940l-2 -179h-738v-516h600v-153h-598v-586h-202v586h-218z" />
<glyph unicode="&#x493;" horiz-adv-x="1056" d="M88 399v140h135v546h799v-172h-602v-374h463v-140h-463v-399h-197v399h-135z" />
<glyph unicode="&#x494;" horiz-adv-x="1439" d="M223 0v1434h981v-179h-778v-538q193 96 383 96q233 0 383.5 -141.5t150.5 -384.5q0 -256 -156 -419t-394 -163q-72 0 -138 14l35 170q52 -10 90 -10q157 0 259 109t102 284q0 174 -106 274.5t-271 100.5q-170 0 -338 -108v-539h-203z" />
<glyph unicode="&#x495;" horiz-adv-x="1230" d="M190 0v1085h777v-172h-580v-399q158 70 311 70q211 0 348.5 -128t137.5 -350q0 -230 -145 -373t-380 -143q-63 0 -153 17l41 170q58 -10 100 -10q156 0 246 89.5t90 241.5q0 81 -25.5 143.5t-70 100.5t-101 57t-122.5 19q-145 0 -277 -78v-340h-197z" />
<glyph unicode="&#x496;" horiz-adv-x="2187" d="M39 0l473 745l-438 689h219l383 -623h278v623h201v-623h275l385 623h219l-439 -693l359 -563h205v-491h-191v313h-139l-402 631h-272v-631h-201v631h-274l-401 -631h-240z" />
<glyph unicode="&#x497;" horiz-adv-x="1806" d="M27 0l372 561l-344 524h209l293 -458h213v458h197v-458h213l293 458h210l-344 -526l260 -391h195v-399h-178v231h-137l-301 459h-211v-459h-197v459h-211l-299 -459h-233z" />
<glyph unicode="&#x498;" horiz-adv-x="1314" d="M66 156l71 151q94 -73 211.5 -110t235.5 -37q172 0 288.5 72.5t116.5 199.5q0 109 -88 167t-248 58h-319v166h305q136 0 213.5 56.5t77.5 156.5q0 113 -101 178.5t-254 65.5q-212 0 -399 -115l-65 168q220 123 471 123q151 0 276 -45.5t202 -137t77 -212.5 q0 -109 -60.5 -191t-167.5 -122q134 -37 210.5 -128.5t76.5 -218.5q0 -112 -65.5 -201.5t-172.5 -141.5t-241 -68v-303h-191v301q-256 19 -460 168z" />
<glyph unicode="&#x499;" horiz-adv-x="1114" d="M57 109l60 149q76 -50 177.5 -77t203.5 -27q139 0 222 47.5t83 130.5q0 75 -67 116t-187 41h-199v142h185q110 0 173.5 38.5t63.5 106.5q0 73 -75 114.5t-201 41.5q-160 0 -342 -84l-54 151q198 101 416 101q200 0 329.5 -82t129.5 -213q0 -80 -53 -143.5t-144 -96.5 q109 -28 168.5 -92.5t59.5 -157.5q0 -127 -110.5 -214.5t-287.5 -108.5v-223h-186v221q-208 15 -365 119z" />
<glyph unicode="&#x49a;" horiz-adv-x="1546" d="M223 0v1434h201v-623h303l451 623h219l-512 -695l407 -561h226v-491h-191v313h-139l-465 631h-299v-631h-201z" />
<glyph unicode="&#x49b;" horiz-adv-x="1224" d="M190 0v1085h197v-458h229l353 458h211l-412 -522l309 -395h215v-399h-178v231h-137l-365 459h-225v-459h-197z" />
<glyph unicode="&#x49c;" horiz-adv-x="1515" d="M223 0v1434h201v-623h143v289h154v-289h98l402 623h219l-459 -695l498 -739h-240l-422 631h-96v-287h-154v287h-143v-631h-201z" />
<glyph unicode="&#x49d;" horiz-adv-x="1257" d="M186 0v1085h197v-458h102v204h144v-204h63l303 458h207l-356 -524l387 -561h-229l-314 459h-61v-201h-144v201h-102v-459h-197z" />
<glyph unicode="&#x49e;" horiz-adv-x="1501" d="M72 1108v145h196v181h201v-181h346v-145h-346v-297h303l451 623h219l-512 -695l536 -739h-233l-465 631h-299v-631h-201v1108h-196z" />
<glyph unicode="&#x49f;" horiz-adv-x="1222" d="M0 1231v141h193v148h196v-150h311v-139h-311v-604h225l355 458h211l-412 -524l440 -561h-233l-365 459h-221v-459h-196v1231h-193z" />
<glyph unicode="&#x4a0;" horiz-adv-x="1693" d="M27 1255v179h635v-623h303l450 623h219l-512 -695l537 -739h-232l-466 631h-299v-631h-201v1255h-434z" />
<glyph unicode="&#x4a1;" horiz-adv-x="1372" d="M8 915v170h529v-458h227l352 458h213l-411 -522l440 -563h-232l-364 459h-225v-459h-197v915h-332z" />
<glyph unicode="&#x4a2;" horiz-adv-x="1734" d="M223 0v1434h205v-617h823v617h205v-1256h223v-491h-188v313h-240v639h-823v-639h-205z" />
<glyph unicode="&#x4a3;" horiz-adv-x="1437" d="M190 0v1085h197v-460h619v460h196v-913h170v-403h-184v231h-182v455h-619v-455h-197z" />
<glyph unicode="&#x4a4;" horiz-adv-x="2226" d="M223 0v1434h205v-617h823v617h949l-2 -179h-738l2 -1255h-211v639h-823v-639h-205z" />
<glyph unicode="&#x4a5;" horiz-adv-x="1814" d="M190 0v1085h197v-460h619v460h798v-172h-602v-913h-196v455h-619v-455h-197z" />
<glyph unicode="&#x4a6;" horiz-adv-x="2449" d="M223 0v1434h1235v-713q188 92 375 92q152 0 273 -61.5t192.5 -182.5t71.5 -282q0 -127 -42 -236t-115.5 -184.5t-175 -118.5t-216.5 -43q-74 0 -140 14l35 170q55 -10 92 -10q155 0 257 110t102 283t-104 272t-267 99q-168 0 -338 -102v-541h-201v1255h-831v-1255h-203z " />
<glyph unicode="&#x4a7;" horiz-adv-x="1998" d="M190 0v1085h977v-569q157 68 308 68q136 0 244.5 -55t173.5 -165t65 -258q0 -231 -145 -373.5t-381 -142.5q-64 0 -154 17l41 170q58 -10 102 -10q156 0 246 89.5t90 241.5q0 157 -91.5 238.5t-229.5 81.5q-142 0 -269 -74v-344h-196v913h-584v-913h-197z" />
<glyph unicode="&#x4a8;" horiz-adv-x="1994" d="M117 758q0 218 95 402t265 298l160 -94q-148 -101 -231.5 -264t-83.5 -350q0 -277 173.5 -447t456.5 -170q48 0 95 6q-153 115 -240.5 290.5t-87.5 387.5q0 289 156.5 467t410.5 178q246 0 397.5 -168t151.5 -442q0 -222 -104.5 -411t-286.5 -308q82 -14 145 -14 q122 0 246 37l18 -152q-139 -37 -274 -37q-182 0 -342 66q-151 -53 -322 -53q-233 0 -415 98t-282.5 275t-100.5 405zM926 815q0 -211 89.5 -371t246.5 -245q172 80 269 244.5t97 383.5q0 211 -92.5 332t-253.5 121q-163 0 -259.5 -126t-96.5 -339z" />
<glyph unicode="&#x4a9;" horiz-adv-x="1650" d="M96 580q0 164 75 302.5t210 223.5l154 -86q-116 -84 -179 -199t-63 -248q0 -201 133.5 -321.5t355.5 -120.5q29 0 43 2q-108 88 -168.5 212.5t-60.5 272.5q0 221 127 355.5t338 134.5q203 0 326.5 -126.5t123.5 -332.5q0 -160 -76 -297t-210 -229q43 -6 90 -6 q94 0 196 24l13 -143q-110 -29 -224 -29q-150 0 -286 54q-128 -39 -262 -39q-293 0 -474.5 164.5t-181.5 431.5zM788 623q0 -148 67 -262t185 -177q132 59 206.5 177.5t74.5 275.5q0 138 -72.5 221.5t-189.5 83.5q-123 0 -197 -87t-74 -232z" />
<glyph unicode="&#x4aa;" horiz-adv-x="1470" d="M106 717q0 157 58 293t158.5 232.5t241.5 152t302 55.5q167 0 307.5 -57t237.5 -166l-133 -129q-161 170 -404 170q-120 0 -224.5 -42t-179 -114.5t-117 -175t-42.5 -219.5t42.5 -219.5t117 -175t179 -114.5t224.5 -42q241 0 404 172l133 -129q-180 -201 -483 -223v-299 h-191v305q-279 42 -455 241.5t-176 483.5z" />
<glyph unicode="&#x4ab;" horiz-adv-x="1169" d="M90 543q0 160 73.5 286.5t204.5 196.5t296 70q148 0 263 -59.5t179 -172.5l-150 -96q-103 156 -294 156q-162 0 -267.5 -105t-105.5 -276q0 -174 105 -278.5t268 -104.5q192 0 294 155l150 -94q-57 -98 -152 -156.5t-217 -72.5v-223h-186v227q-207 36 -334 184.5 t-127 362.5z" />
<glyph unicode="&#x4ac;" horiz-adv-x="1234" d="M27 1255v179h1181v-179h-491v-1077h219v-491h-188v313h-232v1255h-489z" />
<glyph unicode="&#x4ad;" horiz-adv-x="1009" d="M8 913v172h991v-172h-397v-741h170v-403h-184v231h-182v913h-398z" />
<glyph unicode="&#x4ae;" horiz-adv-x="1366" d="M14 1434h217l459 -756l461 756h203l-570 -938v-496h-202v500z" />
<glyph unicode="&#x4af;" horiz-adv-x="1175" d="M12 1085h207l373 -868l381 868h190l-477 -1089v-393h-199v393z" />
<glyph unicode="&#x4b0;" horiz-adv-x="1366" d="M14 1434h217l459 -756l461 756h203l-518 -854h280v-140h-332v-440h-202v440h-342v140h292z" />
<glyph unicode="&#x4b1;" horiz-adv-x="1175" d="M12 1085h207l373 -868l381 868h190l-440 -1005h303v-139h-340v-338h-199v338h-342v139h306z" />
<glyph unicode="&#x4b2;" horiz-adv-x="1443" d="M35 0l522 737l-487 697h235l375 -525l375 525h239l-485 -689l399 -567h213v-491h-190v313h-139l-412 571l-410 -571h-235z" />
<glyph unicode="&#x4b3;" horiz-adv-x="1107" d="M18 0l428 555l-407 530h219l299 -391l297 391h215l-410 -530l302 -387h221v-399h-178v231h-138v2l-311 414l-317 -416h-220z" />
<glyph unicode="&#x4b4;" horiz-adv-x="1994" d="M29 1255v179h1124v-179h-430v-1079h799v1256h202v-1256h222v-504h-191v326h-1235v1257h-491z" />
<glyph unicode="&#x4b5;" horiz-adv-x="1579" d="M10 913v172h912v-172h-318v-741h549v913h197v-913h155v-403h-184v231h-913v913h-398z" />
<glyph unicode="&#x4b6;" horiz-adv-x="1562" d="M111 969v465h200v-443q0 -159 97.5 -245.5t275.5 -86.5q195 0 397 91v684h203v-1256h217v-491h-188v313h-232v567q-227 -88 -419 -88q-263 0 -407 128t-144 362z" />
<glyph unicode="&#x4b7;" horiz-adv-x="1298" d="M86 733v352h197v-340q0 -113 70.5 -170t197.5 -57q143 0 309 72v495h197v-913h170v-403h-185v231h-182v438q-178 -82 -350 -82q-203 0 -313.5 94t-110.5 283z" />
<glyph unicode="&#x4b8;" horiz-adv-x="1507" d="M109 969v465h200v-443q0 -140 76.5 -224t218.5 -103v286h154v-286q165 12 321 86v684h203v-1434h-203v567q-175 -68 -321 -82v-292h-154v288q-237 12 -366 139t-129 349z" />
<glyph unicode="&#x4b9;" horiz-adv-x="1247" d="M84 733v352h197v-340q0 -99 55.5 -155.5t155.5 -67.5v213h145v-211q106 15 221 66v495h197v-1085h-197v438q-110 -51 -221 -71v-213h-145v202q-195 3 -301.5 97.5t-106.5 279.5z" />
<glyph unicode="&#x4ba;" horiz-adv-x="1507" d="M223 0v1434h203v-568q227 88 420 88q263 0 407 -127.5t144 -361.5v-465h-201v442q0 159 -97.5 245.5t-275.5 86.5q-197 0 -397 -90v-684h-203z" />
<glyph unicode="&#x4bb;" horiz-adv-x="1380" d="M190 0v1520h197v-588q62 79 160.5 121.5t222.5 42.5q206 0 328.5 -119.5t122.5 -351.5v-625h-197v602q0 158 -76 238t-217 80q-160 0 -252 -93.5t-92 -267.5v-559h-197z" />
<glyph unicode="&#x4bc;" horiz-adv-x="2025" d="M66 946q0 118 59 230l192 -39q-57 -83 -57 -172q0 -77 48 -125.5t136 -48.5h31q18 199 123 350.5t265 230t347 78.5q148 0 281 -52t233 -144.5t159 -230.5t59 -300q0 -50 -11 -107h-1247q22 -137 101 -240.5t192 -156.5t244 -53q242 0 434 174l147 -133 q-126 -111 -276 -167t-305 -56q-137 0 -264 43t-228 122t-168.5 200t-83.5 267h-57q-166 0 -260 93.5t-94 236.5zM680 791h1049q-14 142 -87 251.5t-185.5 168.5t-246.5 59q-135 0 -249.5 -59t-189.5 -168.5t-91 -251.5z" />
<glyph unicode="&#x4bd;" horiz-adv-x="1579" d="M43 707q0 82 47 178l164 -35q-39 -62 -39 -119q0 -52 37.5 -82.5t109.5 -30.5h21q26 212 180.5 345t376.5 133q244 0 399.5 -155t155.5 -404q0 -33 -6 -60h-909q19 -143 129.5 -230t275.5 -87q204 0 326 131l110 -127q-75 -86 -188 -131t-252 -45q-250 0 -412.5 135 t-185.5 354h-45q-142 0 -218.5 62.5t-76.5 167.5zM580 618h720q-15 138 -114 225t-246 87q-145 0 -244 -86.5t-116 -225.5z" />
<glyph unicode="&#x4be;" horiz-adv-x="2025" d="M66 946q0 118 59 230l192 -39q-57 -83 -57 -172q0 -77 48 -125.5t136 -48.5h31q18 199 123 350.5t265 230t347 78.5q148 0 281 -52t233 -144.5t159 -230.5t59 -300q0 -50 -11 -107h-1247q22 -137 101 -240.5t192 -156.5t244 -53q242 0 434 174l147 -133 q-212 -188 -483 -217v-303h-191v301q-124 14 -234.5 62.5t-198.5 127t-145.5 191.5t-72.5 247h-57q-166 0 -260 93.5t-94 236.5zM680 791h1049q-14 142 -87 251.5t-185.5 168.5t-246.5 59q-135 0 -249.5 -59t-189.5 -168.5t-91 -251.5z" />
<glyph unicode="&#x4bf;" horiz-adv-x="1579" d="M43 707q0 82 47 178l164 -35q-39 -62 -39 -119q0 -52 37.5 -82.5t109.5 -30.5h21q26 212 180.5 345t376.5 133q244 0 399.5 -155t155.5 -404q0 -33 -6 -60h-909q19 -143 129.5 -230t275.5 -87q204 0 326 131l110 -127q-66 -75 -163 -120t-214 -54v-221h-186v229 q-200 32 -327.5 160.5t-147.5 318.5h-45q-142 0 -218.5 62.5t-76.5 167.5zM580 618h720q-15 138 -114 225t-246 87q-145 0 -244 -86.5t-116 -225.5z" />
<glyph unicode="&#x4c0;" horiz-adv-x="651" d="M223 0v1434h205v-1434h-205z" />
<glyph unicode="&#x4c1;" horiz-adv-x="2107" d="M39 0l473 745l-438 689h219l383 -623h278v623h201v-623h275l385 623h219l-439 -693l473 -741h-239l-402 631h-272v-631h-201v631h-274l-401 -631h-240zM705 1815h145q1 -79 56 -123.5t151 -44.5q93 0 148.5 44.5t58.5 123.5h143q-2 -134 -93 -207.5t-257 -73.5 q-168 0 -259 73.5t-93 207.5z" />
<glyph unicode="&#x4c2;" horiz-adv-x="1738" d="M27 0l372 561l-344 524h209l293 -458h213v458h197v-458h213l293 458h210l-344 -526l373 -559h-233l-301 459h-211v-459h-197v459h-211l-299 -459h-233zM547 1509h133q2 -77 52.5 -122.5t133.5 -45.5q85 0 136 45.5t53 122.5h137q-3 -137 -88 -209.5t-236 -72.5 t-235.5 72.5t-85.5 209.5z" />
<glyph unicode="&#x4c3;" horiz-adv-x="1462" d="M223 0v1434h201v-623h303l449 623h219l-510 -697q253 -248 391.5 -449.5t138.5 -357.5q0 -161 -91.5 -252.5t-248.5 -91.5q-123 0 -241 62l53 155q77 -41 147 -41q73 0 116.5 46.5t43.5 128.5q0 126 -134 315.5t-339 378.5h-297v-631h-201z" />
<glyph unicode="&#x4c4;" horiz-adv-x="1224" d="M190 0v1085h197v-456h231l351 456h211l-400 -507q186 -167 288.5 -338.5t102.5 -321.5q0 -149 -90.5 -238.5t-242.5 -89.5q-116 0 -236 60l55 147q81 -43 150 -43q77 0 122.5 46.5t45.5 127.5q0 111 -89.5 254.5t-240.5 276.5h-258v-459h-197z" />
<glyph unicode="&#x4c6;" horiz-adv-x="1357" d="M10 2l13 166q27 -6 49 -6q49 0 84 28.5t54.5 73.5t31.5 113t17.5 132.5t9.5 147.5q1 18 1 27l19 401h833v-913h172l-118 -403h-160l59 231h-149v913h-467l-13 -241q-5 -105 -12.5 -185t-22 -162.5t-37.5 -141t-55.5 -105.5t-80 -70.5t-107.5 -23.5q-53 0 -121 18z" />
<glyph unicode="&#x4c7;" horiz-adv-x="1669" d="M223 0v1434h203v-627h819v627h201v-1514q0 -107 -49 -184t-124.5 -112.5t-166.5 -35.5q-129 0 -244 70l60 149q73 -49 151 -49q74 0 123 44.5t49 127.5v697h-819v-627h-203z" />
<glyph unicode="&#x4c8;" horiz-adv-x="1406" d="M190 0v1085h197v-460h631v460h196v-1144q0 -161 -88.5 -256t-248.5 -95q-151 0 -240 68l61 149q60 -51 152 -51q80 0 124 49t44 142v508h-631v-455h-197z" />
<glyph unicode="&#x4c9;" horiz-adv-x="1736" d="M223 0v1434h205v-617h823v617h205v-1256h211l-145 -491h-164l78 313h-185v639h-823v-639h-205z" />
<glyph unicode="&#x4ca;" horiz-adv-x="1439" d="M190 0v1085h197v-460h619v460h196v-913h172l-119 -403h-159l59 231h-149v455h-619v-455h-197z" />
<glyph unicode="&#x4cb;" horiz-adv-x="1499" d="M104 993v441h203v-418q0 -152 97 -234t272 -82q199 0 397 86v648h203v-1434h-260v-313h-191v491h248v432q-221 -90 -418 -90q-263 0 -407 123t-144 350z" />
<glyph unicode="&#x4cc;" horiz-adv-x="1241" d="M80 766v319h196v-307q0 -112 71 -168.5t198 -56.5q147 0 309 72v460h197v-1085h-199v-231h-186v395h188v307q-174 -80 -350 -80q-203 0 -313.5 93.5t-110.5 281.5z" />
<glyph unicode="&#x4cd;" horiz-adv-x="2048" d="M223 0v1434h168l598 -1008l590 1008h168l2 -1256h225l-145 -491h-164l78 313h-191l-2 1044l-518 -870h-94l-518 864v-1038h-197z" />
<glyph unicode="&#x4ce;" horiz-adv-x="1697" d="M190 0v1085h203l426 -733l438 733h185v-913h190l-119 -403h-159l59 231h-149v793l-406 -670h-86l-401 672v-795h-181z" />
<glyph unicode="&#x4cf;" horiz-adv-x="579" d="M193 0v1520h196v-1520h-196z" />
<glyph unicode="&#x4d0;" horiz-adv-x="1552" d="M25 0l649 1434h203l651 -1434h-215l-158 358h-762l-157 -358h-211zM424 1815h145q1 -79 56 -123.5t151 -44.5q93 0 148.5 44.5t58.5 123.5h143q-2 -134 -93 -207.5t-257 -73.5q-168 0 -259 73.5t-93 207.5zM465 522h618l-309 703z" />
<glyph unicode="&#x4d1;" horiz-adv-x="1206" d="M98 307q0 68 23.5 123.5t73 100t136 69.5t204.5 25h311v39q0 126 -73.5 194t-217.5 68q-97 0 -189 -31.5t-155 -85.5l-82 147q85 67 201.5 103.5t247.5 36.5q226 0 345 -110.5t119 -330.5v-655h-186v143q-104 -155 -356 -155q-183 0 -292.5 88.5t-109.5 230.5zM270 1509 h133q1 -76 52.5 -122t134.5 -46q85 0 135.5 45.5t52.5 122.5h137q-3 -137 -87.5 -209.5t-235.5 -72.5t-236 72.5t-86 209.5zM293 315q0 -82 63.5 -129t175.5 -47t195 50t119 143v151h-303q-250 0 -250 -168z" />
<glyph unicode="&#x4d2;" horiz-adv-x="1552" d="M25 0l649 1434h203l651 -1434h-215l-158 358h-762l-157 -358h-211zM465 522h618l-309 703zM481 1690q0 45 31 75.5t74 30.5t73.5 -30.5t30.5 -75.5t-30.5 -75t-73.5 -30t-74 30t-31 75zM862 1690q0 45 31 75.5t74 30.5t73.5 -30.5t30.5 -75.5t-30.5 -75t-73.5 -30t-74 30 t-31 75z" />
<glyph unicode="&#x4d3;" horiz-adv-x="1206" d="M98 307q0 68 23.5 123.5t73 100t136 69.5t204.5 25h311v39q0 126 -73.5 194t-217.5 68q-97 0 -189 -31.5t-155 -85.5l-82 147q85 67 201.5 103.5t247.5 36.5q226 0 345 -110.5t119 -330.5v-655h-186v143q-104 -155 -356 -155q-183 0 -292.5 88.5t-109.5 230.5zM293 315 q0 -82 63.5 -129t175.5 -47t195 50t119 143v151h-303q-250 0 -250 -168zM297 1382q0 45 30.5 76t73.5 31t74 -31t31 -76t-30.5 -74.5t-74.5 -29.5q-43 0 -73.5 29.5t-30.5 74.5zM678 1382q0 45 30.5 76t73.5 31t74 -31t31 -76t-30.5 -74.5t-74.5 -29.5q-43 0 -73.5 29.5 t-30.5 74.5z" />
<glyph unicode="&#x4d4;" horiz-adv-x="2142" d="M14 0l854 1434h1149v-179h-809v-440h719v-174h-719v-463h838v-178h-1040v358h-570l-211 -358h-211zM532 522h474v733h-41z" />
<glyph unicode="&#x4d5;" horiz-adv-x="2037" d="M98 315q0 64 23.5 117.5t73 97.5t136.5 68.5t204 24.5h311v41q0 126 -73 194t-216 68q-98 0 -190.5 -31.5t-155.5 -85.5l-82 147q84 67 201 103.5t245 36.5q301 0 404 -193q72 91 180 142t236 51q234 0 387 -155t153 -392q0 -41 -6 -68h-885q17 -146 124 -233.5 t270 -87.5q191 0 313 131l111 -127q-150 -176 -430 -176q-152 0 -275 54.5t-203 164.5q-63 -115 -178.5 -167t-255.5 -52q-196 0 -309 89.5t-113 237.5zM293 319q0 -86 64.5 -133t179.5 -47q143 0 226 74.5t83 198.5v69h-303q-250 0 -250 -162zM1047 623h694 q-17 143 -116.5 225t-231.5 82q-131 0 -229.5 -81.5t-116.5 -225.5z" />
<glyph unicode="&#x4d6;" horiz-adv-x="1361" d="M223 0v1434h1012v-179h-807v-440h719v-174h-719v-463h836v-178h-1041zM379 1815h145q1 -79 56 -123.5t151 -44.5q93 0 148.5 44.5t58.5 123.5h143q-2 -134 -93 -207.5t-257 -73.5q-168 0 -259 73.5t-93 207.5z" />
<glyph unicode="&#x4d7;" horiz-adv-x="1286" d="M90 543q0 159 70.5 285.5t195 197t279.5 70.5q236 0 386 -155t150 -404q0 -24 -4 -60h-880q19 -143 126 -230t267 -87q194 0 313 131l109 -127q-150 -176 -428 -176q-261 0 -422.5 155t-161.5 400zM287 618h696q-15 138 -111 225t-237 87t-237 -87t-111 -225zM311 1509 h133q1 -76 52.5 -122t134.5 -46q85 0 135.5 45.5t52.5 122.5h137q-3 -137 -87.5 -209.5t-235.5 -72.5t-236 72.5t-86 209.5z" />
<glyph unicode="&#x4d8;" horiz-adv-x="1685" d="M84 711q0 63 6 94h1278q-30 211 -187.5 337t-367.5 126q-242 0 -442 -174l-148 133q127 111 281 167t313 56q151 0 288 -50t242.5 -141t168.5 -230.5t63 -307.5q0 -133 -39.5 -250t-110 -205.5t-165 -152.5t-206.5 -96.5t-233 -32.5q-151 0 -286 52t-236 144.5 t-160 230.5t-59 300zM291 655q19 -219 170 -355t364 -136q214 0 369 136.5t178 354.5h-1081z" />
<glyph unicode="&#x4d9;" horiz-adv-x="1284" d="M115 549q0 23 4 59h880q-19 143 -126 230.5t-267 87.5q-194 0 -313 -131l-109 127q150 176 428 176q261 0 422.5 -155t161.5 -400q0 -159 -70.5 -285.5t-195 -197t-279.5 -70.5q-236 0 -386 155t-150 404zM303 467q15 -138 111 -224.5t237 -86.5t237 86.5t111 224.5h-696 z" />
<glyph unicode="&#x4da;" horiz-adv-x="1685" d="M84 711q0 63 6 94h1278q-30 211 -187.5 337t-367.5 126q-242 0 -442 -174l-148 133q127 111 281 167t313 56q151 0 288 -50t242.5 -141t168.5 -230.5t63 -307.5q0 -133 -39.5 -250t-110 -205.5t-165 -152.5t-206.5 -96.5t-233 -32.5q-151 0 -286 52t-236 144.5 t-160 230.5t-59 300zM291 655q19 -219 170 -355t364 -136q214 0 369 136.5t178 354.5h-1081zM551 1690q0 45 30.5 75.5t73.5 30.5t74 -30.5t31 -75.5t-31 -75t-74 -30t-73.5 30t-30.5 75zM932 1690q0 45 30.5 75.5t73.5 30.5t74 -30.5t31 -75.5t-31 -75t-74 -30t-73.5 30 t-30.5 75z" />
<glyph unicode="&#x4db;" horiz-adv-x="1284" d="M115 549q0 23 4 59h880q-19 143 -126 230.5t-267 87.5q-194 0 -313 -131l-109 127q150 176 428 176q261 0 422.5 -155t161.5 -400q0 -159 -70.5 -285.5t-195 -197t-279.5 -70.5q-236 0 -386 155t-150 404zM303 467q15 -138 111 -224.5t237 -86.5t237 86.5t111 224.5h-696 zM358 1382q0 45 31 76t74 31t73.5 -31t30.5 -76t-30.5 -74.5t-73.5 -29.5q-44 0 -74.5 29.5t-30.5 74.5zM739 1382q0 45 31 76t74 31t73.5 -31t30.5 -76t-30.5 -74.5t-73.5 -29.5q-44 0 -74.5 29.5t-30.5 74.5z" />
<glyph unicode="&#x4dc;" horiz-adv-x="2107" d="M39 0l473 745l-438 689h219l383 -623h278v623h201v-623h275l385 623h219l-439 -693l473 -741h-239l-402 631h-272v-631h-201v631h-274l-401 -631h-240zM762 1690q0 45 30.5 75.5t73.5 30.5t74 -30.5t31 -75.5t-31 -75t-74 -30t-73.5 30t-30.5 75zM1143 1690 q0 45 30.5 75.5t73.5 30.5t74 -30.5t31 -75.5t-31 -75t-74 -30t-73.5 30t-30.5 75z" />
<glyph unicode="&#x4dd;" horiz-adv-x="1738" d="M27 0l372 561l-344 524h209l293 -458h213v458h197v-458h213l293 458h210l-344 -526l373 -559h-233l-301 459h-211v-459h-197v459h-211l-299 -459h-233zM573 1382q0 45 31 76t74 31t73.5 -31t30.5 -76t-30.5 -74.5t-73.5 -29.5q-44 0 -74.5 29.5t-30.5 74.5zM954 1382 q0 45 31 76t74 31t73.5 -31t30.5 -76t-30.5 -74.5t-73.5 -29.5q-44 0 -74.5 29.5t-30.5 74.5z" />
<glyph unicode="&#x4de;" horiz-adv-x="1314" d="M66 156l71 151q94 -73 211.5 -110t235.5 -37q172 0 288.5 72.5t116.5 199.5q0 109 -88 167t-248 58h-319v166h305q136 0 213.5 56.5t77.5 156.5q0 113 -101 178.5t-254 65.5q-212 0 -399 -115l-65 168q220 123 471 123q151 0 276 -45.5t202 -137t77 -212.5 q0 -109 -60.5 -191t-167.5 -122q134 -37 210.5 -128.5t76.5 -218.5t-83 -224t-215 -145t-290 -48q-144 0 -285 43t-257 129zM358 1690q0 45 31 75.5t74 30.5t73.5 -30.5t30.5 -75.5t-30.5 -75t-73.5 -30t-74 30t-31 75zM739 1690q0 45 31 75.5t74 30.5t73.5 -30.5 t30.5 -75.5t-30.5 -75t-73.5 -30t-74 30t-31 75z" />
<glyph unicode="&#x4df;" horiz-adv-x="1114" d="M57 109l60 149q76 -50 177.5 -77t203.5 -27q139 0 222 47.5t83 130.5q0 75 -67 116t-187 41h-199v142h185q110 0 173.5 38.5t63.5 106.5q0 73 -75 114.5t-201 41.5q-160 0 -342 -84l-54 151q198 101 416 101q200 0 329.5 -82t129.5 -213q0 -80 -53 -143.5t-144 -96.5 q109 -28 168.5 -92.5t59.5 -157.5q0 -146 -143.5 -237.5t-362.5 -91.5q-252 0 -443 123zM244 1382q0 45 30.5 76t73.5 31t74 -31t31 -76t-30.5 -74.5t-74.5 -29.5q-43 0 -73.5 29.5t-30.5 74.5zM625 1382q0 45 30.5 76t73.5 31t74 -31t31 -76t-30.5 -74.5t-74.5 -29.5 q-43 0 -73.5 29.5t-30.5 74.5z" />
<glyph unicode="&#x4e0;" horiz-adv-x="1275" d="M63 156l76 161q78 -71 201.5 -113t263.5 -42q174 0 269.5 69t95.5 191q0 118 -94.5 184t-284.5 66h-119v141l393 447h-745v174h989v-140l-410 -465q232 -15 355 -124.5t123 -282.5q0 -93 -36 -171.5t-104.5 -138.5t-178.5 -94t-249 -34q-165 0 -312 46.5t-233 125.5z" />
<glyph unicode="&#x4e1;" horiz-adv-x="1079" d="M-41 -231l76 163q72 -73 187 -117t245 -44q165 0 253.5 70.5t88.5 197.5q0 124 -87 194t-263 70h-117v139l373 469h-705v174h940v-141l-385 -483q219 -17 333 -129.5t114 -292.5q0 -197 -139 -324t-398 -127q-155 0 -293.5 49t-222.5 132z" />
<glyph unicode="&#x4e2;" horiz-adv-x="1685" d="M223 0v1434h203v-1106l848 1106h188v-1434h-200v1104l-850 -1104h-189zM506 1622v123h668v-123h-668z" />
<glyph unicode="&#x4e3;" horiz-adv-x="1421" d="M190 0v1085h197v-790l666 790h178v-1085h-197v791l-663 -791h-181zM365 1315v123h667v-123h-667z" />
<glyph unicode="&#x4e4;" horiz-adv-x="1685" d="M223 0v1434h203v-1106l848 1106h188v-1434h-200v1104l-850 -1104h-189zM545 1690q0 45 30.5 75.5t73.5 30.5t74 -30.5t31 -75.5t-31 -75t-74 -30t-73.5 30t-30.5 75zM926 1690q0 45 30.5 75.5t73.5 30.5t74 -30.5t31 -75.5t-31 -75t-74 -30t-73.5 30t-30.5 75z" />
<glyph unicode="&#x4e5;" horiz-adv-x="1421" d="M190 0v1085h197v-790l666 790h178v-1085h-197v791l-663 -791h-181zM403 1382q0 45 31 76t74 31t73.5 -31t30.5 -76t-30.5 -74.5t-73.5 -29.5q-44 0 -74.5 29.5t-30.5 74.5zM784 1382q0 45 31 76t74 31t73.5 -31t30.5 -76t-30.5 -74.5t-73.5 -29.5q-44 0 -74.5 29.5 t-30.5 74.5z" />
<glyph unicode="&#x4e6;" horiz-adv-x="1736" d="M104 717q0 155 58 291t158.5 233t243 153t304.5 56q215 0 389 -94.5t272.5 -262.5t98.5 -376t-98.5 -376t-272.5 -262.5t-389 -94.5q-162 0 -304.5 56t-243 153t-158.5 233t-58 291zM309 717q0 -238 159 -394.5t400 -156.5q238 0 396.5 157t158.5 394t-158.5 394 t-396.5 157q-241 0 -400 -156.5t-159 -394.5zM573 1690q0 45 31 75.5t74 30.5t73.5 -30.5t30.5 -75.5t-30.5 -75t-73.5 -30t-74 30t-31 75zM954 1690q0 45 31 75.5t74 30.5t73.5 -30.5t30.5 -75.5t-30.5 -75t-73.5 -30t-74 30t-31 75z" />
<glyph unicode="&#x4e7;" horiz-adv-x="1312" d="M90 543q0 242 160 397.5t405 155.5t404.5 -155.5t159.5 -397.5t-159.5 -398.5t-404.5 -156.5t-405 156.5t-160 398.5zM289 543q0 -171 103.5 -277t262.5 -106t262 106t103 277t-103 276t-262 105t-262.5 -105t-103.5 -276zM358 1382q0 45 31 76t74 31t73.5 -31t30.5 -76 t-30.5 -74.5t-73.5 -29.5q-44 0 -74.5 29.5t-30.5 74.5zM739 1382q0 45 31 76t74 31t73.5 -31t30.5 -76t-30.5 -74.5t-73.5 -29.5q-44 0 -74.5 29.5t-30.5 74.5z" />
<glyph unicode="&#x4e8;" horiz-adv-x="1736" d="M104 717q0 155 58 291t158.5 233t243 153t304.5 56q215 0 389 -94.5t272.5 -262.5t98.5 -376t-98.5 -376t-272.5 -262.5t-389 -94.5q-162 0 -304.5 56t-243 153t-158.5 233t-58 291zM315 637q26 -208 179.5 -339.5t373.5 -131.5q219 0 371 131.5t178 339.5h-1102z M315 799h1102q-28 207 -180 338t-369 131q-219 0 -372 -131t-181 -338z" />
<glyph unicode="&#x4e9;" horiz-adv-x="1331" d="M90 543q0 243 163 398t413 155t412.5 -155t162.5 -398q0 -242 -162.5 -398.5t-412.5 -156.5t-413 156.5t-163 398.5zM283 473q22 -149 126.5 -238.5t256.5 -89.5q153 0 257 89t126 239h-766zM283 612h766q-22 150 -126 239t-257 89t-257 -89t-126 -239z" />
<glyph unicode="&#x4ea;" horiz-adv-x="1736" d="M104 717q0 155 58 291t158.5 233t243 153t304.5 56q215 0 389 -94.5t272.5 -262.5t98.5 -376t-98.5 -376t-272.5 -262.5t-389 -94.5q-162 0 -304.5 56t-243 153t-158.5 233t-58 291zM315 637q26 -208 179.5 -339.5t373.5 -131.5q219 0 371 131.5t178 339.5h-1102z M315 799h1102q-28 207 -180 338t-369 131q-219 0 -372 -131t-181 -338zM573 1690q0 45 31 75.5t74 30.5t73.5 -30.5t30.5 -75.5t-30.5 -75t-73.5 -30t-74 30t-31 75zM954 1690q0 45 31 75.5t74 30.5t73.5 -30.5t30.5 -75.5t-30.5 -75t-73.5 -30t-74 30t-31 75z" />
<glyph unicode="&#x4eb;" horiz-adv-x="1331" d="M90 543q0 243 163 398t413 155t412.5 -155t162.5 -398q0 -242 -162.5 -398.5t-412.5 -156.5t-413 156.5t-163 398.5zM283 473q22 -149 126.5 -238.5t256.5 -89.5q153 0 257 89t126 239h-766zM283 612h766q-22 150 -126 239t-257 89t-257 -89t-126 -239zM371 1382 q0 45 30.5 76t73.5 31t74 -31t31 -76t-30.5 -74.5t-74.5 -29.5q-43 0 -73.5 29.5t-30.5 74.5zM752 1382q0 45 30.5 76t73.5 31t74 -31t31 -76t-30.5 -74.5t-74.5 -29.5q-43 0 -73.5 29.5t-30.5 74.5z" />
<glyph unicode="&#x4ec;" horiz-adv-x="1447" d="M59 209l129 129q161 -170 420 -170q209 0 353 133t167 344h-694v168h692q-31 201 -174 327t-344 126q-256 0 -420 -170l-129 129q96 110 240.5 167.5t318.5 57.5q204 0 369 -94t258.5 -262t93.5 -377t-93.5 -377t-258.5 -262t-369 -94q-176 0 -319.5 57t-239.5 168z M360 1690q0 45 31 75.5t74 30.5t73.5 -30.5t30.5 -75.5t-30.5 -75t-73.5 -30t-74 30t-31 75zM741 1690q0 45 31 75.5t74 30.5t73.5 -30.5t30.5 -75.5t-30.5 -75t-73.5 -30t-74 30t-31 75z" />
<glyph unicode="&#x4ed;" horiz-adv-x="1177" d="M49 162l115 114q132 -129 332 -129q160 0 272 91.5t135 238.5h-545v146h541q-26 140 -136.5 227.5t-266.5 87.5q-198 0 -332 -131l-115 113q79 87 196 132.5t259 45.5q166 0 300 -71t210 -198t76 -286q0 -160 -76 -287.5t-210 -198.5t-300 -71q-296 0 -455 176zM244 1382 q0 45 30.5 76t73.5 31t74 -31t31 -76t-30.5 -74.5t-74.5 -29.5q-43 0 -73.5 29.5t-30.5 74.5zM625 1382q0 45 30.5 76t73.5 31t74 -31t31 -76t-30.5 -74.5t-74.5 -29.5q-43 0 -73.5 29.5t-30.5 74.5z" />
<glyph unicode="&#x4ee;" horiz-adv-x="1415" d="M33 1434h219l465 -910l477 910h203l-637 -1182q-75 -141 -178.5 -211t-223.5 -70q-94 0 -192 43l53 164q76 -26 135 -26q136 0 224 143l32 51zM362 1622v123h668v-123h-668z" />
<glyph unicode="&#x4ef;" horiz-adv-x="1169" d="M-33 -309l84 147q83 -80 195 -80q72 0 120 38t87 130l34 76l-479 1083h205l379 -868l375 868h192l-526 -1194q-69 -165 -162.5 -233t-224.5 -68q-80 0 -154.5 26.5t-124.5 74.5zM223 1315v123h668v-123h-668z" />
<glyph unicode="&#x4f0;" horiz-adv-x="1415" d="M33 1434h219l465 -910l477 910h203l-637 -1182q-75 -141 -178.5 -211t-223.5 -70q-94 0 -192 43l53 164q76 -26 135 -26q136 0 224 143l32 51zM401 1690q0 45 31 75.5t74 30.5t73.5 -30.5t30.5 -75.5t-30.5 -75t-73.5 -30t-74 30t-31 75zM782 1690q0 45 31 75.5t74 30.5 t73.5 -30.5t30.5 -75.5t-30.5 -75t-73.5 -30t-74 30t-31 75z" />
<glyph unicode="&#x4f1;" horiz-adv-x="1169" d="M-33 -309l84 147q83 -80 195 -80q72 0 120 38t87 130l34 76l-479 1083h205l379 -868l375 868h192l-526 -1194q-69 -165 -162.5 -233t-224.5 -68q-80 0 -154.5 26.5t-124.5 74.5zM262 1382q0 45 31 76t74 31t73.5 -31t30.5 -76t-30.5 -74.5t-73.5 -29.5q-44 0 -74.5 29.5 t-30.5 74.5zM643 1382q0 45 31 76t74 31t73.5 -31t30.5 -76t-30.5 -74.5t-73.5 -29.5q-44 0 -74.5 29.5t-30.5 74.5z" />
<glyph unicode="&#x4f2;" horiz-adv-x="1415" d="M33 1434h219l465 -910l477 910h203l-637 -1182q-75 -141 -178.5 -211t-223.5 -70q-94 0 -192 43l53 164q76 -26 135 -26q136 0 224 143l32 51zM434 1550l184 267h209l-227 -267h-166zM793 1550l182 267h207l-224 -267h-165z" />
<glyph unicode="&#x4f3;" horiz-adv-x="1169" d="M-33 -309l84 147q83 -80 195 -80q72 0 120 38t87 130l34 76l-479 1083h205l379 -868l375 868h192l-526 -1194q-69 -165 -162.5 -233t-224.5 -68q-80 0 -154.5 26.5t-124.5 74.5zM295 1243l184 266h209l-227 -266h-166zM653 1243l183 266h206l-223 -266h-166z" />
<glyph unicode="&#x4f4;" horiz-adv-x="1507" d="M111 969v465h200v-443q0 -159 97.5 -245.5t275.5 -86.5q195 0 397 91v684h203v-1434h-203v567q-227 -88 -419 -88q-263 0 -407 128t-144 362zM403 1690q0 45 31 75.5t74 30.5t73.5 -30.5t30.5 -75.5t-30.5 -75t-73.5 -30t-74 30t-31 75zM784 1690q0 45 31 75.5t74 30.5 t73.5 -30.5t30.5 -75.5t-30.5 -75t-73.5 -30t-74 30t-31 75z" />
<glyph unicode="&#x4f5;" horiz-adv-x="1247" d="M86 733v352h197v-340q0 -113 70.5 -170t197.5 -57q143 0 309 72v495h197v-1085h-197v438q-178 -82 -350 -82q-203 0 -313.5 94t-110.5 283zM270 1382q0 45 31 76t74 31t73.5 -31t30.5 -76t-30.5 -74.5t-73.5 -29.5q-44 0 -74.5 29.5t-30.5 74.5zM651 1382q0 45 31 76 t74 31t73.5 -31t30.5 -76t-30.5 -74.5t-73.5 -29.5q-44 0 -74.5 29.5t-30.5 74.5z" />
<glyph unicode="&#x4f6;" horiz-adv-x="1183" d="M223 0v1434h940l-2 -179h-737l2 -1077h217v-491h-188v313h-232z" />
<glyph unicode="&#x4f7;" horiz-adv-x="999" d="M190 0v1085h799v-172h-602v-741h170v-403h-184v231h-183z" />
<glyph unicode="&#x4f8;" horiz-adv-x="2033" d="M223 0v1434h203v-500h426q257 0 392.5 -115t135.5 -338q0 -236 -147 -358.5t-418 -122.5h-592zM426 162h381q179 0 274 80t95 235q0 295 -369 295h-381v-610zM725 1690q0 45 30.5 75.5t73.5 30.5t74 -30.5t31 -75.5t-31 -75t-74 -30t-73.5 30t-30.5 75zM1106 1690 q0 45 30.5 75.5t73.5 30.5t74 -30.5t31 -75.5t-31 -75t-74 -30t-73.5 30t-30.5 75zM1608 0v1434h202v-1434h-202z" />
<glyph unicode="&#x4f9;" horiz-adv-x="1652" d="M190 0v1085h197v-366l293 -2q204 -1 313 -94t109 -261q0 -177 -118 -271.5t-337 -92.5zM387 150l246 -3q132 -2 201 53.5t69 164.5q0 106 -67 155t-203 51l-246 4v-425zM557 1382q0 45 31 76t74 31t73.5 -31t30.5 -76t-30.5 -74.5t-73.5 -29.5q-44 0 -74.5 29.5 t-30.5 74.5zM938 1382q0 45 30.5 76t73.5 31t74 -31t31 -76t-30.5 -74.5t-74.5 -29.5q-43 0 -73.5 29.5t-30.5 74.5zM1264 0v1085h196v-1085h-196z" />
<glyph unicode="&#x4fa;" horiz-adv-x="1267" d="M59 588v151h220v695h942v-179h-742v-516h600v-151h-600v-410h205v-260q0 -153 -95.5 -240.5t-240.5 -87.5q-129 0 -248 70l60 145q73 -49 153 -49q77 0 124.5 48t47.5 139v57h-206v588h-220z" />
<glyph unicode="&#x4fb;" horiz-adv-x="1007" d="M27 -340l57 145q70 -53 158 -53q80 0 123 50.5t43 146.5v51h-168v446h-172v140h172v499h716v-172h-520v-327h432v-140h-432v-274h168v-242q0 -156 -89 -248t-249 -92q-150 0 -239 70z" />
<glyph unicode="&#x4fc;" horiz-adv-x="1376" d="M29 0l536 735l-506 699h236l397 -549l393 549h226l-500 -689q27 -34 88.5 -110t87 -109t76 -98t73.5 -99t59 -88t52.5 -89.5t36 -80t26.5 -82t7 -73.5q0 -153 -97 -241.5t-245 -88.5q-122 0 -240 62l51 143q72 -41 146 -41q75 0 119.5 46t44.5 128q0 40 -14 87t-47 105 t-63 105.5t-87.5 121.5t-93.5 119t-105 130l-422 -592h-235z" />
<glyph unicode="&#x4fd;" horiz-adv-x="1107" d="M23 0l423 555l-403 530h221l295 -387l295 387h217l-397 -520q237 -279 325 -415t88 -256q0 -138 -94.5 -221t-238.5 -83q-119 0 -238 64l57 147q76 -47 152 -47q73 0 119.5 43.5t46.5 110.5q0 79 -71.5 186.5t-256.5 321.5l-317 -416h-223z" />
<glyph unicode="&#x4fe;" horiz-adv-x="1400" d="M53 0l465 653h-325v154h335l-440 627h236l374 -525l377 525h238l-443 -627h326v-154h-303l461 -653h-244l-412 571l-407 -571h-238z" />
<glyph unicode="&#x4ff;" horiz-adv-x="1165" d="M45 0l365 475h-232v139h240l-352 471h227l293 -393l299 393h211l-359 -471h252v-139h-229l358 -475h-229l-307 414l-318 -414h-219z" />
<glyph unicode="&#x1e08;" horiz-adv-x="1480" d="M98 717q0 157 58 293t158.5 232.5t241.5 152t302 55.5q167 0 307.5 -57t237.5 -166l-133 -129q-161 170 -404 170q-120 0 -224.5 -42t-179 -114.5t-117 -175t-42.5 -219.5t42.5 -219.5t117 -175t179 -114.5t224.5 -42q241 0 404 172l133 -129q-96 -107 -233 -164.5 t-300 -60.5l-22 -86q87 -9 132.5 -54.5t45.5 -115.5q0 -86 -69 -136.5t-185 -50.5q-108 0 -182 45l43 101q60 -35 139 -35q115 0 115 82q0 37 -29 58.5t-88 21.5h-55l45 176q-143 15 -265.5 76t-210 156t-137 223t-49.5 272zM688 1550l279 267h250l-345 -267h-184z" />
<glyph unicode="&#x1e09;" horiz-adv-x="1169" d="M86 543q0 243 161 398t412 155q148 0 263.5 -59.5t179.5 -172.5l-150 -96q-103 156 -295 156q-162 0 -267 -105t-105 -276q0 -174 104.5 -278.5t267.5 -104.5q193 0 295 155l150 -94q-64 -113 -178 -173t-260 -60l-25 -90q87 -9 132.5 -54.5t45.5 -115.5 q0 -86 -69 -136.5t-185 -50.5q-108 0 -182 45l43 101q60 -35 139 -35q115 0 115 82q0 37 -29 58.5t-88 21.5h-55l47 182q-209 34 -338 183t-129 364zM467 1243l278 266h250l-344 -266h-184z" />
<glyph unicode="&#x1e0c;" horiz-adv-x="1691" d="M215 0v1434h604q228 0 404 -90t273 -253t97 -374t-97 -374t-273 -253t-404 -90h-604zM420 178h387q264 0 423 148t159 391q0 242 -159 390t-423 148h-387v-1077zM680 -299q0 45 30.5 75.5t73.5 30.5t74 -30.5t31 -75.5t-30.5 -73.5t-74.5 -28.5t-74 28.5t-30 73.5z" />
<glyph unicode="&#x1e0d;" horiz-adv-x="1396" d="M86 543q0 247 154.5 400t394.5 153q245 0 379 -174v598h196v-1520h-188v172q-65 -91 -165 -137.5t-222 -46.5q-240 0 -394.5 154t-154.5 401zM285 543q0 -171 103.5 -277t262.5 -106q158 0 261.5 106t103.5 277t-103.5 276t-261.5 105q-159 0 -262.5 -105t-103.5 -276z M606 -299q0 45 31 75.5t74 30.5t73.5 -30.5t30.5 -75.5t-30 -73.5t-74 -28.5t-74.5 28.5t-30.5 73.5z" />
<glyph unicode="&#x1e0e;" horiz-adv-x="1691" d="M215 0v1434h604q228 0 404 -90t273 -253t97 -374t-97 -374t-273 -253t-404 -90h-604zM420 178h387q264 0 423 148t159 391q0 242 -159 390t-423 148h-387v-1077zM451 -231h667v-125h-667v125z" />
<glyph unicode="&#x1e0f;" horiz-adv-x="1396" d="M86 543q0 247 154.5 400t394.5 153q245 0 379 -174v598h196v-1520h-188v172q-65 -91 -165 -137.5t-222 -46.5q-240 0 -394.5 154t-154.5 401zM285 543q0 -171 103.5 -277t262.5 -106q158 0 261.5 106t103.5 277t-103.5 276t-261.5 105q-159 0 -262.5 -105t-103.5 -276z M377 -231h667v-125h-667v125z" />
<glyph unicode="&#x1e14;" horiz-adv-x="1372" d="M215 0v1434h1012v-179h-807v-440h719v-174h-719v-463h835v-178h-1040zM389 1595v117h668v-117h-668zM401 2073h224l239 -232h-159z" />
<glyph unicode="&#x1e15;" d="M86 543q0 159 70.5 285.5t195 197t279.5 70.5q236 0 386 -155t150 -404q0 -24 -4 -60h-880q19 -143 126 -230t267 -87q194 0 313 131l109 -127q-150 -176 -428 -176q-261 0 -422.5 155t-161.5 400zM283 618h696q-15 138 -111 225t-237 87t-237 -87t-111 -225zM295 1288 v117h668v-117h-668zM307 1765h223l240 -231h-160z" />
<glyph unicode="&#x1e16;" horiz-adv-x="1372" d="M215 0v1434h1012v-179h-807v-440h719v-174h-719v-463h835v-178h-1040zM389 1595v117h668v-117h-668zM582 1841l241 232h224l-304 -232h-161z" />
<glyph unicode="&#x1e17;" d="M86 543q0 159 70.5 285.5t195 197t279.5 70.5q236 0 386 -155t150 -404q0 -24 -4 -60h-880q19 -143 126 -230t267 -87q194 0 313 131l109 -127q-150 -176 -428 -176q-261 0 -422.5 155t-161.5 400zM283 618h696q-15 138 -111 225t-237 87t-237 -87t-111 -225zM295 1288 v117h668v-117h-668zM487 1534l242 231h223l-303 -231h-162z" />
<glyph unicode="&#x1e1c;" horiz-adv-x="1372" d="M215 0v1434h1012v-179h-807v-440h719v-174h-719v-463h835v-178h-460l-27 -102q87 -9 132.5 -54.5t45.5 -115.5q0 -86 -69 -136.5t-185 -50.5q-108 0 -182 45l43 101q60 -35 139 -35q115 0 115 82q0 37 -29 58.5t-88 21.5h-55l47 186h-467zM391 1817h133q3 -74 59.5 -119 t139.5 -45t139.5 45t59.5 119h133q-4 -127 -97.5 -203t-234.5 -76t-234.5 76t-97.5 203z" />
<glyph unicode="&#x1e1d;" d="M86 543q0 159 70.5 285.5t195 197t279.5 70.5q236 0 386 -155t150 -404q0 -24 -4 -60h-880q19 -143 126 -230t267 -87q194 0 313 131l109 -127q-72 -84 -180 -129t-240 -47l-25 -90q87 -9 132.5 -54.5t45.5 -115.5q0 -86 -68.5 -136.5t-184.5 -50.5q-109 0 -183 45 l43 101q60 -35 140 -35q114 0 114 82q0 37 -29 58.5t-88 21.5h-55l47 180q-219 31 -350 180.5t-131 368.5zM283 618h696q-15 138 -111 225t-237 87t-237 -87t-111 -225zM297 1509h133q3 -74 59.5 -118.5t139.5 -44.5t139 44.5t59 118.5h134q-4 -127 -97.5 -202.5 t-234.5 -75.5t-234.5 75.5t-97.5 202.5z" />
<glyph unicode="&#x1e20;" horiz-adv-x="1581" d="M98 717q0 209 99 377t274.5 262t394.5 94q171 0 312 -56.5t239 -164.5l-127 -127q-172 166 -416 166q-249 0 -410 -156t-161 -395q0 -156 73 -282t203.5 -197.5t292.5 -71.5q194 0 336 92v467h197v-559q-105 -89 -247 -135.5t-296 -46.5q-163 0 -305 55.5t-242.5 152 t-158.5 232.5t-58 293zM506 1622v123h668v-123h-668z" />
<glyph unicode="&#x1e21;" horiz-adv-x="1413" d="M86 571q0 154 72.5 274t197.5 185.5t281 65.5q124 0 228.5 -45t172.5 -133v167h187v-938q0 -284 -141.5 -420.5t-421.5 -136.5q-153 0 -292.5 42t-226.5 120l95 152q76 -65 187 -103.5t230 -38.5q191 0 282 90t91 275v86q-69 -83 -170.5 -125.5t-220.5 -42.5 q-237 0 -394 147t-157 379zM285 571q0 -156 104.5 -255t269.5 -99q163 0 268 99t105 255q0 157 -104.5 255t-268.5 98q-165 0 -269.5 -98t-104.5 -255zM340 1315v123h668v-123h-668z" />
<glyph unicode="&#x1e24;" horiz-adv-x="1662" d="M215 0v1434h205v-617h823v617h205v-1434h-205v639h-823v-639h-205zM725 -299q0 45 30.5 75.5t73.5 30.5t74 -30.5t31 -75.5t-30.5 -73.5t-74.5 -28.5t-74 28.5t-30 73.5z" />
<glyph unicode="&#x1e25;" horiz-adv-x="1394" d="M186 0v1520h197v-588q62 79 160.5 121.5t222.5 42.5q206 0 328.5 -119.5t122.5 -351.5v-625h-197v602q0 158 -76 238t-217 80q-160 0 -252 -93.5t-92 -267.5v-559h-197zM598 -299q0 45 30.5 75.5t73.5 30.5t74 -30.5t31 -75.5t-30.5 -73.5t-74.5 -28.5t-74 28.5t-30 73.5 z" />
<glyph unicode="&#x1e2a;" horiz-adv-x="1662" d="M215 0v1434h205v-617h823v617h205v-1434h-205v639h-823v-639h-205zM498 -166h129q0 -69 57 -111t145 -42t145.5 42t57.5 111h129q-4 -118 -98 -190t-234 -72t-233.5 72t-97.5 190z" />
<glyph unicode="&#x1e2b;" horiz-adv-x="1394" d="M186 0v1520h197v-588q62 79 160.5 121.5t222.5 42.5q206 0 328.5 -119.5t122.5 -351.5v-625h-197v602q0 158 -76 238t-217 80q-160 0 -252 -93.5t-92 -267.5v-559h-197zM371 -166h129q0 -69 57 -111t145 -42t145.5 42t57.5 111h129q-4 -118 -98 -190t-234 -72t-233.5 72 t-97.5 190z" />
<glyph unicode="&#x1e2e;" horiz-adv-x="634" d="M31 1688q0 43 29.5 71.5t72.5 28.5q42 0 71 -29t29 -71q0 -44 -29 -73.5t-71 -29.5q-43 0 -72.5 29.5t-29.5 73.5zM176 1841l242 232h223l-303 -232h-162zM215 0v1434h205v-1434h-205zM403 1688q0 42 30 71t71 29q42 0 72 -29t30 -71q0 -44 -30 -73.5t-72 -29.5 q-41 0 -71 30t-30 73z" />
<glyph unicode="&#x1e2f;" horiz-adv-x="571" d="M-2 1380q0 43 29.5 72t72.5 29q42 0 71.5 -29.5t29.5 -71.5q0 -44 -29.5 -73t-71.5 -29q-43 0 -72.5 29t-29.5 73zM143 1534l242 231h223l-303 -231h-162zM186 0v1085h197v-1085h-197zM371 1380q0 42 30 71.5t70 29.5q42 0 72 -29.5t30 -71.5q0 -44 -30 -73t-72 -29 q-41 0 -70.5 29.5t-29.5 72.5z" />
<glyph unicode="&#x1e36;" horiz-adv-x="1216" d="M215 0v1434h205v-1256h776v-178h-981zM625 -299q0 45 30.5 75.5t73.5 30.5t74 -30.5t31 -75.5t-30.5 -73.5t-74.5 -28.5t-74 28.5t-30 73.5z" />
<glyph unicode="&#x1e37;" horiz-adv-x="571" d="M180 -299q0 45 31 75.5t74 30.5t73.5 -30.5t30.5 -75.5t-30 -73.5t-74 -28.5t-74.5 28.5t-30.5 73.5zM186 0v1520h197v-1520h-197z" />
<glyph unicode="&#x1e3a;" horiz-adv-x="1216" d="M215 0v1434h205v-1256h776v-178h-981zM395 -231h668v-125h-668v125z" />
<glyph unicode="&#x1e3b;" horiz-adv-x="571" d="M-49 -231h667v-125h-667v125zM186 0v1520h197v-1520h-197z" />
<glyph unicode="&#x1e42;" horiz-adv-x="1955" d="M215 0v1434h168l598 -1008l590 1008h168l2 -1434h-197l-2 1044l-518 -870h-94l-518 864v-1038h-197zM872 -299q0 45 31 75.5t74 30.5t73.5 -30.5t30.5 -75.5t-30 -73.5t-74 -28.5t-74.5 28.5t-30.5 73.5z" />
<glyph unicode="&#x1e43;" horiz-adv-x="2164" d="M186 0v1085h189v-161q58 83 155 127.5t220 44.5q127 0 225 -51t151 -150q62 94 172 147.5t246 53.5q205 0 325 -119.5t120 -351.5v-625h-197v602q0 158 -73 238t-208 80q-151 0 -238 -93.5t-87 -267.5v-559h-197v602q0 158 -72.5 238t-207.5 80q-151 0 -238.5 -93.5 t-87.5 -267.5v-559h-197zM981 -299q0 45 30.5 75.5t73.5 30.5t74 -30.5t31 -75.5t-30.5 -73.5t-74.5 -28.5t-74 28.5t-30 73.5z" />
<glyph unicode="&#x1e44;" horiz-adv-x="1662" d="M215 0v1434h168l860 -1069v1069h205v-1434h-168l-860 1069v-1069h-205zM709 1708q0 51 34.5 86t85.5 35t86 -35t35 -86q0 -52 -35 -86.5t-86 -34.5t-85.5 34.5t-34.5 86.5z" />
<glyph unicode="&#x1e45;" horiz-adv-x="1394" d="M186 0v1085h189v-163q60 84 161 129t230 45q206 0 328.5 -119.5t122.5 -351.5v-625h-197v602q0 158 -76 238t-217 80q-160 0 -252 -93.5t-92 -267.5v-559h-197zM582 1401q0 51 34.5 86t85.5 35t86 -35t35 -86q0 -52 -35 -86.5t-86 -34.5t-85.5 34.5t-34.5 86.5z" />
<glyph unicode="&#x1e46;" horiz-adv-x="1662" d="M215 0v1434h168l860 -1069v1069h205v-1434h-168l-860 1069v-1069h-205zM725 -299q0 45 30.5 75.5t73.5 30.5t74 -30.5t31 -75.5t-30.5 -73.5t-74.5 -28.5t-74 28.5t-30 73.5z" />
<glyph unicode="&#x1e47;" horiz-adv-x="1394" d="M186 0v1085h189v-163q60 84 161 129t230 45q206 0 328.5 -119.5t122.5 -351.5v-625h-197v602q0 158 -76 238t-217 80q-160 0 -252 -93.5t-92 -267.5v-559h-197zM598 -299q0 45 30.5 75.5t73.5 30.5t74 -30.5t31 -75.5t-30.5 -73.5t-74.5 -28.5t-74 28.5t-30 73.5z" />
<glyph unicode="&#x1e48;" horiz-adv-x="1662" d="M215 0v1434h168l860 -1069v1069h205v-1434h-168l-860 1069v-1069h-205zM496 -231h667v-125h-667v125z" />
<glyph unicode="&#x1e49;" horiz-adv-x="1394" d="M186 0v1085h189v-163q60 84 161 129t230 45q206 0 328.5 -119.5t122.5 -351.5v-625h-197v602q0 158 -76 238t-217 80q-160 0 -252 -93.5t-92 -267.5v-559h-197zM369 -231h667v-125h-667v125z" />
<glyph unicode="&#x1e4c;" horiz-adv-x="1720" d="M98 717q0 155 58 291t158.5 233t243 153t304.5 56q215 0 389 -94.5t272.5 -262.5t98.5 -376t-98.5 -376t-272.5 -262.5t-389 -94.5q-162 0 -304.5 56t-243 153t-158.5 233t-58 291zM303 717q0 -238 159 -394.5t400 -156.5q238 0 396.5 157t158.5 394t-158.5 394 t-396.5 157q-241 0 -400 -156.5t-159 -394.5zM524 1569q1 99 54 155t143 56q44 0 86.5 -17.5t70 -38t60.5 -38t59 -17.5q45 0 69 26.5t26 73.5h108q-2 -97 -53.5 -152.5t-140.5 -55.5q-45 0 -88.5 17t-71 38t-60 38t-57.5 17q-91 0 -94 -102h-111zM721 1841l242 232h223 l-303 -232h-162z" />
<glyph unicode="&#x1e4d;" horiz-adv-x="1300" d="M86 543q0 242 160 397.5t405 155.5t404 -155.5t159 -397.5q0 -160 -72.5 -287t-201 -197.5t-289.5 -70.5q-245 0 -405 156.5t-160 398.5zM285 543q0 -171 103.5 -277t262.5 -106t262 106t103 277t-103 276t-262 105t-262.5 -105t-103.5 -276zM311 1262q1 99 54 155 t143 56q44 0 86.5 -17.5t70 -38t60.5 -38t59 -17.5q45 0 69 26.5t26 73.5h108q-2 -97 -53.5 -153t-140.5 -56q-45 0 -88.5 17.5t-71 38t-60 38t-57.5 17.5q-91 0 -94 -102h-111zM508 1534l242 231h223l-303 -231h-162z" />
<glyph unicode="&#x1e4e;" horiz-adv-x="1720" d="M98 717q0 155 58 291t158.5 233t243 153t304.5 56q215 0 389 -94.5t272.5 -262.5t98.5 -376t-98.5 -376t-272.5 -262.5t-389 -94.5q-162 0 -304.5 56t-243 153t-158.5 233t-58 291zM303 717q0 -238 159 -394.5t400 -156.5q238 0 396.5 157t158.5 394t-158.5 394 t-396.5 157q-241 0 -400 -156.5t-159 -394.5zM524 1569q1 99 54 155t143 56q44 0 86.5 -17.5t70 -38t60.5 -38t59 -17.5q45 0 69 26.5t26 73.5h108q-2 -97 -53.5 -152.5t-140.5 -55.5q-45 0 -88.5 17t-71 38t-60 38t-57.5 17q-91 0 -94 -102h-111zM575 1978q0 43 30 72 t73 29q42 0 71 -29.5t29 -71.5q0 -44 -29 -73t-71 -29q-43 0 -73 29t-30 73zM948 1978q0 42 30.5 71.5t70.5 29.5q42 0 72 -29.5t30 -71.5q0 -44 -30 -73t-72 -29q-41 0 -71 29.5t-30 72.5z" />
<glyph unicode="&#x1e4f;" horiz-adv-x="1300" d="M86 543q0 242 160 397.5t405 155.5t404 -155.5t159 -397.5q0 -160 -72.5 -287t-201 -197.5t-289.5 -70.5q-245 0 -405 156.5t-160 398.5zM285 543q0 -171 103.5 -277t262.5 -106t262 106t103 277t-103 276t-262 105t-262.5 -105t-103.5 -276zM311 1262q1 99 54 155 t143 56q44 0 86.5 -17.5t70 -38t60.5 -38t59 -17.5q45 0 69 26.5t26 73.5h108q-2 -97 -53.5 -153t-140.5 -56q-45 0 -88.5 17.5t-71 38t-60 38t-57.5 17.5q-91 0 -94 -102h-111zM362 1671q0 43 30 72t73 29q41 0 70.5 -29t29.5 -72q0 -44 -29 -73t-71 -29q-43 0 -73 29 t-30 73zM735 1671q0 42 30.5 71.5t70.5 29.5q42 0 72 -29.5t30 -71.5q0 -44 -30 -73t-72 -29q-41 0 -71 29.5t-30 72.5z" />
<glyph unicode="&#x1e50;" horiz-adv-x="1720" d="M98 717q0 155 58 291t158.5 233t243 153t304.5 56q215 0 389 -94.5t272.5 -262.5t98.5 -376t-98.5 -376t-272.5 -262.5t-389 -94.5q-162 0 -304.5 56t-243 153t-158.5 233t-58 291zM303 717q0 -238 159 -394.5t400 -156.5q238 0 396.5 157t158.5 394t-158.5 394 t-396.5 157q-241 0 -400 -156.5t-159 -394.5zM528 1595v117h668v-117h-668zM541 2073h223l240 -232h-160z" />
<glyph unicode="&#x1e51;" horiz-adv-x="1300" d="M86 543q0 242 160 397.5t405 155.5t404 -155.5t159 -397.5q0 -160 -72.5 -287t-201 -197.5t-289.5 -70.5q-245 0 -405 156.5t-160 398.5zM285 543q0 -171 103.5 -277t262.5 -106t262 106t103 277t-103 276t-262 105t-262.5 -105t-103.5 -276zM315 1288v117h668v-117h-668 zM328 1765h223l240 -231h-160z" />
<glyph unicode="&#x1e52;" horiz-adv-x="1720" d="M98 717q0 155 58 291t158.5 233t243 153t304.5 56q215 0 389 -94.5t272.5 -262.5t98.5 -376t-98.5 -376t-272.5 -262.5t-389 -94.5q-162 0 -304.5 56t-243 153t-158.5 233t-58 291zM303 717q0 -238 159 -394.5t400 -156.5q238 0 396.5 157t158.5 394t-158.5 394 t-396.5 157q-241 0 -400 -156.5t-159 -394.5zM528 1595v117h668v-117h-668zM721 1841l242 232h223l-303 -232h-162z" />
<glyph unicode="&#x1e53;" horiz-adv-x="1300" d="M86 543q0 242 160 397.5t405 155.5t404 -155.5t159 -397.5q0 -160 -72.5 -287t-201 -197.5t-289.5 -70.5q-245 0 -405 156.5t-160 398.5zM285 543q0 -171 103.5 -277t262.5 -106t262 106t103 277t-103 276t-262 105t-262.5 -105t-103.5 -276zM315 1288v117h668v-117h-668 zM508 1534l242 231h223l-303 -231h-162z" />
<glyph unicode="&#x1e5a;" horiz-adv-x="1488" d="M215 0v1434h559q280 0 439 -133.5t159 -366.5q0 -165 -82 -282t-233 -171l340 -481h-223l-310 440q-58 -4 -90 -4h-354v-436h-205zM420 610h348q195 0 297 84.5t102 239.5t-102 238t-297 83h-348v-645zM655 -299q0 45 31 75.5t74 30.5t73.5 -30.5t30.5 -75.5t-30 -73.5 t-74 -28.5t-74.5 28.5t-30.5 73.5z" />
<glyph unicode="&#x1e5b;" horiz-adv-x="839" d="M180 -299q0 45 31 75.5t74 30.5t73.5 -30.5t30.5 -75.5t-30 -73.5t-74 -28.5t-74.5 28.5t-30.5 73.5zM186 0v1085h189v-182q106 193 395 193v-191q-16 2 -45 2q-160 0 -251 -95t-91 -271v-541h-197z" />
<glyph unicode="&#x1e5e;" horiz-adv-x="1488" d="M215 0v1434h559q280 0 439 -133.5t159 -366.5q0 -165 -82 -282t-233 -171l340 -481h-223l-310 440q-58 -4 -90 -4h-354v-436h-205zM420 610h348q195 0 297 84.5t102 239.5t-102 238t-297 83h-348v-645zM426 -231h668v-125h-668v125z" />
<glyph unicode="&#x1e5f;" horiz-adv-x="839" d="M-49 -231h667v-125h-667v125zM186 0v1085h189v-182q106 193 395 193v-191q-16 2 -45 2q-160 0 -251 -95t-91 -271v-541h-197z" />
<glyph unicode="&#x1e60;" horiz-adv-x="1271" d="M84 164l76 160q81 -74 209.5 -120t263.5 -46q178 0 266 61t88 160q0 71 -48 118.5t-124.5 73.5t-169 47t-185 49.5t-169 69.5t-124.5 118t-48 185q0 85 33.5 158t99 130t172.5 89.5t244 32.5q128 0 250 -33t210 -94l-67 -164q-183 117 -393 117q-174 0 -261.5 -63.5 t-87.5 -163.5q0 -56 29.5 -97t80 -66.5t115.5 -45.5t137.5 -37t144.5 -36t137 -49.5t115.5 -71.5t80 -106t29.5 -149t-34 -156.5t-100.5 -129t-174.5 -89t-246 -32.5q-162 0 -312 50t-237 130zM539 1708q0 51 34.5 86t85.5 35t86 -35t35 -86q0 -52 -35 -86.5t-86 -34.5 t-85.5 34.5t-34.5 86.5z" />
<glyph unicode="&#x1e61;" horiz-adv-x="1026" d="M49 115l82 155q70 -50 173.5 -81t207.5 -31q258 0 258 147q0 49 -38 79.5t-98.5 44.5t-133.5 25t-146 29t-133.5 48t-98.5 90.5t-38 148.5q0 147 122.5 236.5t330.5 89.5q107 0 216 -27t179 -72l-84 -155q-134 86 -313 86q-125 0 -190.5 -41.5t-65.5 -108.5q0 -52 38 -84 t98.5 -47.5t134 -27t147 -30t134 -47.5t98.5 -88t38 -145q0 -148 -126 -234.5t-343 -86.5q-132 0 -256 36t-193 91zM387 1401q0 51 35 86t86 35t86 -35t35 -86q0 -52 -35 -86.5t-86 -34.5t-86 34.5t-35 86.5z" />
<glyph unicode="&#x1e62;" horiz-adv-x="1271" d="M84 164l76 160q81 -74 209.5 -120t263.5 -46q178 0 266 61t88 160q0 71 -48 118.5t-124.5 73.5t-169 47t-185 49.5t-169 69.5t-124.5 118t-48 185q0 85 33.5 158t99 130t172.5 89.5t244 32.5q128 0 250 -33t210 -94l-67 -164q-183 117 -393 117q-174 0 -261.5 -63.5 t-87.5 -163.5q0 -56 29.5 -97t80 -66.5t115.5 -45.5t137.5 -37t144.5 -36t137 -49.5t115.5 -71.5t80 -106t29.5 -149t-34 -156.5t-100.5 -129t-174.5 -89t-246 -32.5q-162 0 -312 50t-237 130zM555 -299q0 45 30.5 75.5t73.5 30.5t74 -30.5t31 -75.5t-30.5 -73.5 t-74.5 -28.5t-74 28.5t-30 73.5z" />
<glyph unicode="&#x1e63;" horiz-adv-x="1026" d="M49 115l82 155q70 -50 173.5 -81t207.5 -31q258 0 258 147q0 49 -38 79.5t-98.5 44.5t-133.5 25t-146 29t-133.5 48t-98.5 90.5t-38 148.5q0 147 122.5 236.5t330.5 89.5q107 0 216 -27t179 -72l-84 -155q-134 86 -313 86q-125 0 -190.5 -41.5t-65.5 -108.5q0 -52 38 -84 t98.5 -47.5t134 -27t147 -30t134 -47.5t98.5 -88t38 -145q0 -148 -126 -234.5t-343 -86.5q-132 0 -256 36t-193 91zM403 -299q0 45 31 75.5t74 30.5t73.5 -30.5t30.5 -75.5t-30 -73.5t-74 -28.5t-74.5 28.5t-30.5 73.5z" />
<glyph unicode="&#x1e64;" horiz-adv-x="1271" d="M84 164l76 160q81 -74 209.5 -120t263.5 -46q178 0 266 61t88 160q0 71 -48 118.5t-124.5 73.5t-169 47t-185 49.5t-169 69.5t-124.5 118t-48 185q0 85 33.5 158t99 130t172.5 89.5t244 32.5q128 0 250 -33t210 -94l-67 -164q-183 117 -393 117q-174 0 -261.5 -63.5 t-87.5 -163.5q0 -56 29.5 -97t80 -66.5t115.5 -45.5t137.5 -37t144.5 -36t137 -49.5t115.5 -71.5t80 -106t29.5 -149t-34 -156.5t-100.5 -129t-174.5 -89t-246 -32.5q-162 0 -312 50t-237 130zM518 1550l242 232h223l-303 -232h-162zM555 1980q0 45 30.5 75t73.5 30t74 -30 t31 -75t-31 -75.5t-74 -30.5t-73.5 30.5t-30.5 75.5z" />
<glyph unicode="&#x1e65;" horiz-adv-x="1026" d="M49 115l82 155q70 -50 173.5 -81t207.5 -31q258 0 258 147q0 49 -38 79.5t-98.5 44.5t-133.5 25t-146 29t-133.5 48t-98.5 90.5t-38 148.5q0 147 122.5 236.5t330.5 89.5q107 0 216 -27t179 -72l-84 -155q-134 86 -313 86q-125 0 -190.5 -41.5t-65.5 -108.5q0 -52 38 -84 t98.5 -47.5t134 -27t147 -30t134 -47.5t98.5 -88t38 -145q0 -148 -126 -234.5t-343 -86.5q-132 0 -256 36t-193 91zM367 1243l241 232h223l-303 -232h-161zM403 1673q0 45 31 75t74 30t73.5 -30t30.5 -75t-30.5 -75.5t-73.5 -30.5t-74 30.5t-31 75.5z" />
<glyph unicode="&#x1e66;" horiz-adv-x="1271" d="M84 164l76 160q81 -74 209.5 -120t263.5 -46q178 0 266 61t88 160q0 71 -48 118.5t-124.5 73.5t-169 47t-185 49.5t-169 69.5t-124.5 118t-48 185q0 85 33.5 158t99 130t172.5 89.5t244 32.5q128 0 250 -33t210 -94l-67 -164q-183 117 -393 117q-174 0 -261.5 -63.5 t-87.5 -163.5q0 -56 29.5 -97t80 -66.5t115.5 -45.5t137.5 -37t144.5 -36t137 -49.5t115.5 -71.5t80 -106t29.5 -149t-34 -156.5t-100.5 -129t-174.5 -89t-246 -32.5q-162 0 -312 50t-237 130zM293 1755h180l186 -115l187 115h180l-274 -205h-185zM555 1933q0 45 30.5 75 t73.5 30t74 -30t31 -75t-31 -75.5t-74 -30.5t-73.5 30.5t-30.5 75.5z" />
<glyph unicode="&#x1e67;" horiz-adv-x="1026" d="M49 115l82 155q70 -50 173.5 -81t207.5 -31q258 0 258 147q0 49 -38 79.5t-98.5 44.5t-133.5 25t-146 29t-133.5 48t-98.5 90.5t-38 148.5q0 147 122.5 236.5t330.5 89.5q107 0 216 -27t179 -72l-84 -155q-134 86 -313 86q-125 0 -190.5 -41.5t-65.5 -108.5q0 -52 38 -84 t98.5 -47.5t134 -27t147 -30t134 -47.5t98.5 -88t38 -145q0 -148 -126 -234.5t-343 -86.5q-132 0 -256 36t-193 91zM141 1448h181l186 -115l186 115h180l-274 -205h-184zM403 1626q0 45 31 75t74 30t73.5 -30t30.5 -75t-30.5 -75.5t-73.5 -30.5t-74 30.5t-31 75.5z" />
<glyph unicode="&#x1e68;" horiz-adv-x="1271" d="M84 164l76 160q81 -74 209.5 -120t263.5 -46q178 0 266 61t88 160q0 71 -48 118.5t-124.5 73.5t-169 47t-185 49.5t-169 69.5t-124.5 118t-48 185q0 85 33.5 158t99 130t172.5 89.5t244 32.5q128 0 250 -33t210 -94l-67 -164q-183 117 -393 117q-174 0 -261.5 -63.5 t-87.5 -163.5q0 -56 29.5 -97t80 -66.5t115.5 -45.5t137.5 -37t144.5 -36t137 -49.5t115.5 -71.5t80 -106t29.5 -149t-34 -156.5t-100.5 -129t-174.5 -89t-246 -32.5q-162 0 -312 50t-237 130zM539 1708q0 51 34.5 86t85.5 35t86 -35t35 -86q0 -52 -35 -86.5t-86 -34.5 t-85.5 34.5t-34.5 86.5zM555 -299q0 45 30.5 75.5t73.5 30.5t74 -30.5t31 -75.5t-30.5 -73.5t-74.5 -28.5t-74 28.5t-30 73.5z" />
<glyph unicode="&#x1e69;" horiz-adv-x="1026" d="M49 115l82 155q70 -50 173.5 -81t207.5 -31q258 0 258 147q0 49 -38 79.5t-98.5 44.5t-133.5 25t-146 29t-133.5 48t-98.5 90.5t-38 148.5q0 147 122.5 236.5t330.5 89.5q107 0 216 -27t179 -72l-84 -155q-134 86 -313 86q-125 0 -190.5 -41.5t-65.5 -108.5q0 -52 38 -84 t98.5 -47.5t134 -27t147 -30t134 -47.5t98.5 -88t38 -145q0 -148 -126 -234.5t-343 -86.5q-132 0 -256 36t-193 91zM387 1401q0 51 35 86t86 35t86 -35t35 -86q0 -52 -35 -86.5t-86 -34.5t-86 34.5t-35 86.5zM403 -299q0 45 31 75.5t74 30.5t73.5 -30.5t30.5 -75.5 t-30 -73.5t-74 -28.5t-74.5 28.5t-30.5 73.5z" />
<glyph unicode="&#x1e6c;" horiz-adv-x="1202" d="M8 1255v179h1186v-179h-492v-1255h-202v1255h-492zM496 -299q0 45 30.5 75.5t73.5 30.5t74 -30.5t31 -75.5t-30.5 -73.5t-74.5 -28.5t-74 28.5t-30 73.5z" />
<glyph unicode="&#x1e6d;" horiz-adv-x="847" d="M31 924v161h184v238h197v-238h311v-161h-311v-588q0 -88 44 -135t126 -47q90 0 153 51l62 -142q-87 -75 -238 -75q-165 0 -254.5 88t-89.5 252v596h-184zM414 -299q0 45 30.5 75.5t73.5 30.5t74 -30.5t31 -75.5t-30.5 -73.5t-74.5 -28.5t-74 28.5t-30 73.5z" />
<glyph unicode="&#x1e6e;" horiz-adv-x="1202" d="M8 1255v179h1186v-179h-492v-1255h-202v1255h-492zM266 -231h668v-125h-668v125z" />
<glyph unicode="&#x1e6f;" horiz-adv-x="847" d="M31 924v161h184v238h197v-238h311v-161h-311v-588q0 -88 44 -135t126 -47q90 0 153 51l62 -142q-87 -75 -238 -75q-165 0 -254.5 88t-89.5 252v596h-184zM184 -231h668v-125h-668v125z" />
<glyph unicode="&#x1e78;" horiz-adv-x="1619" d="M203 618v816h205v-807q0 -461 403 -461q198 0 302 114t104 347v807h198v-816q0 -308 -159 -471t-447 -163q-287 0 -446.5 163t-159.5 471zM473 1569q1 99 54 155t143 56q44 0 86.5 -17.5t70 -38t60.5 -38t59 -17.5q45 0 68.5 26.5t25.5 73.5h109q-2 -97 -54 -152.5 t-141 -55.5q-45 0 -88 17t-70.5 38t-60 38t-57.5 17q-91 0 -94 -102h-111zM670 1841l241 232h224l-304 -232h-161z" />
<glyph unicode="&#x1e79;" horiz-adv-x="1386" d="M176 461v624h197v-602q0 -158 76 -238.5t217 -80.5q156 0 245.5 94t89.5 266v561h197v-1085h-186v164q-60 -84 -156.5 -130t-212.5 -46q-217 0 -342 120t-125 353zM350 1262q1 99 54 155t143 56q44 0 86.5 -17.5t70 -38t60.5 -38t59 -17.5q45 0 69 26.5t26 73.5h108 q-2 -97 -54 -153t-141 -56q-45 0 -88 17.5t-70.5 38t-60 38t-57.5 17.5q-91 0 -94 -102h-111zM547 1534l241 231h224l-303 -231h-162z" />
<glyph unicode="&#x1e7a;" horiz-adv-x="1619" d="M203 618v816h205v-807q0 -461 403 -461q198 0 302 114t104 347v807h198v-816q0 -308 -159 -471t-447 -163q-287 0 -446.5 163t-159.5 471zM477 1597v117h668v-117h-668zM524 1980q0 43 30 72t73 29q41 0 70.5 -29.5t29.5 -71.5q0 -44 -29 -73t-71 -29q-43 0 -73 29 t-30 73zM897 1980q0 42 30 71.5t70 29.5q42 0 72.5 -29.5t30.5 -71.5q0 -43 -30.5 -72.5t-72.5 -29.5q-41 0 -70.5 29.5t-29.5 72.5z" />
<glyph unicode="&#x1e7b;" horiz-adv-x="1386" d="M176 461v624h197v-602q0 -158 76 -238.5t217 -80.5q156 0 245.5 94t89.5 266v561h197v-1085h-186v164q-60 -84 -156.5 -130t-212.5 -46q-217 0 -342 120t-125 353zM354 1288v117h668v-117h-668zM401 1671q0 43 30 72t73 29q42 0 71 -29t29 -72q0 -44 -29 -73t-71 -29 q-43 0 -73 29t-30 73zM774 1671q0 42 30 71.5t70 29.5q42 0 72.5 -29.5t30.5 -71.5q0 -43 -30.5 -72.5t-72.5 -29.5q-41 0 -70.5 29.5t-29.5 72.5z" />
<glyph unicode="&#x1e80;" horiz-adv-x="2306" d="M66 1434h210l388 -1166l403 1166h188l396 -1172l395 1172h195l-480 -1434h-215l-391 1145l-391 -1145h-219zM780 1817h250l279 -267h-185z" />
<glyph unicode="&#x1e81;" horiz-adv-x="1841" d="M12 1085h187l315 -864l328 864h166l321 -868l324 868h176l-406 -1085h-188l-313 823l-318 -823h-188zM541 1505h250l278 -266h-184z" />
<glyph unicode="&#x1e82;" horiz-adv-x="2306" d="M66 1434h210l388 -1166l403 1166h188l396 -1172l395 1172h195l-480 -1434h-215l-391 1145l-391 -1145h-219zM1001 1550l279 267h250l-344 -267h-185z" />
<glyph unicode="&#x1e83;" horiz-adv-x="1841" d="M12 1085h187l315 -864l328 864h166l321 -868l324 868h176l-406 -1085h-188l-313 823l-318 -823h-188zM762 1239l278 266h250l-344 -266h-184z" />
<glyph unicode="&#x1e84;" horiz-adv-x="2306" d="M66 1434h210l388 -1166l403 1166h188l396 -1172l395 1172h195l-480 -1434h-215l-391 1145l-391 -1145h-219zM860 1690q0 45 31 75.5t74 30.5t73.5 -30.5t30.5 -75.5t-30.5 -75t-73.5 -30t-74 30t-31 75zM1241 1690q0 45 31 75.5t74 30.5t73.5 -30.5t30.5 -75.5t-30.5 -75 t-73.5 -30t-74 30t-31 75z" />
<glyph unicode="&#x1e85;" horiz-adv-x="1841" d="M12 1085h187l315 -864l328 864h166l321 -868l324 868h176l-406 -1085h-188l-313 823l-318 -823h-188zM621 1378q0 45 30.5 76t73.5 31t73.5 -31t30.5 -76t-30.5 -74.5t-73.5 -29.5t-73.5 29.5t-30.5 74.5zM1001 1378q0 45 31 76t74 31t73.5 -31t30.5 -76t-30.5 -74.5 t-73.5 -29.5q-44 0 -74.5 29.5t-30.5 74.5z" />
<glyph unicode="&#x1e8e;" horiz-adv-x="1325" d="M-8 1434h219l459 -756l460 756h203l-569 -938v-496h-203v500zM543 1708q0 51 35 86t86 35t85.5 -35t34.5 -86q0 -52 -34.5 -86.5t-85.5 -34.5t-86 34.5t-35 86.5z" />
<glyph unicode="&#x1e8f;" horiz-adv-x="1144" d="M-45 -309l84 147q83 -80 194 -80q72 0 120 38t87 130l35 76l-479 1083h205l379 -868l374 868h193l-526 -1194q-69 -165 -163 -233t-225 -68q-80 0 -154 26.5t-124 74.5zM424 1401q0 51 35 86t86 35t86 -35t35 -86q0 -52 -35 -86.5t-86 -34.5t-86 34.5t-35 86.5z" />
<glyph unicode="&#x1e92;" horiz-adv-x="1345" d="M88 0v139l901 1116h-887v179h1158v-140l-898 -1116h924v-178h-1198zM596 -299q0 45 30.5 75.5t73.5 30.5t74 -30.5t31 -75.5t-30.5 -73.5t-74.5 -28.5t-74 28.5t-30 73.5z" />
<glyph unicode="&#x1e93;" horiz-adv-x="1067" d="M82 0v127l641 797h-629v161h881v-129l-641 -794h657v-162h-909zM444 -299q0 45 31 75.5t74 30.5t73.5 -30.5t30.5 -75.5t-30 -73.5t-74 -28.5t-74.5 28.5t-30.5 73.5z" />
<glyph unicode="&#x1e97;" horiz-adv-x="847" d="M18 1620q0 45 31 75.5t74 30.5t73.5 -30.5t30.5 -75.5t-30.5 -74.5t-73.5 -29.5q-44 0 -74.5 29.5t-30.5 74.5zM31 924v161h184v238h197v-238h311v-161h-311v-588q0 -88 44 -135t126 -47q90 0 153 51l62 -142q-87 -75 -238 -75q-165 0 -254.5 88t-89.5 252v596h-184z M399 1620q0 45 31 75.5t74 30.5t73.5 -30.5t30.5 -75.5t-30.5 -74.5t-73.5 -29.5q-44 0 -74.5 29.5t-30.5 74.5z" />
<glyph unicode="&#x1e9e;" horiz-adv-x="1562" d="M203 0v829q0 293 168.5 460t468.5 167q139 0 266 -36t217 -105v-133l-305 -340q197 -12 318.5 -124t121.5 -304q0 -204 -136 -317t-355 -113q-177 0 -299 51l32 172q101 -49 240 -49q147 0 229 67t82 195q0 129 -83 196.5t-232 67.5q-97 0 -168 -22l-39 98l410 461 q-128 61 -295 61q-212 0 -324 -118.5t-112 -340.5v-823h-205z" />
<glyph unicode="&#x1ea0;" horiz-adv-x="1499" d="M-2 0l649 1434h203l651 -1434h-215l-158 358h-761l-158 -358h-211zM438 522h619l-309 703zM645 -299q0 45 31 75.5t74 30.5t73.5 -30.5t30.5 -75.5t-30 -73.5t-74 -28.5t-74.5 28.5t-30.5 73.5z" />
<glyph unicode="&#x1ea1;" horiz-adv-x="1224" d="M102 307q0 68 23.5 123.5t73 100t136 69.5t204.5 25h311v39q0 126 -73.5 194t-217.5 68q-97 0 -189 -31.5t-155 -85.5l-82 147q85 67 201.5 103.5t247.5 36.5q226 0 345.5 -110.5t119.5 -330.5v-655h-187v143q-104 -155 -356 -155q-183 0 -292.5 88.5t-109.5 230.5z M297 315q0 -82 64 -129t176 -47q111 0 194 50t119 143v151h-303q-250 0 -250 -168zM487 -299q0 45 31 75.5t74 30.5t73.5 -30.5t30.5 -75.5t-30 -73.5t-74 -28.5t-74.5 28.5t-30.5 73.5z" />
<glyph unicode="&#x1ea2;" horiz-adv-x="1499" d="M-2 0l649 1434h203l651 -1434h-215l-158 358h-761l-158 -358h-211zM438 522h619l-309 703zM561 1898q76 58 187 58q93 0 150.5 -52t57.5 -139q0 -156 -168 -233l-67 80q115 53 115 137q0 42 -30 69t-77 27q-64 0 -123 -39z" />
<glyph unicode="&#x1ea3;" horiz-adv-x="1224" d="M102 307q0 68 23.5 123.5t73 100t136 69.5t204.5 25h311v39q0 126 -73.5 194t-217.5 68q-97 0 -189 -31.5t-155 -85.5l-82 147q85 67 201.5 103.5t247.5 36.5q226 0 345.5 -110.5t119.5 -330.5v-655h-187v143q-104 -155 -356 -155q-183 0 -292.5 88.5t-109.5 230.5z M297 315q0 -82 64 -129t176 -47q111 0 194 50t119 143v151h-303q-250 0 -250 -168zM408 1591q76 58 186 58q93 0 151 -52t58 -139q0 -156 -168 -233l-68 80q115 53 115 137q0 42 -30 69t-77 27q-63 0 -122 -39z" />
<glyph unicode="&#x1ea4;" horiz-adv-x="1499" d="M-2 0l649 1434h203l651 -1434h-215l-158 358h-761l-158 -358h-211zM383 1550l274 205h185l274 -205h-180l-186 115l-187 -115h-180zM438 522h619l-309 703zM952 1731l242 231h223l-303 -231h-162z" />
<glyph unicode="&#x1ea5;" horiz-adv-x="1224" d="M102 307q0 68 23.5 123.5t73 100t136 69.5t204.5 25h311v39q0 126 -73.5 194t-217.5 68q-97 0 -189 -31.5t-155 -85.5l-82 147q85 67 201.5 103.5t247.5 36.5q226 0 345.5 -110.5t119.5 -330.5v-655h-187v143q-104 -155 -356 -155q-183 0 -292.5 88.5t-109.5 230.5z M229 1243l275 205h184l275 -205h-181l-186 115l-186 -115h-181zM297 315q0 -82 64 -129t176 -47q111 0 194 50t119 143v151h-303q-250 0 -250 -168zM799 1423l241 232h224l-303 -232h-162z" />
<glyph unicode="&#x1ea6;" horiz-adv-x="1499" d="M-2 0l649 1434h203l651 -1434h-215l-158 358h-761l-158 -358h-211zM383 1550l274 205h185l274 -205h-180l-186 115l-187 -115h-180zM438 522h619l-309 703zM772 1962h223l240 -231h-160z" />
<glyph unicode="&#x1ea7;" horiz-adv-x="1224" d="M102 307q0 68 23.5 123.5t73 100t136 69.5t204.5 25h311v39q0 126 -73.5 194t-217.5 68q-97 0 -189 -31.5t-155 -85.5l-82 147q85 67 201.5 103.5t247.5 36.5q226 0 345.5 -110.5t119.5 -330.5v-655h-187v143q-104 -155 -356 -155q-183 0 -292.5 88.5t-109.5 230.5z M229 1243l275 205h184l275 -205h-181l-186 115l-186 -115h-181zM297 315q0 -82 64 -129t176 -47q111 0 194 50t119 143v151h-303q-250 0 -250 -168zM618 1655h224l239 -232h-159z" />
<glyph unicode="&#x1ea8;" horiz-adv-x="1499" d="M-2 0l649 1434h203l651 -1434h-215l-158 358h-761l-158 -358h-211zM383 1550l274 205h185l274 -205h-180l-186 115l-187 -115h-180zM438 522h619l-309 703zM874 1966q61 39 142 39q73 0 116.5 -39.5t43.5 -103.5q0 -56 -34.5 -100t-92.5 -68l-54 59q82 40 82 98 q0 29 -22 46.5t-56 17.5q-43 0 -88 -25z" />
<glyph unicode="&#x1ea9;" horiz-adv-x="1224" d="M102 307q0 68 23.5 123.5t73 100t136 69.5t204.5 25h311v39q0 126 -73.5 194t-217.5 68q-97 0 -189 -31.5t-155 -85.5l-82 147q85 67 201.5 103.5t247.5 36.5q226 0 345.5 -110.5t119.5 -330.5v-655h-187v143q-104 -155 -356 -155q-183 0 -292.5 88.5t-109.5 230.5z M229 1243l275 205h184l275 -205h-181l-186 115l-186 -115h-181zM297 315q0 -82 64 -129t176 -47q111 0 194 50t119 143v151h-303q-250 0 -250 -168zM721 1659q61 39 141 39q73 0 116.5 -40t43.5 -104q0 -56 -34.5 -100t-92.5 -68l-53 60q82 40 82 98q0 29 -22 46.5t-56 17.5 q-43 0 -88 -25z" />
<glyph unicode="&#x1eaa;" horiz-adv-x="1499" d="M-2 0l649 1434h203l651 -1434h-215l-158 358h-761l-158 -358h-211zM383 1550l274 205h185l274 -205h-180l-186 115l-187 -115h-180zM412 1833q1 99 53.5 155t142.5 56q55 0 107.5 -28t95 -55.5t74.5 -27.5q45 0 68.5 27t25.5 74h108q-2 -97 -53.5 -153t-140.5 -56 q-45 0 -88.5 17t-71 38t-60 38t-57.5 17q-91 0 -94 -102h-110zM438 522h619l-309 703z" />
</font>
</defs>
</svg>
